G04*
G04 #@! TF.GenerationSoftware,Altium Limited,Altium Designer,22.4.2 (48)*
G04*
G04 Layer_Color=65535*
%FSLAX25Y25*%
%MOIN*%
G70*
G04*
G04 #@! TF.SameCoordinates,78AC0251-C41B-4C09-997F-A4DA7E128E32*
G04*
G04*
G04 #@! TF.FilePolarity,Positive*
G04*
G01*
G75*
%ADD10C,0.00394*%
%ADD11C,0.00984*%
%ADD12C,0.00787*%
%ADD13C,0.00800*%
%ADD14C,0.01000*%
%ADD15C,0.01968*%
%ADD16C,0.01575*%
%ADD17C,0.00600*%
D10*
X196922Y79068D02*
G03*
X196922Y79068I-197J0D01*
G01*
X195591Y24028D02*
G03*
X195591Y24028I-197J0D01*
G01*
Y136232D02*
G03*
X195591Y136232I-197J0D01*
G01*
D11*
X27130Y192016D02*
G03*
X27130Y192016I-492J0D01*
G01*
D12*
X181693Y164567D02*
Y166142D01*
X184449Y164567D02*
Y166142D01*
X193110Y105118D02*
Y108465D01*
X210433Y105118D02*
Y108465D01*
X193110Y92323D02*
Y95669D01*
X210433Y92323D02*
Y95669D01*
X193110Y108465D02*
X210433D01*
X193110Y92323D02*
X210433D01*
X193110Y50984D02*
Y54331D01*
X210433Y50984D02*
Y54331D01*
X193110Y38189D02*
Y41535D01*
X210433Y38189D02*
Y41535D01*
X193110Y54331D02*
X210433D01*
X193110Y38189D02*
X210433D01*
X192126Y162205D02*
Y165551D01*
X209449Y162205D02*
Y165551D01*
X192126Y149409D02*
Y152756D01*
X209449Y149409D02*
Y152756D01*
X192126Y165551D02*
X209449D01*
X192126Y149409D02*
X209449D01*
X214567Y13189D02*
X216142D01*
X214567Y10433D02*
X216142D01*
X42913Y114370D02*
Y115945D01*
X45669Y114370D02*
Y115945D01*
X66339Y192835D02*
Y202835D01*
X36339Y192835D02*
X66339D01*
X36339D02*
Y202835D01*
X66339D01*
X176725Y82599D02*
Y84174D01*
X173969Y82599D02*
Y84174D01*
X215899Y65276D02*
X217473D01*
X215899Y68032D02*
X217473D01*
X205072Y65276D02*
X206647D01*
X205072Y68032D02*
X206647D01*
X194245Y68032D02*
X195820D01*
X194245Y65276D02*
X195820D01*
X181693Y110433D02*
Y112008D01*
X184449Y110433D02*
Y112008D01*
X180709Y53347D02*
Y54921D01*
X183465Y53347D02*
Y54921D01*
X175394Y27559D02*
Y29134D01*
X172638Y27559D02*
Y29134D01*
X192913Y12992D02*
X194488D01*
X192913Y10236D02*
X194488D01*
X203740Y10236D02*
X205315D01*
X203740Y12992D02*
X205315D01*
X175394Y139764D02*
Y141339D01*
X172638Y139764D02*
Y141339D01*
X192913Y125197D02*
X194488D01*
X192913Y122441D02*
X194488D01*
X214567Y122441D02*
X216142D01*
X214567Y125197D02*
X216142D01*
X203740Y122441D02*
X205315D01*
X203740Y125197D02*
X205315D01*
X18622Y17992D02*
Y110492D01*
X38622Y17992D02*
Y110492D01*
Y117992D01*
X18622D02*
X38622D01*
X18622Y110492D02*
Y117992D01*
Y17992D02*
X38622D01*
X11024Y193701D02*
X14961D01*
X11023Y193700D02*
Y223621D01*
X11024Y223622D02*
X34252D01*
X30315Y193701D02*
X34252D01*
Y223622D01*
D13*
X47244Y136811D02*
Y152559D01*
X171865Y165323D02*
Y169322D01*
X173864D01*
X174530Y168656D01*
Y167323D01*
X173864Y166656D01*
X171865D01*
X173197D02*
X174530Y165323D01*
X175863Y168656D02*
X176530Y169322D01*
X177863D01*
X178529Y168656D01*
Y167989D01*
X177863Y167323D01*
X177196D01*
X177863D01*
X178529Y166656D01*
Y165990D01*
X177863Y165323D01*
X176530D01*
X175863Y165990D01*
X6725Y17532D02*
Y19532D01*
X6059Y20198D01*
X5393Y19532D01*
Y18199D01*
X4726Y17532D01*
X4060Y18199D01*
Y20198D01*
X6725Y22197D02*
Y23530D01*
X6059Y24197D01*
X4726D01*
X4060Y23530D01*
Y22197D01*
X4726Y21531D01*
X6059D01*
X6725Y22197D01*
Y25530D02*
Y26863D01*
Y26196D01*
X4060D01*
Y25530D01*
X6725Y28862D02*
Y30195D01*
Y29528D01*
X2727D01*
Y28862D01*
X6725Y32194D02*
Y34194D01*
X6059Y34860D01*
X5393Y34194D01*
Y32861D01*
X4726Y32194D01*
X4060Y32861D01*
Y34860D01*
X6725Y38192D02*
Y36859D01*
X6059Y36193D01*
X4726D01*
X4060Y36859D01*
Y38192D01*
X4726Y38859D01*
X5393D01*
Y36193D01*
X6725Y40192D02*
X4060D01*
Y42191D01*
X4726Y42857D01*
X6725D01*
Y44190D02*
Y46190D01*
X6059Y46856D01*
X5393Y46190D01*
Y44857D01*
X4726Y44190D01*
X4060Y44857D01*
Y46856D01*
X6725Y48189D02*
Y49522D01*
Y48856D01*
X4060D01*
Y48189D01*
X6725Y51521D02*
X4060D01*
Y53521D01*
X4726Y54187D01*
X6725D01*
X8058Y56853D02*
Y57519D01*
X7392Y58186D01*
X4060D01*
Y56186D01*
X4726Y55520D01*
X6059D01*
X6725Y56186D01*
Y58186D01*
Y59519D02*
X4060D01*
Y60185D01*
X4726Y60852D01*
X6725D01*
X4726D01*
X4060Y61518D01*
X4726Y62185D01*
X6725D01*
Y64184D02*
Y65517D01*
X6059Y66183D01*
X4726D01*
X4060Y65517D01*
Y64184D01*
X4726Y63517D01*
X6059D01*
X6725Y64184D01*
Y67516D02*
X4060D01*
Y69516D01*
X4726Y70182D01*
X6725D01*
Y71515D02*
Y72848D01*
Y72181D01*
X4060D01*
Y71515D01*
X3393Y75514D02*
X4060D01*
Y74847D01*
Y76180D01*
Y75514D01*
X6059D01*
X6725Y76180D01*
Y78846D02*
Y80179D01*
X6059Y80845D01*
X4726D01*
X4060Y80179D01*
Y78846D01*
X4726Y78179D01*
X6059D01*
X6725Y78846D01*
X4060Y82178D02*
X6725D01*
X5393D01*
X4726Y82845D01*
X4060Y83511D01*
Y84177D01*
X6725Y86177D02*
Y87510D01*
Y86843D01*
X4060D01*
Y86177D01*
X6725Y89509D02*
X4060D01*
Y91508D01*
X4726Y92175D01*
X6725D01*
X8058Y94841D02*
Y95507D01*
X7392Y96174D01*
X4060D01*
Y94174D01*
X4726Y93508D01*
X6059D01*
X6725Y94174D01*
Y96174D01*
Y97506D02*
X6059D01*
Y98173D01*
X6725D01*
Y97506D01*
Y100839D02*
Y102838D01*
X6059Y103505D01*
X5393Y102838D01*
Y101505D01*
X4726Y100839D01*
X4060Y101505D01*
Y103505D01*
X6725Y105504D02*
Y106837D01*
X6059Y107503D01*
X4726D01*
X4060Y106837D01*
Y105504D01*
X4726Y104838D01*
X6059D01*
X6725Y105504D01*
Y108836D02*
Y110169D01*
Y109503D01*
X4060D01*
Y108836D01*
X6725Y112168D02*
Y113501D01*
Y112835D01*
X2727D01*
Y112168D01*
X6725Y115501D02*
Y117500D01*
X6059Y118166D01*
X5393Y117500D01*
Y116167D01*
X4726Y115501D01*
X4060Y116167D01*
Y118166D01*
X6725Y119499D02*
X6059D01*
Y120166D01*
X6725D01*
Y119499D01*
X4060Y122832D02*
X6059D01*
X6725Y123498D01*
X6059Y124165D01*
X6725Y124831D01*
X6059Y125497D01*
X4060D01*
X6725Y126830D02*
Y128163D01*
Y127497D01*
X4060D01*
Y126830D01*
X6725Y130163D02*
Y132162D01*
X6059Y132828D01*
X5393Y132162D01*
Y130829D01*
X4726Y130163D01*
X4060Y130829D01*
Y132828D01*
Y136827D02*
Y134828D01*
X4726Y134161D01*
X6059D01*
X6725Y134828D01*
Y136827D01*
Y138160D02*
X6059D01*
Y138827D01*
X6725D01*
Y138160D01*
Y143492D02*
Y142159D01*
X6059Y141492D01*
X4726D01*
X4060Y142159D01*
Y143492D01*
X4726Y144158D01*
X5393D01*
Y141492D01*
X2727Y148157D02*
X6725D01*
Y146158D01*
X6059Y145491D01*
X4726D01*
X4060Y146158D01*
Y148157D01*
Y149490D02*
X6059D01*
X6725Y150156D01*
Y152155D01*
X4060D01*
X49017Y140277D02*
X48351Y139610D01*
Y138277D01*
X49017Y137611D01*
X49684D01*
X50350Y138277D01*
Y139610D01*
X51017Y140277D01*
X51683D01*
X52350Y139610D01*
Y138277D01*
X51683Y137611D01*
X48351Y141610D02*
X52350D01*
X50350D01*
Y144275D01*
X48351D01*
X52350D01*
X48351Y145608D02*
X52350D01*
Y147608D01*
X51683Y148274D01*
X49017D01*
X48351Y147608D01*
Y145608D01*
X52350Y149607D02*
X48351D01*
X52350Y152273D01*
X48351D01*
X18823Y137611D02*
X21489D01*
X22822Y138944D01*
X21489Y140277D01*
X18823D01*
Y143609D02*
Y142276D01*
X19490Y141610D01*
X22156D01*
X22822Y142276D01*
Y143609D01*
X22156Y144275D01*
X19490D01*
X18823Y143609D01*
Y145608D02*
X22156D01*
X22822Y146275D01*
Y147608D01*
X22156Y148274D01*
X18823D01*
Y149607D02*
Y152273D01*
Y150940D01*
X22822D01*
X38508Y137611D02*
X41174D01*
X42507Y138944D01*
X41174Y140277D01*
X38508D01*
Y141610D02*
Y142943D01*
Y142276D01*
X42507D01*
Y141610D01*
Y142943D01*
Y144942D02*
X38508D01*
X42507Y147608D01*
X38508D01*
X29332Y140277D02*
X28666Y139610D01*
Y138277D01*
X29332Y137611D01*
X31998D01*
X32665Y138277D01*
Y139610D01*
X31998Y140277D01*
X30665D01*
Y138944D01*
X32665Y141610D02*
X28666D01*
X32665Y144275D01*
X28666D01*
Y145608D02*
X32665D01*
Y147608D01*
X31998Y148274D01*
X29332D01*
X28666Y147608D01*
Y145608D01*
X10478Y127194D02*
X9812Y126527D01*
Y125194D01*
X10478Y124528D01*
X11145D01*
X11811Y125194D01*
Y126527D01*
X12477Y127194D01*
X13144D01*
X13810Y126527D01*
Y125194D01*
X13144Y124528D01*
X9812Y128527D02*
Y131193D01*
X10478D01*
X13144Y128527D01*
X13810D01*
X9812Y132525D02*
X12477D01*
X13810Y133858D01*
X12477Y135191D01*
X9812D01*
X10478Y136524D02*
X9812Y137190D01*
Y138523D01*
X10478Y139190D01*
X11145D01*
X11811Y138523D01*
X12477Y139190D01*
X13144D01*
X13810Y138523D01*
Y137190D01*
X13144Y136524D01*
X12477D01*
X11811Y137190D01*
X11145Y136524D01*
X10478D01*
X11811Y137190D02*
Y138523D01*
X13810Y140523D02*
X11145D01*
X9812Y141856D01*
X11145Y143189D01*
X13810D01*
X11811D01*
Y140523D01*
X85344Y87333D02*
X84678Y87999D01*
X83345D01*
X82679Y87333D01*
Y86666D01*
X83345Y86000D01*
X84678D01*
X85344Y85334D01*
Y84667D01*
X84678Y84001D01*
X83345D01*
X82679Y84667D01*
X89343Y87333D02*
X88677Y87999D01*
X87344D01*
X86677Y87333D01*
Y84667D01*
X87344Y84001D01*
X88677D01*
X89343Y84667D01*
X90676Y87999D02*
Y84001D01*
X92676D01*
X93342Y84667D01*
Y87333D01*
X92676Y87999D01*
X90676D01*
X94675Y86000D02*
X97341D01*
X98674Y87333D02*
X99340Y87999D01*
X100673D01*
X101339Y87333D01*
Y86666D01*
X100673Y86000D01*
X100006D01*
X100673D01*
X101339Y85334D01*
Y84667D01*
X100673Y84001D01*
X99340D01*
X98674Y84667D01*
X102672Y87333D02*
X103339Y87999D01*
X104672D01*
X105338Y87333D01*
Y84667D01*
X104672Y84001D01*
X103339D01*
X102672Y84667D01*
Y87333D01*
X110670Y87999D02*
X113336D01*
X112003D01*
Y84001D01*
X117334Y87999D02*
X114668D01*
Y84001D01*
X117334D01*
X114668Y86000D02*
X116001D01*
X118667Y84001D02*
Y87999D01*
X120000Y86666D01*
X121333Y87999D01*
Y84001D01*
X122666D02*
Y87999D01*
X124665D01*
X125332Y87333D01*
Y86000D01*
X124665Y85334D01*
X122666D01*
X126664Y84001D02*
X129330Y86666D01*
X130663Y87999D02*
Y84001D01*
Y86000D01*
X133329D01*
Y87999D01*
Y84001D01*
X134662Y87999D02*
Y84667D01*
X135328Y84001D01*
X136661D01*
X137328Y84667D01*
Y87999D01*
X138661Y84001D02*
Y87999D01*
X139994Y86666D01*
X141326Y87999D01*
Y84001D01*
X142659D02*
X145325Y86666D01*
X149324Y87333D02*
X148657Y87999D01*
X147325D01*
X146658Y87333D01*
Y84667D01*
X147325Y84001D01*
X148657D01*
X149324Y84667D01*
X152656Y87999D02*
X151323D01*
X150657Y87333D01*
Y84667D01*
X151323Y84001D01*
X152656D01*
X153323Y84667D01*
Y87333D01*
X152656Y87999D01*
X157321Y84001D02*
X154656D01*
X157321Y86666D01*
Y87333D01*
X156655Y87999D01*
X155322D01*
X154656Y87333D01*
X212121Y3906D02*
Y7905D01*
X214120D01*
X214786Y7238D01*
Y5906D01*
X214120Y5239D01*
X212121D01*
X213453D02*
X214786Y3906D01*
X216119Y4573D02*
X216786Y3906D01*
X218119D01*
X218785Y4573D01*
Y7238D01*
X218119Y7905D01*
X216786D01*
X216119Y7238D01*
Y6572D01*
X216786Y5906D01*
X218785D01*
X3001Y195171D02*
X6999D01*
Y197170D01*
X6333Y197837D01*
X5666D01*
X5000Y197170D01*
Y195171D01*
Y197170D01*
X4334Y197837D01*
X3667D01*
X3001Y197170D01*
Y195171D01*
X6999Y199170D02*
X4334D01*
X3001Y200503D01*
X4334Y201835D01*
X6999D01*
X5000D01*
Y199170D01*
X3001Y203168D02*
Y205834D01*
Y204501D01*
X6999D01*
X3001Y207167D02*
Y209833D01*
Y208500D01*
X6999D01*
X3001Y213832D02*
Y211166D01*
X6999D01*
Y213832D01*
X5000Y211166D02*
Y212499D01*
X6999Y215164D02*
X3001D01*
Y217164D01*
X3667Y217830D01*
X5000D01*
X5666Y217164D01*
Y215164D01*
Y216497D02*
X6999Y217830D01*
X3001Y219163D02*
X3667D01*
X5000Y220496D01*
X3667Y221829D01*
X3001D01*
X5000Y220496D02*
X6999D01*
X103009Y9499D02*
Y5501D01*
X105009D01*
X105675Y6167D01*
Y8833D01*
X105009Y9499D01*
X103009D01*
X107008Y5501D02*
Y9499D01*
X109007D01*
X109674Y8833D01*
Y7500D01*
X109007Y6833D01*
X107008D01*
X113673Y8833D02*
X113006Y9499D01*
X111673D01*
X111007Y8833D01*
Y8167D01*
X111673Y7500D01*
X113006D01*
X113673Y6833D01*
Y6167D01*
X113006Y5501D01*
X111673D01*
X111007Y6167D01*
X115006Y8833D02*
X115672Y9499D01*
X117005D01*
X117671Y8833D01*
Y8167D01*
X117005Y7500D01*
X116338D01*
X117005D01*
X117671Y6833D01*
Y6167D01*
X117005Y5501D01*
X115672D01*
X115006Y6167D01*
X119004Y5501D02*
X120337D01*
X119671D01*
Y9499D01*
X119004Y8833D01*
X122336D02*
X123003Y9499D01*
X124336D01*
X125002Y8833D01*
Y6167D01*
X124336Y5501D01*
X123003D01*
X122336Y6167D01*
Y8833D01*
X130334Y5501D02*
Y9499D01*
X132333D01*
X133000Y8833D01*
Y7500D01*
X132333Y6833D01*
X130334D01*
X134333Y5501D02*
Y9499D01*
X136332D01*
X136998Y8833D01*
Y7500D01*
X136332Y6833D01*
X134333D01*
X135666D02*
X136998Y5501D01*
X140997Y9499D02*
X138331D01*
Y5501D01*
X140997D01*
X138331Y7500D02*
X139664D01*
X144996Y8833D02*
X144329Y9499D01*
X142997D01*
X142330Y8833D01*
Y8167D01*
X142997Y7500D01*
X144329D01*
X144996Y6833D01*
Y6167D01*
X144329Y5501D01*
X142997D01*
X142330Y6167D01*
X148995Y8833D02*
X148328Y9499D01*
X146995D01*
X146329Y8833D01*
Y8167D01*
X146995Y7500D01*
X148328D01*
X148995Y6833D01*
Y6167D01*
X148328Y5501D01*
X146995D01*
X146329Y6167D01*
X150327Y9499D02*
Y6167D01*
X150994Y5501D01*
X152327D01*
X152993Y6167D01*
Y9499D01*
X154326Y5501D02*
Y9499D01*
X156325D01*
X156992Y8833D01*
Y7500D01*
X156325Y6833D01*
X154326D01*
X155659D02*
X156992Y5501D01*
X160991Y9499D02*
X158325D01*
Y5501D01*
X160991D01*
X158325Y7500D02*
X159658D01*
X43850Y39401D02*
Y35402D01*
X46516D01*
X49848Y39401D02*
X48515D01*
X47849Y38734D01*
Y36069D01*
X48515Y35402D01*
X49848D01*
X50515Y36069D01*
Y38734D01*
X49848Y39401D01*
X51848Y35402D02*
Y39401D01*
X53847D01*
X54513Y38734D01*
Y37402D01*
X53847Y36735D01*
X51848D01*
X53180D02*
X54513Y35402D01*
X55846D02*
Y38068D01*
X57179Y39401D01*
X58512Y38068D01*
Y35402D01*
Y37402D01*
X55846D01*
X15999Y45673D02*
X12001D01*
X13333Y47006D01*
X12001Y48339D01*
X15999D01*
X12667Y52337D02*
X12001Y51671D01*
Y50338D01*
X12667Y49672D01*
X13333D01*
X14000Y50338D01*
Y51671D01*
X14667Y52337D01*
X15333D01*
X15999Y51671D01*
Y50338D01*
X15333Y49672D01*
X15999Y53670D02*
X12001D01*
Y55670D01*
X12667Y56336D01*
X14000D01*
X14667Y55670D01*
Y53670D01*
X14000Y57669D02*
Y60335D01*
X12001Y64334D02*
Y61668D01*
X15999D01*
Y64334D01*
X14000Y61668D02*
Y63001D01*
X12001Y65667D02*
X15999Y68332D01*
X12001D02*
X15999Y65667D01*
Y69665D02*
X12001D01*
Y71665D01*
X12667Y72331D01*
X14000D01*
X14667Y71665D01*
Y69665D01*
X15999Y75663D02*
X12001D01*
X14000Y73664D01*
Y76330D01*
X12667Y77663D02*
X12001Y78329D01*
Y79662D01*
X12667Y80328D01*
X13333D01*
X14000Y79662D01*
Y78996D01*
Y79662D01*
X14667Y80328D01*
X15333D01*
X15999Y79662D01*
Y78329D01*
X15333Y77663D01*
X12667Y81661D02*
X12001Y82328D01*
Y83661D01*
X12667Y84327D01*
X15333D01*
X15999Y83661D01*
Y82328D01*
X15333Y81661D01*
X12667D01*
X43532Y214916D02*
X42866Y215582D01*
X41533D01*
X40867Y214916D01*
Y214249D01*
X41533Y213583D01*
X42866D01*
X43532Y212916D01*
Y212250D01*
X42866Y211583D01*
X41533D01*
X40867Y212250D01*
X47531Y215582D02*
X44865D01*
Y211583D01*
X47531D01*
X44865Y213583D02*
X46198D01*
X48864Y211583D02*
Y215582D01*
X50863D01*
X51530Y214916D01*
Y213583D01*
X50863Y212916D01*
X48864D01*
X50197D02*
X51530Y211583D01*
X52863Y215582D02*
Y212916D01*
X54196Y211583D01*
X55528Y212916D01*
Y215582D01*
X58861D02*
X57528D01*
X56861Y214916D01*
Y212250D01*
X57528Y211583D01*
X58861D01*
X59527Y212250D01*
Y214916D01*
X58861Y215582D01*
X170563Y194246D02*
X169896Y194913D01*
X168563D01*
X167897Y194246D01*
Y193580D01*
X168563Y192913D01*
X169896D01*
X170563Y192247D01*
Y191580D01*
X169896Y190914D01*
X168563D01*
X167897Y191580D01*
X174561Y194246D02*
X173895Y194913D01*
X172562D01*
X171896Y194246D01*
Y193580D01*
X172562Y192913D01*
X173895D01*
X174561Y192247D01*
Y191580D01*
X173895Y190914D01*
X172562D01*
X171896Y191580D01*
X178560Y190914D02*
X175894D01*
X178560Y193580D01*
Y194246D01*
X177893Y194913D01*
X176561D01*
X175894Y194246D01*
X170563Y207042D02*
X169896Y207708D01*
X168563D01*
X167897Y207042D01*
Y206375D01*
X168563Y205709D01*
X169896D01*
X170563Y205042D01*
Y204376D01*
X169896Y203709D01*
X168563D01*
X167897Y204376D01*
X174561Y207042D02*
X173895Y207708D01*
X172562D01*
X171896Y207042D01*
Y206375D01*
X172562Y205709D01*
X173895D01*
X174561Y205042D01*
Y204376D01*
X173895Y203709D01*
X172562D01*
X171896Y204376D01*
X175894Y207042D02*
X176561Y207708D01*
X177893D01*
X178560Y207042D01*
Y206375D01*
X177893Y205709D01*
X177227D01*
X177893D01*
X178560Y205042D01*
Y204376D01*
X177893Y203709D01*
X176561D01*
X175894Y204376D01*
X170563Y219837D02*
X169896Y220503D01*
X168563D01*
X167897Y219837D01*
Y219170D01*
X168563Y218504D01*
X169896D01*
X170563Y217838D01*
Y217171D01*
X169896Y216505D01*
X168563D01*
X167897Y217171D01*
X174561Y219837D02*
X173895Y220503D01*
X172562D01*
X171896Y219837D01*
Y219170D01*
X172562Y218504D01*
X173895D01*
X174561Y217838D01*
Y217171D01*
X173895Y216505D01*
X172562D01*
X171896Y217171D01*
X177893Y216505D02*
Y220503D01*
X175894Y218504D01*
X178560D01*
X172880Y182102D02*
X172213Y182768D01*
X170880D01*
X170214Y182102D01*
Y181436D01*
X170880Y180769D01*
X172213D01*
X172880Y180103D01*
Y179436D01*
X172213Y178770D01*
X170880D01*
X170214Y179436D01*
X176878Y182102D02*
X176212Y182768D01*
X174879D01*
X174213Y182102D01*
Y181436D01*
X174879Y180769D01*
X176212D01*
X176878Y180103D01*
Y179436D01*
X176212Y178770D01*
X174879D01*
X174213Y179436D01*
X178211Y180103D02*
Y183435D01*
Y179436D02*
Y178770D01*
X19300Y6799D02*
Y2800D01*
Y4133D01*
X21966Y6799D01*
X19966Y4799D01*
X21966Y2800D01*
X25964Y6799D02*
X23299D01*
Y2800D01*
X25964D01*
X23299Y4799D02*
X24632D01*
X27297Y6799D02*
Y4133D01*
X28630Y2800D01*
X29963Y4133D01*
Y6799D01*
X31296D02*
X32629D01*
X31963D01*
Y2800D01*
X31296D01*
X32629D01*
X34628D02*
Y6799D01*
X37294Y2800D01*
Y6799D01*
X45292Y6132D02*
X44625Y6799D01*
X43292D01*
X42626Y6132D01*
Y3466D01*
X43292Y2800D01*
X44625D01*
X45292Y3466D01*
Y4799D01*
X43959D01*
X46624Y6799D02*
Y3466D01*
X47291Y2800D01*
X48624D01*
X49290Y3466D01*
Y6799D01*
X53289D02*
X50623D01*
Y2800D01*
X53289D01*
X50623Y4799D02*
X51956D01*
X54622Y2800D02*
Y6799D01*
X57288Y2800D01*
Y6799D01*
X58621D02*
X61286D01*
X59953D01*
Y2800D01*
X62619Y6799D02*
Y2800D01*
Y4799D01*
X65285D01*
Y6799D01*
Y2800D01*
X66618D02*
Y6799D01*
X69284Y2800D01*
Y6799D01*
X73283D02*
X70617D01*
Y2800D01*
X73283D01*
X70617Y4799D02*
X71950D01*
X74616Y2800D02*
Y6799D01*
X76615D01*
X77281Y6132D01*
Y4799D01*
X76615Y4133D01*
X74616D01*
X75948D02*
X77281Y2800D01*
X19300Y13799D02*
Y9800D01*
X21299D01*
X21966Y10467D01*
Y13132D01*
X21299Y13799D01*
X19300D01*
X23299Y9800D02*
Y13799D01*
X25298D01*
X25964Y13132D01*
Y11799D01*
X25298Y11133D01*
X23299D01*
X24632D02*
X25964Y9800D01*
X27297D02*
Y10467D01*
X27964D01*
Y9800D01*
X27297D01*
X34628Y13799D02*
Y9800D01*
Y11799D01*
X37294D01*
Y13799D01*
Y9800D01*
X38627Y13799D02*
Y10467D01*
X39294Y9800D01*
X40626D01*
X41293Y10467D01*
Y13799D01*
X42626Y9800D02*
Y12466D01*
X43959Y13799D01*
X45292Y12466D01*
Y9800D01*
Y11799D01*
X42626D01*
X46624Y9800D02*
Y13799D01*
X49290Y9800D01*
Y13799D01*
X53289Y13132D02*
X52623Y13799D01*
X51290D01*
X50623Y13132D01*
Y10467D01*
X51290Y9800D01*
X52623D01*
X53289Y10467D01*
Y11799D01*
X51956D01*
X47834Y113501D02*
Y117499D01*
X49834D01*
X50500Y116833D01*
Y115500D01*
X49834Y114833D01*
X47834D01*
X49167D02*
X50500Y113501D01*
X51833D02*
X53166D01*
X52499D01*
Y117499D01*
X51833Y116833D01*
X60466Y49632D02*
X59799Y50299D01*
X58466D01*
X57800Y49632D01*
Y46966D01*
X58466Y46300D01*
X59799D01*
X60466Y46966D01*
X64464Y49632D02*
X63798Y50299D01*
X62465D01*
X61799Y49632D01*
Y48966D01*
X62465Y48299D01*
X63798D01*
X64464Y47633D01*
Y46966D01*
X63798Y46300D01*
X62465D01*
X61799Y46966D01*
X57800Y56800D02*
Y60799D01*
X59133Y59466D01*
X60466Y60799D01*
Y56800D01*
X63798Y60799D02*
X62465D01*
X61799Y60132D01*
Y57466D01*
X62465Y56800D01*
X63798D01*
X64464Y57466D01*
Y60132D01*
X63798Y60799D01*
X68463Y60132D02*
X67797Y60799D01*
X66464D01*
X65797Y60132D01*
Y59466D01*
X66464Y58799D01*
X67797D01*
X68463Y58133D01*
Y57466D01*
X67797Y56800D01*
X66464D01*
X65797Y57466D01*
X69796Y60799D02*
X71129D01*
X70463D01*
Y56800D01*
X69796D01*
X71129D01*
X57800Y66800D02*
Y70799D01*
X59133Y69466D01*
X60466Y70799D01*
Y66800D01*
X61799Y70799D02*
X63132D01*
X62465D01*
Y66800D01*
X61799D01*
X63132D01*
X67797Y70132D02*
X67130Y70799D01*
X65797D01*
X65131Y70132D01*
Y69466D01*
X65797Y68799D01*
X67130D01*
X67797Y68133D01*
Y67466D01*
X67130Y66800D01*
X65797D01*
X65131Y67466D01*
X71129Y70799D02*
X69796D01*
X69130Y70132D01*
Y67466D01*
X69796Y66800D01*
X71129D01*
X71795Y67466D01*
Y70132D01*
X71129Y70799D01*
X60466Y79632D02*
X59799Y80299D01*
X58466D01*
X57800Y79632D01*
Y78966D01*
X58466Y78299D01*
X59799D01*
X60466Y77633D01*
Y76966D01*
X59799Y76300D01*
X58466D01*
X57800Y76966D01*
X64464Y79632D02*
X63798Y80299D01*
X62465D01*
X61799Y79632D01*
Y76966D01*
X62465Y76300D01*
X63798D01*
X64464Y76966D01*
X65797Y80299D02*
Y76300D01*
X68463D01*
X69796Y80299D02*
Y76300D01*
Y77633D01*
X72462Y80299D01*
X70463Y78299D01*
X72462Y76300D01*
X57800Y99632D02*
X58466Y100299D01*
X59799D01*
X60466Y99632D01*
Y98966D01*
X59799Y98299D01*
X59133D01*
X59799D01*
X60466Y97633D01*
Y96966D01*
X59799Y96300D01*
X58466D01*
X57800Y96966D01*
X61799Y100299D02*
Y97633D01*
X63132Y96300D01*
X64464Y97633D01*
Y100299D01*
X65797Y99632D02*
X66464Y100299D01*
X67797D01*
X68463Y99632D01*
Y98966D01*
X67797Y98299D01*
X67130D01*
X67797D01*
X68463Y97633D01*
Y96966D01*
X67797Y96300D01*
X66464D01*
X65797Y96966D01*
X60466Y89632D02*
X59799Y90299D01*
X58466D01*
X57800Y89632D01*
Y86966D01*
X58466Y86300D01*
X59799D01*
X60466Y86966D01*
Y88299D01*
X59133D01*
X61799Y86300D02*
Y90299D01*
X64464Y86300D01*
Y90299D01*
X65797D02*
Y86300D01*
X67797D01*
X68463Y86966D01*
Y89632D01*
X67797Y90299D01*
X65797D01*
X62966Y207632D02*
X62299Y208299D01*
X60966D01*
X60300Y207632D01*
Y206966D01*
X60966Y206299D01*
X62299D01*
X62966Y205633D01*
Y204966D01*
X62299Y204300D01*
X60966D01*
X60300Y204966D01*
X50466Y208299D02*
X47800D01*
Y206299D01*
X49133Y206966D01*
X49799D01*
X50466Y206299D01*
Y204966D01*
X49799Y204300D01*
X48466D01*
X47800Y204966D01*
X51799Y208299D02*
Y205633D01*
X53132Y204300D01*
X54465Y205633D01*
Y208299D01*
X42466Y207632D02*
X41799Y208299D01*
X40466D01*
X39800Y207632D01*
Y204966D01*
X40466Y204300D01*
X41799D01*
X42466Y204966D01*
Y206299D01*
X41133D01*
X213870Y166369D02*
Y162371D01*
X216535D01*
X217868D02*
X219201D01*
X218535D01*
Y166369D01*
X217868Y165703D01*
X214187Y109283D02*
Y105284D01*
X216853D01*
X218186Y108616D02*
X218853Y109283D01*
X220185D01*
X220852Y108616D01*
Y107950D01*
X220185Y107283D01*
X219519D01*
X220185D01*
X220852Y106617D01*
Y105951D01*
X220185Y105284D01*
X218853D01*
X218186Y105951D01*
X167502Y70501D02*
Y74499D01*
X169501D01*
X170167Y73833D01*
Y72500D01*
X169501Y71834D01*
X167502D01*
X168834D02*
X170167Y70501D01*
X171500D02*
X172833D01*
X172167D01*
Y74499D01*
X171500Y73833D01*
X177498Y70501D02*
X174833D01*
X177498Y73166D01*
Y73833D01*
X176832Y74499D01*
X175499D01*
X174833Y73833D01*
X213506Y59024D02*
Y63023D01*
X215505D01*
X216171Y62357D01*
Y61024D01*
X215505Y60357D01*
X213506D01*
X214839D02*
X216171Y59024D01*
X217504D02*
X218837D01*
X218171D01*
Y63023D01*
X217504Y62357D01*
X222836Y59024D02*
Y63023D01*
X220836Y61024D01*
X223502D01*
X200710Y59024D02*
Y63023D01*
X202710D01*
X203376Y62357D01*
Y61024D01*
X202710Y60357D01*
X200710D01*
X202043D02*
X203376Y59024D01*
X204709D02*
X206042D01*
X205375D01*
Y63023D01*
X204709Y62357D01*
X210707Y63023D02*
X209374Y62357D01*
X208041Y61024D01*
Y59691D01*
X208708Y59024D01*
X210041D01*
X210707Y59691D01*
Y60357D01*
X210041Y61024D01*
X208041D01*
X219109Y54165D02*
Y50166D01*
X221775D01*
X225773D02*
X223107D01*
X225773Y52832D01*
Y53498D01*
X225107Y54165D01*
X223774D01*
X223107Y53498D01*
X179452Y35782D02*
X178785Y36448D01*
X177452D01*
X176786Y35782D01*
Y33116D01*
X177452Y32449D01*
X178785D01*
X179452Y33116D01*
X180785Y35782D02*
X181451Y36448D01*
X182784D01*
X183450Y35782D01*
Y35115D01*
X182784Y34449D01*
X182117D01*
X182784D01*
X183450Y33782D01*
Y33116D01*
X182784Y32449D01*
X181451D01*
X180785Y33116D01*
X182691Y98456D02*
Y95124D01*
X183358Y94457D01*
X184691D01*
X185357Y95124D01*
Y98456D01*
X186690Y97790D02*
X187356Y98456D01*
X188689D01*
X189356Y97790D01*
Y97123D01*
X188689Y96457D01*
X188023D01*
X188689D01*
X189356Y95790D01*
Y95124D01*
X188689Y94457D01*
X187356D01*
X186690Y95124D01*
X217838Y95821D02*
X217171Y96487D01*
X215838D01*
X215172Y95821D01*
Y93155D01*
X215838Y92489D01*
X217171D01*
X217838Y93155D01*
X221836Y96487D02*
X220503Y95821D01*
X219170Y94488D01*
Y93155D01*
X219837Y92489D01*
X221170D01*
X221836Y93155D01*
Y93822D01*
X221170Y94488D01*
X219170D01*
X180436Y89916D02*
X179770Y90582D01*
X178437D01*
X177770Y89916D01*
Y87250D01*
X178437Y86583D01*
X179770D01*
X180436Y87250D01*
X184435Y90582D02*
X181769D01*
Y88583D01*
X183102Y89249D01*
X183768D01*
X184435Y88583D01*
Y87250D01*
X183768Y86583D01*
X182435D01*
X181769Y87250D01*
X187915Y59024D02*
Y63023D01*
X189914D01*
X190581Y62357D01*
Y61024D01*
X189914Y60357D01*
X187915D01*
X189248D02*
X190581Y59024D01*
X191914D02*
X193247D01*
X192580D01*
Y63023D01*
X191914Y62357D01*
X197912Y63023D02*
X195246D01*
Y61024D01*
X196579Y61690D01*
X197245D01*
X197912Y61024D01*
Y59691D01*
X197245Y59024D01*
X195912D01*
X195246Y59691D01*
X169214Y109221D02*
Y113220D01*
X171214D01*
X171880Y112553D01*
Y111221D01*
X171214Y110554D01*
X169214D01*
X170547D02*
X171880Y109221D01*
X173213D02*
X174546D01*
X173879D01*
Y113220D01*
X173213Y112553D01*
X176545D02*
X177212Y113220D01*
X178544D01*
X179211Y112553D01*
Y111887D01*
X178544Y111221D01*
X177878D01*
X178544D01*
X179211Y110554D01*
Y109888D01*
X178544Y109221D01*
X177212D01*
X176545Y109888D01*
X171865Y52135D02*
Y56133D01*
X173864D01*
X174530Y55467D01*
Y54134D01*
X173864Y53467D01*
X171865D01*
X173197D02*
X174530Y52135D01*
X175863Y55467D02*
X176530Y56133D01*
X177863D01*
X178529Y55467D01*
Y54800D01*
X177863Y54134D01*
X178529Y53467D01*
Y52801D01*
X177863Y52135D01*
X176530D01*
X175863Y52801D01*
Y53467D01*
X176530Y54134D01*
X175863Y54800D01*
Y55467D01*
X176530Y54134D02*
X177863D01*
X169668Y16001D02*
Y19999D01*
X171667D01*
X172334Y19333D01*
Y18000D01*
X171667Y17334D01*
X169668D01*
X171001D02*
X172334Y16001D01*
X173667Y19999D02*
X176332D01*
Y19333D01*
X173667Y16667D01*
Y16001D01*
X186502Y4001D02*
Y7999D01*
X188501D01*
X189167Y7333D01*
Y6000D01*
X188501Y5334D01*
X186502D01*
X187835D02*
X189167Y4001D01*
X190500D02*
X191833D01*
X191167D01*
Y7999D01*
X190500Y7333D01*
X193833D02*
X194499Y7999D01*
X195832D01*
X196498Y7333D01*
Y4667D01*
X195832Y4001D01*
X194499D01*
X193833Y4667D01*
Y7333D01*
X200393Y3906D02*
Y7905D01*
X202392D01*
X203058Y7238D01*
Y5906D01*
X202392Y5239D01*
X200393D01*
X201725D02*
X203058Y3906D01*
X204391D02*
X205724D01*
X205058D01*
Y7905D01*
X204391Y7238D01*
X207723Y3906D02*
X209056D01*
X208390D01*
Y7905D01*
X207723Y7238D01*
X217838Y40703D02*
X217171Y41369D01*
X215838D01*
X215172Y40703D01*
Y38037D01*
X215838Y37371D01*
X217171D01*
X217838Y38037D01*
X221170Y37371D02*
Y41369D01*
X219170Y39370D01*
X221836D01*
X183676Y42354D02*
Y39021D01*
X184342Y38355D01*
X185675D01*
X186341Y39021D01*
Y42354D01*
X190340Y38355D02*
X187674D01*
X190340Y41021D01*
Y41687D01*
X189674Y42354D01*
X188341D01*
X187674Y41687D01*
X180118Y146018D02*
X179452Y146684D01*
X178119D01*
X177452Y146018D01*
Y143352D01*
X178119Y142686D01*
X179452D01*
X180118Y143352D01*
X181451Y142686D02*
X182784D01*
X182117D01*
Y146684D01*
X181451Y146018D01*
X169668Y128001D02*
Y131999D01*
X171667D01*
X172334Y131333D01*
Y130000D01*
X171667Y129333D01*
X169668D01*
X171001D02*
X172334Y128001D01*
X176332D02*
X173667D01*
X176332Y130666D01*
Y131333D01*
X175666Y131999D01*
X174333D01*
X173667Y131333D01*
X189581Y116111D02*
Y120110D01*
X191580D01*
X192247Y119443D01*
Y118110D01*
X191580Y117444D01*
X189581D01*
X190914D02*
X192247Y116111D01*
X196246Y120110D02*
X193580D01*
Y118110D01*
X194913Y118777D01*
X195579D01*
X196246Y118110D01*
Y116777D01*
X195579Y116111D01*
X194246D01*
X193580Y116777D01*
X212219Y116111D02*
Y120110D01*
X214218D01*
X214885Y119443D01*
Y118110D01*
X214218Y117444D01*
X212219D01*
X213552D02*
X214885Y116111D01*
X218217D02*
Y120110D01*
X216218Y118110D01*
X218883D01*
X201392Y116111D02*
Y120110D01*
X203392D01*
X204058Y119443D01*
Y118110D01*
X203392Y117444D01*
X201392D01*
X202725D02*
X204058Y116111D01*
X208057Y120110D02*
X206724Y119443D01*
X205391Y118110D01*
Y116777D01*
X206057Y116111D01*
X207390D01*
X208057Y116777D01*
Y117444D01*
X207390Y118110D01*
X205391D01*
X215869Y152908D02*
X215202Y153574D01*
X213870D01*
X213203Y152908D01*
Y150242D01*
X213870Y149575D01*
X215202D01*
X215869Y150242D01*
X219868Y149575D02*
X217202D01*
X219868Y152241D01*
Y152908D01*
X219201Y153574D01*
X217868D01*
X217202Y152908D01*
X184342Y153574D02*
Y150242D01*
X185009Y149575D01*
X186341D01*
X187008Y150242D01*
Y153574D01*
X188341Y149575D02*
X189674D01*
X189007D01*
Y153574D01*
X188341Y152908D01*
X11811Y113189D02*
Y111523D01*
Y112356D01*
X16809D01*
X15976Y113189D01*
X11811Y25591D02*
Y23924D01*
Y24757D01*
X16809D01*
X15976Y25591D01*
X12644Y21425D02*
X11811Y20592D01*
Y18926D01*
X12644Y18093D01*
X15976D01*
X16809Y18926D01*
Y20592D01*
X15976Y21425D01*
X15143D01*
X14310Y20592D01*
Y18093D01*
D14*
X15354Y134921D02*
X55354D01*
Y124921D02*
Y134921D01*
X15354Y124921D02*
X55354D01*
X15354D02*
Y134921D01*
X25354D01*
Y124921D02*
Y134921D01*
X90000Y106378D02*
X150000D01*
Y96378D02*
Y106378D01*
X90000Y96378D02*
X150000D01*
X90000D02*
Y106378D01*
X100000D01*
Y96378D02*
Y106378D01*
X45197Y93740D02*
X55197D01*
Y103740D01*
X45197D02*
X55197D01*
X45197Y43740D02*
Y103740D01*
Y43740D02*
X55197D01*
Y103740D01*
X90315Y18622D02*
Y28622D01*
X80315D02*
X90315D01*
X80315Y18622D02*
Y28622D01*
Y18622D02*
X150315D01*
Y28622D01*
X80315D02*
X150315D01*
X210512Y175709D02*
Y185709D01*
Y175709D02*
X220512D01*
Y185709D01*
X180512D02*
X220512D01*
X180512Y175709D02*
Y185709D01*
Y175709D02*
X220512D01*
X193870Y24028D02*
Y35028D01*
X184870Y24028D02*
Y35028D01*
X210669Y213504D02*
Y223504D01*
Y213504D02*
X220669D01*
Y223504D01*
X180669D02*
X220669D01*
X180669Y213504D02*
Y223504D01*
Y213504D02*
X220669D01*
X210669Y200905D02*
Y210906D01*
Y200905D02*
X220669D01*
Y210906D01*
X180669D02*
X220669D01*
X180669Y200905D02*
Y210906D01*
Y200905D02*
X220669D01*
X210512Y188307D02*
Y198307D01*
Y188307D02*
X220512D01*
Y198307D01*
X180512D02*
X220512D01*
X180512Y188307D02*
Y198307D01*
Y188307D02*
X220512D01*
X217249Y79068D02*
Y90068D01*
X208249Y79068D02*
Y90068D01*
X195202Y79068D02*
Y90068D01*
X186202Y79068D02*
Y90068D01*
X215917Y24028D02*
Y35028D01*
X206917Y24028D02*
Y35028D01*
X193870Y136232D02*
Y147232D01*
X184870Y136232D02*
Y147232D01*
X215917Y136232D02*
Y147232D01*
X206917Y136232D02*
Y147232D01*
X78840Y216628D02*
X77174D01*
X78007D01*
Y212463D01*
X77174Y211630D01*
X76341D01*
X75508Y212463D01*
X80506Y216628D02*
Y211630D01*
X83838D01*
X88837Y215795D02*
X88004Y216628D01*
X86338D01*
X85505Y215795D01*
Y212463D01*
X86338Y211630D01*
X88004D01*
X88837Y212463D01*
X93835Y216628D02*
X92169D01*
X93002D01*
Y212463D01*
X92169Y211630D01*
X91336D01*
X90503Y212463D01*
X95501Y216628D02*
Y211630D01*
X98834D01*
X103832Y215795D02*
X102999Y216628D01*
X101333D01*
X100500Y215795D01*
Y212463D01*
X101333Y211630D01*
X102999D01*
X103832Y212463D01*
X108830Y216628D02*
X107164D01*
X107997D01*
Y212463D01*
X107164Y211630D01*
X106331D01*
X105498Y212463D01*
X110496Y216628D02*
Y211630D01*
X113829D01*
X118827Y215795D02*
X117994Y216628D01*
X116328D01*
X115495Y215795D01*
Y212463D01*
X116328Y211630D01*
X117994D01*
X118827Y212463D01*
X123826Y216628D02*
X122159D01*
X122993D01*
Y212463D01*
X122159Y211630D01*
X121326D01*
X120493Y212463D01*
X125492Y216628D02*
Y211630D01*
X128824D01*
X133822Y215795D02*
X132989Y216628D01*
X131323D01*
X130490Y215795D01*
Y212463D01*
X131323Y211630D01*
X132989D01*
X133822Y212463D01*
X0Y0D02*
X228346D01*
X0Y228346D02*
X228346D01*
Y0D02*
Y228346D01*
X0Y0D02*
Y228346D01*
D15*
X24750Y192000D02*
X29500D01*
X27000Y190000D02*
Y194000D01*
D16*
X16500Y192000D02*
X20500D01*
D17*
X197075Y82446D02*
Y86689D01*
X206375Y82446D02*
Y86689D01*
X195744Y27406D02*
Y31649D01*
X205044Y27406D02*
Y31649D01*
X195744Y139611D02*
Y143854D01*
X205044Y139611D02*
Y143854D01*
M02*
