G04*
G04 #@! TF.GenerationSoftware,Altium Limited,Altium Designer,22.4.2 (48)*
G04*
G04 Layer_Physical_Order=2*
G04 Layer_Color=16711680*
%FSLAX25Y25*%
%MOIN*%
G70*
G04*
G04 #@! TF.SameCoordinates,78AC0251-C41B-4C09-997F-A4DA7E128E32*
G04*
G04*
G04 #@! TF.FilePolarity,Positive*
G04*
G01*
G75*
%ADD14C,0.01000*%
%ADD39C,0.03150*%
%ADD40C,0.07087*%
%ADD41C,0.02000*%
%ADD42C,0.04535*%
%ADD43C,0.05906*%
%ADD44R,0.05906X0.05906*%
%ADD45R,0.05906X0.05906*%
%ADD46R,0.04724X0.04724*%
%ADD47C,0.04724*%
%ADD48C,0.05000*%
G36*
X224410Y3937D02*
X179566D01*
X179359Y4437D01*
X179460Y4538D01*
X179838Y5192D01*
X180033Y5922D01*
Y6677D01*
X179838Y7406D01*
X179460Y8060D01*
X178926Y8594D01*
X178272Y8971D01*
X177543Y9167D01*
X176788D01*
X176058Y8971D01*
X175405Y8594D01*
X174871Y8060D01*
X174493Y7406D01*
X174298Y6677D01*
Y5922D01*
X174493Y5192D01*
X174871Y4538D01*
X174972Y4437D01*
X174765Y3937D01*
X15000D01*
X13679Y5258D01*
X13886Y5758D01*
X14188D01*
X14976Y5970D01*
X15683Y6378D01*
X15898Y6593D01*
X16010Y6635D01*
X16471Y7069D01*
X16670Y7230D01*
X16862Y7369D01*
X17043Y7483D01*
X17210Y7571D01*
X17362Y7635D01*
X17499Y7677D01*
X17621Y7700D01*
X17772Y7710D01*
X17825Y7737D01*
X36358D01*
X36358Y7737D01*
X36788Y7822D01*
X37151Y8065D01*
X44793Y15707D01*
X44793Y15707D01*
X45036Y16071D01*
X45122Y16500D01*
X45122Y16500D01*
Y18454D01*
X45148Y18508D01*
X45158Y18659D01*
X45181Y18780D01*
X45224Y18917D01*
X45288Y19070D01*
X45376Y19237D01*
X45489Y19417D01*
X45623Y19603D01*
X45992Y20033D01*
X46214Y20260D01*
X46261Y20377D01*
X46481Y20597D01*
X46889Y21303D01*
X47100Y22092D01*
Y22908D01*
X46889Y23697D01*
X46481Y24403D01*
X45903Y24981D01*
X45197Y25389D01*
X44408Y25600D01*
X43592D01*
X42803Y25389D01*
X42097Y24981D01*
X41519Y24403D01*
X41111Y23697D01*
X40900Y22908D01*
Y22092D01*
X41111Y21303D01*
X41519Y20597D01*
X41735Y20381D01*
X41777Y20270D01*
X42211Y19808D01*
X42372Y19610D01*
X42511Y19417D01*
X42624Y19237D01*
X42712Y19070D01*
X42777Y18917D01*
X42819Y18780D01*
X42842Y18659D01*
X42852Y18508D01*
X42878Y18454D01*
Y16965D01*
X35894Y9980D01*
X17825D01*
X17772Y10006D01*
X17621Y10016D01*
X17499Y10039D01*
X17362Y10082D01*
X17210Y10146D01*
X17043Y10234D01*
X16862Y10347D01*
X16676Y10482D01*
X16246Y10850D01*
X16020Y11072D01*
X15903Y11119D01*
X15683Y11339D01*
X14976Y11747D01*
X14188Y11958D01*
X13371D01*
X12583Y11747D01*
X11876Y11339D01*
X11299Y10762D01*
X10891Y10055D01*
X10679Y9266D01*
Y8965D01*
X10180Y8758D01*
X3937Y15000D01*
Y224410D01*
X40907D01*
X41114Y223909D01*
X41012Y223808D01*
X40635Y223154D01*
X40439Y222425D01*
Y221670D01*
X40635Y220940D01*
X41012Y220286D01*
X41546Y219753D01*
X42200Y219375D01*
X42930Y219180D01*
X43685D01*
X44414Y219375D01*
X45068Y219753D01*
X45602Y220286D01*
X45979Y220940D01*
X46175Y221670D01*
Y222425D01*
X45979Y223154D01*
X45602Y223808D01*
X45500Y223909D01*
X45707Y224410D01*
X143269D01*
X143476Y223909D01*
X143375Y223808D01*
X142997Y223154D01*
X142802Y222425D01*
Y221670D01*
X142997Y220940D01*
X143375Y220286D01*
X143909Y219753D01*
X144562Y219375D01*
X145292Y219180D01*
X146047D01*
X146776Y219375D01*
X147430Y219753D01*
X147964Y220286D01*
X148342Y220940D01*
X148537Y221670D01*
Y222425D01*
X148342Y223154D01*
X147964Y223808D01*
X147863Y223909D01*
X148070Y224410D01*
X224410D01*
Y3937D01*
D02*
G37*
G36*
X45513Y20472D02*
X45112Y20005D01*
X44950Y19780D01*
X44813Y19561D01*
X44700Y19347D01*
X44613Y19140D01*
X44550Y18937D01*
X44513Y18741D01*
X44500Y18551D01*
X43500D01*
X43488Y18741D01*
X43450Y18937D01*
X43387Y19140D01*
X43300Y19347D01*
X43187Y19561D01*
X43050Y19780D01*
X42887Y20005D01*
X42700Y20236D01*
X42250Y20715D01*
X45750D01*
X45513Y20472D01*
D02*
G37*
G36*
X15807Y10371D02*
X16274Y9971D01*
X16499Y9808D01*
X16718Y9671D01*
X16932Y9558D01*
X17140Y9471D01*
X17342Y9408D01*
X17538Y9371D01*
X17729Y9358D01*
Y8358D01*
X17538Y8346D01*
X17342Y8308D01*
X17140Y8246D01*
X16932Y8158D01*
X16718Y8046D01*
X16499Y7908D01*
X16274Y7746D01*
X16044Y7558D01*
X15565Y7108D01*
Y10608D01*
X15807Y10371D01*
D02*
G37*
%LPC*%
G36*
X216215Y222647D02*
X215124D01*
X214070Y222365D01*
X213125Y221819D01*
X212354Y221048D01*
X211808Y220103D01*
X211526Y219049D01*
Y217958D01*
X211808Y216905D01*
X212354Y215960D01*
X213125Y215189D01*
X214070Y214643D01*
X215124Y214361D01*
X216215D01*
X217268Y214643D01*
X218213Y215189D01*
X218985Y215960D01*
X219530Y216905D01*
X219813Y217958D01*
Y219049D01*
X219530Y220103D01*
X218985Y221048D01*
X218213Y221819D01*
X217268Y222365D01*
X216215Y222647D01*
D02*
G37*
G36*
X206215D02*
X205124D01*
X204070Y222365D01*
X203125Y221819D01*
X202354Y221048D01*
X201808Y220103D01*
X201526Y219049D01*
Y217958D01*
X201808Y216905D01*
X202354Y215960D01*
X203125Y215189D01*
X204070Y214643D01*
X205124Y214361D01*
X206215D01*
X207269Y214643D01*
X208213Y215189D01*
X208985Y215960D01*
X209530Y216905D01*
X209813Y217958D01*
Y219049D01*
X209530Y220103D01*
X208985Y221048D01*
X208213Y221819D01*
X207269Y222365D01*
X206215Y222647D01*
D02*
G37*
G36*
X196215D02*
X195124D01*
X194070Y222365D01*
X193125Y221819D01*
X192354Y221048D01*
X191808Y220103D01*
X191526Y219049D01*
Y217958D01*
X191808Y216905D01*
X192354Y215960D01*
X193125Y215189D01*
X194070Y214643D01*
X195124Y214361D01*
X196215D01*
X197268Y214643D01*
X198213Y215189D01*
X198985Y215960D01*
X199530Y216905D01*
X199813Y217958D01*
Y219049D01*
X199530Y220103D01*
X198985Y221048D01*
X198213Y221819D01*
X197268Y222365D01*
X196215Y222647D01*
D02*
G37*
G36*
X216215Y210049D02*
X215124D01*
X214070Y209766D01*
X213125Y209221D01*
X212354Y208450D01*
X211808Y207505D01*
X211526Y206451D01*
Y205360D01*
X211808Y204306D01*
X212354Y203362D01*
X213125Y202590D01*
X214070Y202045D01*
X215124Y201762D01*
X216215D01*
X217268Y202045D01*
X218213Y202590D01*
X218985Y203362D01*
X219530Y204306D01*
X219813Y205360D01*
Y206451D01*
X219530Y207505D01*
X218985Y208450D01*
X218213Y209221D01*
X217268Y209766D01*
X216215Y210049D01*
D02*
G37*
G36*
X206215D02*
X205124D01*
X204070Y209766D01*
X203125Y209221D01*
X202354Y208450D01*
X201808Y207505D01*
X201526Y206451D01*
Y205360D01*
X201808Y204306D01*
X202354Y203362D01*
X203125Y202590D01*
X204070Y202045D01*
X205124Y201762D01*
X206215D01*
X207269Y202045D01*
X208213Y202590D01*
X208985Y203362D01*
X209530Y204306D01*
X209813Y205360D01*
Y206451D01*
X209530Y207505D01*
X208985Y208450D01*
X208213Y209221D01*
X207269Y209766D01*
X206215Y210049D01*
D02*
G37*
G36*
X196215D02*
X195124D01*
X194070Y209766D01*
X193125Y209221D01*
X192354Y208450D01*
X191808Y207505D01*
X191526Y206451D01*
Y205360D01*
X191808Y204306D01*
X192354Y203362D01*
X193125Y202590D01*
X194070Y202045D01*
X195124Y201762D01*
X196215D01*
X197268Y202045D01*
X198213Y202590D01*
X198985Y203362D01*
X199530Y204306D01*
X199813Y205360D01*
Y206451D01*
X199530Y207505D01*
X198985Y208450D01*
X198213Y209221D01*
X197268Y209766D01*
X196215Y210049D01*
D02*
G37*
G36*
X64891Y201387D02*
X57786D01*
Y194282D01*
X64891D01*
Y201387D01*
D02*
G37*
G36*
X51806D02*
X50871D01*
X49967Y201145D01*
X49157Y200678D01*
X48496Y200016D01*
X48028Y199206D01*
X47786Y198302D01*
Y197367D01*
X48028Y196463D01*
X48496Y195653D01*
X49157Y194992D01*
X49967Y194524D01*
X50871Y194282D01*
X51806D01*
X52710Y194524D01*
X53520Y194992D01*
X54181Y195653D01*
X54649Y196463D01*
X54891Y197367D01*
Y198302D01*
X54649Y199206D01*
X54181Y200016D01*
X53520Y200678D01*
X52710Y201145D01*
X51806Y201387D01*
D02*
G37*
G36*
X216057Y197450D02*
X214966D01*
X213913Y197168D01*
X212968Y196623D01*
X212196Y195851D01*
X211651Y194906D01*
X211368Y193853D01*
Y192762D01*
X211651Y191708D01*
X212196Y190763D01*
X212968Y189992D01*
X213913Y189446D01*
X214966Y189164D01*
X216057D01*
X217111Y189446D01*
X218056Y189992D01*
X218827Y190763D01*
X219373Y191708D01*
X219655Y192762D01*
Y193853D01*
X219373Y194906D01*
X218827Y195851D01*
X218056Y196623D01*
X217111Y197168D01*
X216057Y197450D01*
D02*
G37*
G36*
X206057D02*
X204966D01*
X203913Y197168D01*
X202968Y196623D01*
X202196Y195851D01*
X201651Y194906D01*
X201368Y193853D01*
Y192762D01*
X201651Y191708D01*
X202196Y190763D01*
X202968Y189992D01*
X203913Y189446D01*
X204966Y189164D01*
X206057D01*
X207111Y189446D01*
X208056Y189992D01*
X208827Y190763D01*
X209373Y191708D01*
X209655Y192762D01*
Y193853D01*
X209373Y194906D01*
X208827Y195851D01*
X208056Y196623D01*
X207111Y197168D01*
X206057Y197450D01*
D02*
G37*
G36*
X196057D02*
X194966D01*
X193913Y197168D01*
X192968Y196623D01*
X192196Y195851D01*
X191651Y194906D01*
X191368Y193853D01*
Y192762D01*
X191651Y191708D01*
X192196Y190763D01*
X192968Y189992D01*
X193913Y189446D01*
X194966Y189164D01*
X196057D01*
X197111Y189446D01*
X198056Y189992D01*
X198827Y190763D01*
X199373Y191708D01*
X199655Y192762D01*
Y193853D01*
X199373Y194906D01*
X198827Y195851D01*
X198056Y196623D01*
X197111Y197168D01*
X196057Y197450D01*
D02*
G37*
G36*
X216057Y184852D02*
X214966D01*
X213913Y184570D01*
X212968Y184024D01*
X212196Y183253D01*
X211651Y182308D01*
X211368Y181254D01*
Y180163D01*
X211651Y179109D01*
X212196Y178165D01*
X212968Y177393D01*
X213913Y176848D01*
X214966Y176565D01*
X216057D01*
X217111Y176848D01*
X218056Y177393D01*
X218827Y178165D01*
X219373Y179109D01*
X219655Y180163D01*
Y181254D01*
X219373Y182308D01*
X218827Y183253D01*
X218056Y184024D01*
X217111Y184570D01*
X216057Y184852D01*
D02*
G37*
G36*
X206057D02*
X204966D01*
X203913Y184570D01*
X202968Y184024D01*
X202196Y183253D01*
X201651Y182308D01*
X201368Y181254D01*
Y180163D01*
X201651Y179109D01*
X202196Y178165D01*
X202968Y177393D01*
X203913Y176848D01*
X204966Y176565D01*
X206057D01*
X207111Y176848D01*
X208056Y177393D01*
X208827Y178165D01*
X209373Y179109D01*
X209655Y180163D01*
Y181254D01*
X209373Y182308D01*
X208827Y183253D01*
X208056Y184024D01*
X207111Y184570D01*
X206057Y184852D01*
D02*
G37*
G36*
X196057D02*
X194966D01*
X193913Y184570D01*
X192968Y184024D01*
X192196Y183253D01*
X191651Y182308D01*
X191368Y181254D01*
Y180163D01*
X191651Y179109D01*
X192196Y178165D01*
X192968Y177393D01*
X193913Y176848D01*
X194966Y176565D01*
X196057D01*
X197111Y176848D01*
X198056Y177393D01*
X198827Y178165D01*
X199373Y179109D01*
X199655Y180163D01*
Y181254D01*
X199373Y182308D01*
X198827Y183253D01*
X198056Y184024D01*
X197111Y184570D01*
X196057Y184852D01*
D02*
G37*
G36*
X50900Y134065D02*
X49809D01*
X48755Y133782D01*
X47810Y133237D01*
X47039Y132465D01*
X46493Y131520D01*
X46211Y130467D01*
Y129376D01*
X46493Y128322D01*
X47039Y127377D01*
X47810Y126606D01*
X48755Y126060D01*
X49809Y125778D01*
X50900D01*
X51954Y126060D01*
X52898Y126606D01*
X53670Y127377D01*
X54215Y128322D01*
X54498Y129376D01*
Y130467D01*
X54215Y131520D01*
X53670Y132465D01*
X52898Y133237D01*
X51954Y133782D01*
X50900Y134065D01*
D02*
G37*
G36*
X20900D02*
X19809D01*
X18755Y133782D01*
X17810Y133237D01*
X17039Y132465D01*
X16493Y131520D01*
X16211Y130467D01*
Y129376D01*
X16493Y128322D01*
X17039Y127377D01*
X17810Y126606D01*
X18755Y126060D01*
X19809Y125778D01*
X20900D01*
X21954Y126060D01*
X22898Y126606D01*
X23670Y127377D01*
X24215Y128322D01*
X24498Y129376D01*
Y130467D01*
X24215Y131520D01*
X23670Y132465D01*
X22898Y133237D01*
X21954Y133782D01*
X20900Y134065D01*
D02*
G37*
G36*
X52165Y121200D02*
X52165Y121200D01*
X25591D01*
X25591Y121200D01*
X25161Y121115D01*
X24798Y120872D01*
X22829Y118903D01*
X22586Y118539D01*
X22501Y118110D01*
X22501Y118110D01*
Y117012D01*
X22473Y116950D01*
X22468Y116777D01*
X22457Y116650D01*
X22441Y116553D01*
X22439Y116545D01*
X20069D01*
Y109439D01*
X27175D01*
Y116545D01*
X24805D01*
X24803Y116553D01*
X24787Y116650D01*
X24776Y116777D01*
X24771Y116950D01*
X24744Y117012D01*
Y117646D01*
X26055Y118957D01*
X51701D01*
X55401Y115257D01*
X55421Y115200D01*
X55520Y115086D01*
X55590Y114984D01*
X55656Y114857D01*
X55719Y114704D01*
X55775Y114524D01*
X55822Y114316D01*
X55859Y114090D01*
X55903Y113525D01*
X55906Y113208D01*
X55955Y113092D01*
Y112781D01*
X56166Y111992D01*
X56574Y111285D01*
X57152Y110708D01*
X57859Y110300D01*
X58647Y110089D01*
X59463D01*
X60252Y110300D01*
X60959Y110708D01*
X61536Y111285D01*
X61944Y111992D01*
X62155Y112781D01*
Y113597D01*
X61944Y114385D01*
X61536Y115092D01*
X60959Y115670D01*
X60252Y116078D01*
X59463Y116289D01*
X59159D01*
X59050Y116338D01*
X58417Y116358D01*
X58163Y116384D01*
X57928Y116422D01*
X57720Y116469D01*
X57540Y116525D01*
X57387Y116588D01*
X57260Y116654D01*
X57158Y116724D01*
X57044Y116823D01*
X56987Y116843D01*
X52958Y120872D01*
X52595Y121115D01*
X52165Y121200D01*
D02*
G37*
G36*
X34090Y116545D02*
X33154D01*
X32251Y116303D01*
X31441Y115835D01*
X30779Y115174D01*
X30311Y114363D01*
X30069Y113460D01*
Y112524D01*
X30311Y111621D01*
X30779Y110811D01*
X31441Y110149D01*
X32251Y109681D01*
X33154Y109439D01*
X34090D01*
X34993Y109681D01*
X35803Y110149D01*
X36465Y110811D01*
X36933Y111621D01*
X37175Y112524D01*
Y113460D01*
X36933Y114363D01*
X36465Y115174D01*
X35803Y115835D01*
X34993Y116303D01*
X34090Y116545D01*
D02*
G37*
G36*
X135251Y178297D02*
X134434D01*
X133646Y178086D01*
X132939Y177678D01*
X132362Y177100D01*
X131954Y176393D01*
X131743Y175605D01*
Y174789D01*
X131954Y174000D01*
X132362Y173293D01*
X132577Y173078D01*
X132619Y172967D01*
X133053Y172505D01*
X133214Y172307D01*
X133354Y172114D01*
X133467Y171933D01*
X133555Y171766D01*
X133619Y171614D01*
X133661Y171477D01*
X133685Y171356D01*
X133695Y171205D01*
X133721Y171151D01*
Y114282D01*
X133695Y114228D01*
X133685Y114077D01*
X133661Y113956D01*
X133619Y113819D01*
X133555Y113667D01*
X133467Y113500D01*
X133354Y113319D01*
X133219Y113133D01*
X132851Y112703D01*
X132629Y112476D01*
X132582Y112360D01*
X132362Y112140D01*
X131954Y111433D01*
X131743Y110644D01*
Y109828D01*
X131954Y109040D01*
X132362Y108333D01*
X132939Y107756D01*
X133646Y107348D01*
X134434Y107136D01*
X135251D01*
X136039Y107348D01*
X136746Y107756D01*
X137323Y108333D01*
X137731Y109040D01*
X137943Y109828D01*
Y110644D01*
X137731Y111433D01*
X137323Y112140D01*
X137108Y112355D01*
X137066Y112466D01*
X136632Y112928D01*
X136471Y113126D01*
X136331Y113319D01*
X136218Y113500D01*
X136130Y113667D01*
X136066Y113819D01*
X136024Y113956D01*
X136001Y114077D01*
X135991Y114228D01*
X135964Y114282D01*
Y171151D01*
X135991Y171205D01*
X136001Y171356D01*
X136024Y171477D01*
X136066Y171614D01*
X136130Y171766D01*
X136218Y171933D01*
X136331Y172114D01*
X136466Y172300D01*
X136834Y172730D01*
X137056Y172957D01*
X137103Y173073D01*
X137323Y173293D01*
X137731Y174000D01*
X137943Y174789D01*
Y175605D01*
X137731Y176393D01*
X137323Y177100D01*
X136746Y177678D01*
X136039Y178086D01*
X135251Y178297D01*
D02*
G37*
G36*
X125408Y170423D02*
X124592D01*
X123803Y170212D01*
X123097Y169803D01*
X122519Y169226D01*
X122111Y168519D01*
X121900Y167731D01*
Y166915D01*
X122111Y166126D01*
X122519Y165419D01*
X122735Y165204D01*
X122777Y165093D01*
X123211Y164631D01*
X123372Y164433D01*
X123511Y164240D01*
X123624Y164059D01*
X123712Y163892D01*
X123776Y163740D01*
X123819Y163603D01*
X123842Y163481D01*
X123852Y163331D01*
X123878Y163277D01*
Y114282D01*
X123852Y114228D01*
X123842Y114077D01*
X123819Y113956D01*
X123776Y113819D01*
X123712Y113667D01*
X123624Y113500D01*
X123511Y113319D01*
X123377Y113133D01*
X123008Y112703D01*
X122786Y112476D01*
X122739Y112360D01*
X122519Y112140D01*
X122111Y111433D01*
X121900Y110644D01*
Y109828D01*
X122111Y109040D01*
X122519Y108333D01*
X123097Y107756D01*
X123803Y107348D01*
X124592Y107136D01*
X125408D01*
X126197Y107348D01*
X126903Y107756D01*
X127481Y108333D01*
X127889Y109040D01*
X128100Y109828D01*
Y110644D01*
X127889Y111433D01*
X127481Y112140D01*
X127265Y112355D01*
X127223Y112466D01*
X126789Y112928D01*
X126628Y113126D01*
X126489Y113319D01*
X126376Y113500D01*
X126288Y113667D01*
X126224Y113819D01*
X126181Y113956D01*
X126158Y114077D01*
X126148Y114228D01*
X126122Y114282D01*
Y163277D01*
X126148Y163331D01*
X126158Y163481D01*
X126181Y163603D01*
X126224Y163740D01*
X126288Y163892D01*
X126376Y164059D01*
X126489Y164240D01*
X126623Y164426D01*
X126992Y164856D01*
X127214Y165083D01*
X127261Y165199D01*
X127481Y165419D01*
X127889Y166126D01*
X128100Y166915D01*
Y167731D01*
X127889Y168519D01*
X127481Y169226D01*
X126903Y169803D01*
X126197Y170212D01*
X125408Y170423D01*
D02*
G37*
G36*
X145545Y105521D02*
X144455D01*
X143401Y105239D01*
X142456Y104693D01*
X141684Y103922D01*
X141139Y102977D01*
X140857Y101923D01*
Y100832D01*
X141139Y99779D01*
X141684Y98834D01*
X142456Y98062D01*
X143401Y97517D01*
X144455Y97235D01*
X145545D01*
X146599Y97517D01*
X147544Y98062D01*
X148316Y98834D01*
X148861Y99779D01*
X149143Y100832D01*
Y101923D01*
X148861Y102977D01*
X148316Y103922D01*
X147544Y104693D01*
X146599Y105239D01*
X145545Y105521D01*
D02*
G37*
G36*
X135546D02*
X134455D01*
X133401Y105239D01*
X132456Y104693D01*
X131685Y103922D01*
X131139Y102977D01*
X130857Y101923D01*
Y100832D01*
X131139Y99779D01*
X131685Y98834D01*
X132456Y98062D01*
X133401Y97517D01*
X134455Y97235D01*
X135546D01*
X136599Y97517D01*
X137544Y98062D01*
X138315Y98834D01*
X138861Y99779D01*
X139143Y100832D01*
Y101923D01*
X138861Y102977D01*
X138315Y103922D01*
X137544Y104693D01*
X136599Y105239D01*
X135546Y105521D01*
D02*
G37*
G36*
X125546D02*
X124454D01*
X123401Y105239D01*
X122456Y104693D01*
X121685Y103922D01*
X121139Y102977D01*
X120857Y101923D01*
Y100832D01*
X121139Y99779D01*
X121685Y98834D01*
X122456Y98062D01*
X123401Y97517D01*
X124454Y97235D01*
X125546D01*
X126599Y97517D01*
X127544Y98062D01*
X128315Y98834D01*
X128861Y99779D01*
X129143Y100832D01*
Y101923D01*
X128861Y102977D01*
X128315Y103922D01*
X127544Y104693D01*
X126599Y105239D01*
X125546Y105521D01*
D02*
G37*
G36*
X105545D02*
X104455D01*
X103401Y105239D01*
X102456Y104693D01*
X101684Y103922D01*
X101139Y102977D01*
X100857Y101923D01*
Y100832D01*
X101139Y99779D01*
X101684Y98834D01*
X102456Y98062D01*
X103401Y97517D01*
X104455Y97235D01*
X105545D01*
X106599Y97517D01*
X107544Y98062D01*
X108316Y98834D01*
X108861Y99779D01*
X109143Y100832D01*
Y101923D01*
X108861Y102977D01*
X108316Y103922D01*
X107544Y104693D01*
X106599Y105239D01*
X105545Y105521D01*
D02*
G37*
G36*
X95546D02*
X94454D01*
X93401Y105239D01*
X92456Y104693D01*
X91685Y103922D01*
X91139Y102977D01*
X90857Y101923D01*
Y100832D01*
X91139Y99779D01*
X91685Y98834D01*
X92456Y98062D01*
X93401Y97517D01*
X94454Y97235D01*
X95546D01*
X96599Y97517D01*
X97544Y98062D01*
X98316Y98834D01*
X98861Y99779D01*
X99143Y100832D01*
Y101923D01*
X98861Y102977D01*
X98316Y103922D01*
X97544Y104693D01*
X96599Y105239D01*
X95546Y105521D01*
D02*
G37*
G36*
X50742Y102884D02*
X49651D01*
X48598Y102601D01*
X47653Y102056D01*
X46881Y101284D01*
X46336Y100339D01*
X46054Y99286D01*
Y98195D01*
X46336Y97141D01*
X46881Y96196D01*
X47653Y95425D01*
X48598Y94879D01*
X49651Y94597D01*
X50742D01*
X51796Y94879D01*
X52741Y95425D01*
X53512Y96196D01*
X54058Y97141D01*
X54340Y98195D01*
Y99286D01*
X54058Y100339D01*
X53512Y101284D01*
X52741Y102056D01*
X51796Y102601D01*
X50742Y102884D01*
D02*
G37*
G36*
X24090Y106545D02*
X23154D01*
X22251Y106303D01*
X21441Y105835D01*
X20779Y105174D01*
X20311Y104363D01*
X20069Y103460D01*
Y102524D01*
X20311Y101621D01*
X20779Y100811D01*
X21441Y100149D01*
X22251Y99682D01*
X23154Y99439D01*
X23530D01*
X23647Y99390D01*
X24051Y99387D01*
X24768Y99338D01*
X25061Y99296D01*
X25326Y99241D01*
X25555Y99177D01*
X25748Y99104D01*
X25905Y99026D01*
X26027Y98947D01*
X26155Y98836D01*
X26210Y98818D01*
X27321Y97707D01*
X27321Y97707D01*
X27685Y97464D01*
X28114Y97378D01*
X28114Y97378D01*
X33535D01*
X33869Y97045D01*
X33662Y96545D01*
X33154D01*
X32251Y96303D01*
X31441Y95835D01*
X30779Y95174D01*
X30311Y94363D01*
X30069Y93460D01*
Y92524D01*
X30311Y91621D01*
X30779Y90811D01*
X31441Y90149D01*
X32251Y89682D01*
X32474Y89622D01*
X32409Y89122D01*
X29079D01*
X27796Y90404D01*
X27778Y90459D01*
X27667Y90588D01*
X27588Y90709D01*
X27510Y90866D01*
X27438Y91059D01*
X27373Y91288D01*
X27318Y91553D01*
X27276Y91846D01*
X27227Y92563D01*
X27224Y92967D01*
X27175Y93084D01*
Y93460D01*
X26933Y94363D01*
X26465Y95174D01*
X25804Y95835D01*
X24993Y96303D01*
X24090Y96545D01*
X23154D01*
X22251Y96303D01*
X21441Y95835D01*
X20779Y95174D01*
X20311Y94363D01*
X20069Y93460D01*
Y92524D01*
X20311Y91621D01*
X20779Y90811D01*
X21441Y90149D01*
X22251Y89682D01*
X23154Y89439D01*
X23530D01*
X23647Y89390D01*
X24051Y89387D01*
X24768Y89338D01*
X25061Y89296D01*
X25326Y89241D01*
X25555Y89176D01*
X25748Y89104D01*
X25905Y89026D01*
X26027Y88947D01*
X26155Y88836D01*
X26210Y88818D01*
X27821Y87207D01*
X27821Y87207D01*
X28185Y86964D01*
X28614Y86878D01*
X28614Y86878D01*
X32467D01*
X32533Y86378D01*
X32251Y86303D01*
X31441Y85835D01*
X30779Y85174D01*
X30311Y84363D01*
X30069Y83460D01*
Y82524D01*
X30311Y81621D01*
X30779Y80811D01*
X31441Y80149D01*
X32066Y79788D01*
X31932Y79288D01*
X30798D01*
X27240Y82847D01*
X27175Y82890D01*
Y83460D01*
X26933Y84363D01*
X26465Y85174D01*
X25804Y85835D01*
X24993Y86303D01*
X24090Y86545D01*
X23154D01*
X22251Y86303D01*
X21441Y85835D01*
X20779Y85174D01*
X20311Y84363D01*
X20069Y83460D01*
Y82524D01*
X20311Y81621D01*
X20779Y80811D01*
X21441Y80149D01*
X22251Y79681D01*
X23154Y79439D01*
X24090D01*
X24993Y79681D01*
X25804Y80149D01*
X26284Y80630D01*
X29541Y77373D01*
X29541Y77373D01*
X29904Y77130D01*
X30334Y77045D01*
X30334Y77045D01*
X33173D01*
X33200Y77005D01*
X32944Y76489D01*
X32251Y76303D01*
X31441Y75835D01*
X30779Y75174D01*
X30311Y74363D01*
X30069Y73460D01*
Y72524D01*
X30311Y71621D01*
X30779Y70811D01*
X31441Y70149D01*
X32251Y69682D01*
X32588Y69591D01*
X32686Y69514D01*
X33573Y69262D01*
X34289Y69026D01*
X34846Y68804D01*
X35049Y68707D01*
X35211Y68616D01*
X35322Y68541D01*
X35420Y68457D01*
X35475Y68439D01*
X40675Y63239D01*
Y57141D01*
X40675Y57140D01*
X40760Y56711D01*
X41003Y56348D01*
X45347Y52004D01*
X45364Y51950D01*
X45489Y51803D01*
X45582Y51654D01*
X45674Y51457D01*
X45759Y51212D01*
X45835Y50920D01*
X45898Y50580D01*
X45947Y50203D01*
X46001Y49290D01*
X46004Y48772D01*
X46054Y48655D01*
Y48195D01*
X46336Y47141D01*
X46881Y46196D01*
X47653Y45425D01*
X48598Y44879D01*
X49651Y44597D01*
X50742D01*
X51796Y44879D01*
X52741Y45425D01*
X53512Y46196D01*
X54058Y47141D01*
X54340Y48195D01*
Y49286D01*
X54058Y50339D01*
X53512Y51284D01*
X52741Y52056D01*
X51796Y52601D01*
X50742Y52883D01*
X50282D01*
X50165Y52933D01*
X49648Y52936D01*
X48734Y52990D01*
X48357Y53039D01*
X48017Y53102D01*
X47725Y53178D01*
X47480Y53263D01*
X47283Y53355D01*
X47134Y53448D01*
X46987Y53573D01*
X46933Y53590D01*
X42918Y57605D01*
Y63704D01*
X42918Y63704D01*
X42833Y64133D01*
X42590Y64497D01*
X42590Y64497D01*
X37316Y69770D01*
X37316Y69775D01*
X37292Y69794D01*
X37259Y69827D01*
X37241Y69882D01*
X37120Y70023D01*
X37045Y70140D01*
X36985Y70276D01*
X36938Y70436D01*
X36908Y70623D01*
X36896Y70840D01*
X36906Y71087D01*
X36940Y71362D01*
X36999Y71666D01*
X37089Y72013D01*
X37071Y72137D01*
X37175Y72524D01*
Y72878D01*
X37675Y73085D01*
X47857Y62903D01*
X47828Y62728D01*
X47787Y62561D01*
X47736Y62409D01*
X47676Y62269D01*
X47607Y62139D01*
X47527Y62020D01*
X47437Y61910D01*
X47315Y61785D01*
X47275Y61685D01*
X47195Y61614D01*
X47194Y61597D01*
X46881Y61284D01*
X46336Y60339D01*
X46054Y59286D01*
Y58195D01*
X46336Y57141D01*
X46881Y56196D01*
X47653Y55425D01*
X48598Y54879D01*
X49651Y54597D01*
X50742D01*
X51796Y54879D01*
X52741Y55425D01*
X53512Y56196D01*
X54058Y57141D01*
X54340Y58195D01*
Y59286D01*
X54058Y60339D01*
X53512Y61284D01*
X52741Y62056D01*
X51796Y62601D01*
X50742Y62884D01*
X50625D01*
X50570Y62915D01*
X50428Y62935D01*
X50349Y62955D01*
X50298Y62976D01*
X50269Y62995D01*
X50252Y63011D01*
X50237Y63030D01*
X50220Y63063D01*
X50203Y63118D01*
X50188Y63201D01*
X50181Y63347D01*
X50123Y63468D01*
X50068Y63743D01*
X49832Y64097D01*
X49839Y64138D01*
X50042Y64597D01*
X50742D01*
X51796Y64879D01*
X52741Y65425D01*
X53512Y66196D01*
X54058Y67141D01*
X54340Y68195D01*
Y69286D01*
X54058Y70339D01*
X53512Y71284D01*
X52741Y72056D01*
X51796Y72601D01*
X50977Y72821D01*
X50964Y72835D01*
X50913Y72838D01*
X50855Y72853D01*
X50801Y72889D01*
X50617Y72923D01*
X50494Y72960D01*
X50403Y73000D01*
X50339Y73041D01*
X50294Y73081D01*
X50261Y73123D01*
X50232Y73175D01*
X50208Y73247D01*
X50190Y73343D01*
X50181Y73505D01*
X50122Y73625D01*
X50068Y73897D01*
X49935Y74097D01*
X50132Y74546D01*
X50186Y74597D01*
X50742D01*
X51796Y74879D01*
X52741Y75425D01*
X53512Y76196D01*
X54058Y77141D01*
X54340Y78195D01*
Y79286D01*
X54058Y80339D01*
X53512Y81284D01*
X52741Y82056D01*
X51796Y82601D01*
X50977Y82821D01*
X50964Y82835D01*
X50913Y82838D01*
X50855Y82853D01*
X50801Y82889D01*
X50617Y82923D01*
X50494Y82960D01*
X50403Y83000D01*
X50339Y83041D01*
X50294Y83081D01*
X50261Y83123D01*
X50232Y83175D01*
X50208Y83246D01*
X50190Y83343D01*
X50181Y83504D01*
X50122Y83625D01*
X50068Y83897D01*
X49825Y84261D01*
X49825Y84261D01*
X48421Y85666D01*
X48421Y85666D01*
X48236Y85789D01*
X48259Y85824D01*
X47705Y86249D01*
X47280Y86803D01*
X47245Y86779D01*
X47122Y86964D01*
X47122Y86964D01*
X34793Y99293D01*
X34793Y99293D01*
X34429Y99536D01*
X34000Y99622D01*
X34000Y99622D01*
X28579D01*
X27796Y100404D01*
X27778Y100459D01*
X27667Y100587D01*
X27588Y100709D01*
X27510Y100866D01*
X27438Y101059D01*
X27373Y101288D01*
X27318Y101553D01*
X27276Y101846D01*
X27227Y102563D01*
X27224Y102967D01*
X27175Y103084D01*
Y103460D01*
X26933Y104363D01*
X26465Y105174D01*
X25804Y105835D01*
X24993Y106303D01*
X24090Y106545D01*
D02*
G37*
G36*
Y76545D02*
X23154D01*
X22251Y76303D01*
X21441Y75835D01*
X20779Y75174D01*
X20311Y74363D01*
X20069Y73460D01*
Y72524D01*
X20311Y71621D01*
X20779Y70811D01*
X21441Y70149D01*
X22251Y69682D01*
X23154Y69439D01*
X24090D01*
X24993Y69682D01*
X25804Y70149D01*
X26465Y70811D01*
X26933Y71621D01*
X27175Y72524D01*
Y73460D01*
X26933Y74363D01*
X26465Y75174D01*
X25804Y75835D01*
X24993Y76303D01*
X24090Y76545D01*
D02*
G37*
G36*
X150014Y67076D02*
X149198D01*
X148410Y66865D01*
X147703Y66457D01*
X147488Y66242D01*
X147376Y66199D01*
X146915Y65766D01*
X146716Y65605D01*
X146523Y65465D01*
X146343Y65352D01*
X146176Y65264D01*
X146023Y65200D01*
X145886Y65158D01*
X145765Y65134D01*
X145614Y65124D01*
X145561Y65098D01*
X89676D01*
X89622Y65124D01*
X89471Y65134D01*
X89350Y65158D01*
X89213Y65200D01*
X89060Y65264D01*
X88893Y65352D01*
X88713Y65465D01*
X88527Y65600D01*
X88096Y65968D01*
X87870Y66190D01*
X87753Y66237D01*
X87533Y66457D01*
X86826Y66865D01*
X86038Y67076D01*
X85222D01*
X84433Y66865D01*
X83727Y66457D01*
X83149Y65880D01*
X82741Y65173D01*
X82530Y64385D01*
Y63568D01*
X82741Y62780D01*
X83149Y62073D01*
X83727Y61496D01*
X84433Y61088D01*
X85222Y60876D01*
X86038D01*
X86826Y61088D01*
X87533Y61496D01*
X87749Y61711D01*
X87860Y61753D01*
X88322Y62187D01*
X88520Y62348D01*
X88713Y62488D01*
X88893Y62601D01*
X89060Y62689D01*
X89213Y62753D01*
X89350Y62795D01*
X89471Y62818D01*
X89622Y62828D01*
X89676Y62855D01*
X145561D01*
X145614Y62828D01*
X145765Y62818D01*
X145886Y62795D01*
X146023Y62753D01*
X146176Y62689D01*
X146343Y62601D01*
X146523Y62488D01*
X146710Y62353D01*
X147140Y61985D01*
X147366Y61763D01*
X147483Y61716D01*
X147703Y61496D01*
X148410Y61088D01*
X149198Y60876D01*
X150014D01*
X150803Y61088D01*
X151510Y61496D01*
X152087Y62073D01*
X152495Y62780D01*
X152706Y63568D01*
Y64385D01*
X152495Y65173D01*
X152087Y65880D01*
X151510Y66457D01*
X150803Y66865D01*
X150014Y67076D01*
D02*
G37*
G36*
X34090Y66545D02*
X33154D01*
X32251Y66303D01*
X31441Y65835D01*
X30779Y65174D01*
X30311Y64363D01*
X30069Y63460D01*
Y62524D01*
X30311Y61621D01*
X30779Y60811D01*
X31441Y60149D01*
X32251Y59681D01*
X33154Y59439D01*
X34090D01*
X34993Y59681D01*
X35803Y60149D01*
X36465Y60811D01*
X36933Y61621D01*
X37175Y62524D01*
Y63460D01*
X36933Y64363D01*
X36465Y65174D01*
X35803Y65835D01*
X34993Y66303D01*
X34090Y66545D01*
D02*
G37*
G36*
X24090D02*
X23154D01*
X22251Y66303D01*
X21441Y65835D01*
X20779Y65174D01*
X20311Y64363D01*
X20069Y63460D01*
Y62524D01*
X20311Y61621D01*
X20779Y60811D01*
X21441Y60149D01*
X22251Y59681D01*
X23154Y59439D01*
X24090D01*
X24993Y59681D01*
X25804Y60149D01*
X26465Y60811D01*
X26933Y61621D01*
X27175Y62524D01*
Y63460D01*
X26933Y64363D01*
X26465Y65174D01*
X25804Y65835D01*
X24993Y66303D01*
X24090Y66545D01*
D02*
G37*
G36*
X86038Y74950D02*
X85222D01*
X84433Y74739D01*
X83727Y74331D01*
X83149Y73754D01*
X82741Y73047D01*
X82530Y72259D01*
Y71442D01*
X82741Y70654D01*
X83149Y69947D01*
X83727Y69370D01*
X84433Y68962D01*
X85222Y68750D01*
X86038D01*
X86826Y68962D01*
X87533Y69370D01*
X87695Y69532D01*
X87706Y69532D01*
X87742Y69546D01*
X87777Y69555D01*
X87840Y69567D01*
X88809Y69625D01*
X89076Y69626D01*
X89092Y69633D01*
X150656D01*
X157231Y63058D01*
Y59572D01*
X157225Y59557D01*
X157209Y58802D01*
X157184Y58452D01*
X157169Y58334D01*
X157154Y58249D01*
X157144Y58214D01*
X157130Y58178D01*
X157130Y58168D01*
X156968Y58006D01*
X156560Y57299D01*
X156349Y56511D01*
Y55694D01*
X156560Y54906D01*
X156968Y54199D01*
X157545Y53622D01*
X158252Y53214D01*
X159041Y53002D01*
X159857D01*
X160645Y53214D01*
X161352Y53622D01*
X161929Y54199D01*
X162338Y54906D01*
X162549Y55694D01*
Y56511D01*
X162338Y57299D01*
X161929Y58006D01*
X161768Y58168D01*
X161768Y58178D01*
X161753Y58214D01*
X161744Y58249D01*
X161733Y58312D01*
X161675Y59282D01*
X161673Y59548D01*
X161666Y59564D01*
Y63976D01*
X161666Y63976D01*
X161497Y64825D01*
X161017Y65544D01*
X161017Y65544D01*
X153143Y73418D01*
X152423Y73899D01*
X151575Y74068D01*
X151575Y74068D01*
X89100D01*
X89085Y74075D01*
X88329Y74090D01*
X87980Y74115D01*
X87861Y74130D01*
X87777Y74146D01*
X87741Y74155D01*
X87706Y74169D01*
X87695Y74169D01*
X87533Y74331D01*
X86826Y74739D01*
X86038Y74950D01*
D02*
G37*
G36*
X34090Y56545D02*
X33154D01*
X32251Y56303D01*
X31441Y55835D01*
X30779Y55174D01*
X30311Y54363D01*
X30069Y53460D01*
Y52524D01*
X30311Y51621D01*
X30779Y50811D01*
X31441Y50149D01*
X32251Y49681D01*
X33154Y49439D01*
X34090D01*
X34993Y49681D01*
X35803Y50149D01*
X36465Y50811D01*
X36933Y51621D01*
X37175Y52524D01*
Y53460D01*
X36933Y54363D01*
X36465Y55174D01*
X35803Y55835D01*
X34993Y56303D01*
X34090Y56545D01*
D02*
G37*
G36*
X24090D02*
X23154D01*
X22251Y56303D01*
X21441Y55835D01*
X20779Y55174D01*
X20311Y54363D01*
X20069Y53460D01*
Y52524D01*
X20311Y51621D01*
X20779Y50811D01*
X21441Y50149D01*
X22251Y49681D01*
X23154Y49439D01*
X24090D01*
X24993Y49681D01*
X25804Y50149D01*
X26465Y50811D01*
X26933Y51621D01*
X27175Y52524D01*
Y53460D01*
X26933Y54363D01*
X26465Y55174D01*
X25804Y55835D01*
X24993Y56303D01*
X24090Y56545D01*
D02*
G37*
G36*
X34090Y46545D02*
X33154D01*
X32251Y46303D01*
X31441Y45835D01*
X30779Y45174D01*
X30311Y44363D01*
X30069Y43460D01*
Y42524D01*
X30311Y41621D01*
X30779Y40811D01*
X31441Y40149D01*
X32251Y39682D01*
X33154Y39439D01*
X34090D01*
X34993Y39682D01*
X35803Y40149D01*
X36465Y40811D01*
X36933Y41621D01*
X37175Y42524D01*
Y43460D01*
X36933Y44363D01*
X36465Y45174D01*
X35803Y45835D01*
X34993Y46303D01*
X34090Y46545D01*
D02*
G37*
G36*
X24090D02*
X23154D01*
X22251Y46303D01*
X21441Y45835D01*
X20779Y45174D01*
X20311Y44363D01*
X20069Y43460D01*
Y42524D01*
X20311Y41621D01*
X20779Y40811D01*
X21441Y40149D01*
X22251Y39682D01*
X23154Y39439D01*
X24090D01*
X24993Y39682D01*
X25804Y40149D01*
X26465Y40811D01*
X26933Y41621D01*
X27175Y42524D01*
Y43460D01*
X26933Y44363D01*
X26465Y45174D01*
X25804Y45835D01*
X24993Y46303D01*
X24090Y46545D01*
D02*
G37*
G36*
X122047Y217185D02*
X35433D01*
X34974Y216995D01*
X21194Y203215D01*
X21004Y202756D01*
Y199441D01*
X21016Y199412D01*
X21013Y199406D01*
Y198626D01*
X21016Y198620D01*
X21004Y198591D01*
Y195866D01*
X21194Y195407D01*
X23163Y193438D01*
X23622Y193248D01*
X24358D01*
Y178150D01*
Y143701D01*
X24358Y143701D01*
X24526Y142852D01*
X25007Y142133D01*
X35017Y132123D01*
X35023Y132108D01*
X35263Y131855D01*
X35465Y131618D01*
X35640Y131388D01*
X35787Y131164D01*
X35908Y130947D01*
X36004Y130737D01*
X36076Y130535D01*
X36125Y130339D01*
X36153Y130149D01*
X36162Y129929D01*
X36211Y129824D01*
Y129376D01*
X36493Y128322D01*
X37039Y127377D01*
X37810Y126606D01*
X38755Y126060D01*
X39809Y125778D01*
X40900D01*
X41954Y126060D01*
X42898Y126606D01*
X43670Y127377D01*
X44215Y128322D01*
X44498Y129376D01*
Y130467D01*
X44215Y131520D01*
X43670Y132465D01*
X42898Y133237D01*
X41954Y133782D01*
X40900Y134065D01*
X40451D01*
X40347Y134113D01*
X40126Y134123D01*
X39936Y134151D01*
X39741Y134200D01*
X39538Y134272D01*
X39329Y134368D01*
X39112Y134488D01*
X38888Y134636D01*
X38657Y134810D01*
X38421Y135012D01*
X38168Y135253D01*
X38153Y135259D01*
X28792Y144619D01*
Y178150D01*
Y193248D01*
X29528D01*
X29987Y193438D01*
X32939Y196391D01*
X33130Y196850D01*
X33130Y202487D01*
X39639Y208996D01*
X114889D01*
X170610Y153274D01*
Y34744D01*
X170801Y34285D01*
X175033Y30053D01*
X175492Y29862D01*
X180118Y29862D01*
X180577Y30053D01*
X184514Y33990D01*
X184705Y34449D01*
Y44291D01*
X184514Y44751D01*
X175846Y53419D01*
Y80440D01*
X185499Y90092D01*
X185689Y90551D01*
Y100394D01*
X185499Y100853D01*
X175846Y110505D01*
Y139495D01*
X182356Y146004D01*
X184055D01*
X184514Y146194D01*
X184705Y146653D01*
Y154528D01*
X184514Y154987D01*
X122506Y216995D01*
X122047Y217185D01*
D02*
G37*
G36*
X34090Y36545D02*
X33154D01*
X32251Y36303D01*
X31441Y35835D01*
X30779Y35174D01*
X30311Y34363D01*
X30069Y33460D01*
Y32524D01*
X30311Y31621D01*
X30779Y30811D01*
X31441Y30149D01*
X32251Y29682D01*
X32474Y29622D01*
X32409Y29122D01*
X29079D01*
X27796Y30404D01*
X27778Y30459D01*
X27667Y30588D01*
X27588Y30709D01*
X27510Y30866D01*
X27438Y31059D01*
X27373Y31288D01*
X27318Y31553D01*
X27276Y31846D01*
X27227Y32563D01*
X27224Y32967D01*
X27175Y33084D01*
Y33460D01*
X26933Y34363D01*
X26465Y35174D01*
X25804Y35835D01*
X24993Y36303D01*
X24090Y36545D01*
X23154D01*
X22251Y36303D01*
X21441Y35835D01*
X20779Y35174D01*
X20311Y34363D01*
X20069Y33460D01*
Y32524D01*
X20311Y31621D01*
X20779Y30811D01*
X21441Y30149D01*
X22251Y29682D01*
X23154Y29439D01*
X23530D01*
X23647Y29390D01*
X24051Y29387D01*
X24768Y29338D01*
X25061Y29296D01*
X25326Y29241D01*
X25555Y29177D01*
X25748Y29104D01*
X25905Y29026D01*
X26027Y28947D01*
X26155Y28836D01*
X26210Y28818D01*
X27821Y27207D01*
X27821Y27207D01*
X28185Y26964D01*
X28614Y26878D01*
X28614Y26878D01*
X32467D01*
X32533Y26378D01*
X32251Y26303D01*
X31441Y25835D01*
X30779Y25174D01*
X30311Y24363D01*
X30069Y23460D01*
Y22524D01*
X30311Y21621D01*
X30779Y20811D01*
X31441Y20149D01*
X32251Y19681D01*
X33154Y19439D01*
X34090D01*
X34993Y19681D01*
X35803Y20149D01*
X36465Y20811D01*
X36933Y21621D01*
X37175Y22524D01*
Y23460D01*
X36933Y24363D01*
X36465Y25174D01*
X35803Y25835D01*
X34993Y26303D01*
X34711Y26378D01*
X34777Y26878D01*
X47035D01*
X58959Y14955D01*
X58959Y14955D01*
X59323Y14712D01*
X59752Y14627D01*
X107441D01*
X107441Y14627D01*
X107870Y14712D01*
X108234Y14955D01*
X112051Y18772D01*
X112105Y18789D01*
X112252Y18915D01*
X112401Y19007D01*
X112598Y19099D01*
X112843Y19184D01*
X113136Y19260D01*
X113475Y19323D01*
X113852Y19372D01*
X114766Y19427D01*
X115283Y19430D01*
X115400Y19479D01*
X115860D01*
X116914Y19761D01*
X117859Y20307D01*
X118630Y21078D01*
X119176Y22023D01*
X119458Y23077D01*
Y24168D01*
X119176Y25221D01*
X118630Y26166D01*
X117859Y26937D01*
X116914Y27483D01*
X115860Y27765D01*
X114769D01*
X113716Y27483D01*
X112771Y26937D01*
X111999Y26166D01*
X111454Y25221D01*
X111172Y24168D01*
Y23707D01*
X111122Y23590D01*
X111120Y23073D01*
X111065Y22159D01*
X111016Y21782D01*
X110953Y21443D01*
X110877Y21150D01*
X110792Y20905D01*
X110700Y20708D01*
X110608Y20560D01*
X110482Y20412D01*
X110465Y20358D01*
X106976Y16870D01*
X60216D01*
X48293Y28793D01*
X47929Y29036D01*
X47500Y29122D01*
X47500Y29122D01*
X34835D01*
X34770Y29622D01*
X34993Y29682D01*
X35803Y30149D01*
X36465Y30811D01*
X36933Y31621D01*
X37175Y32524D01*
Y33460D01*
X36933Y34363D01*
X36465Y35174D01*
X35803Y35835D01*
X34993Y36303D01*
X34090Y36545D01*
D02*
G37*
G36*
X145860Y27765D02*
X144770D01*
X143716Y27483D01*
X142771Y26937D01*
X141999Y26166D01*
X141454Y25221D01*
X141172Y24168D01*
Y23077D01*
X141454Y22023D01*
X141999Y21078D01*
X142771Y20307D01*
X143716Y19761D01*
X144770Y19479D01*
X145860D01*
X146914Y19761D01*
X147859Y20307D01*
X148630Y21078D01*
X149176Y22023D01*
X149458Y23077D01*
Y24168D01*
X149176Y25221D01*
X148630Y26166D01*
X147859Y26937D01*
X146914Y27483D01*
X145860Y27765D01*
D02*
G37*
G36*
X135860D02*
X134769D01*
X133716Y27483D01*
X132771Y26937D01*
X132000Y26166D01*
X131454Y25221D01*
X131172Y24168D01*
Y23077D01*
X131454Y22023D01*
X132000Y21078D01*
X132771Y20307D01*
X133716Y19761D01*
X134769Y19479D01*
X135860D01*
X136914Y19761D01*
X137859Y20307D01*
X138630Y21078D01*
X139176Y22023D01*
X139458Y23077D01*
Y24168D01*
X139176Y25221D01*
X138630Y26166D01*
X137859Y26937D01*
X136914Y27483D01*
X135860Y27765D01*
D02*
G37*
G36*
X125860D02*
X124769D01*
X123716Y27483D01*
X122771Y26937D01*
X122000Y26166D01*
X121454Y25221D01*
X121172Y24168D01*
Y23077D01*
X121454Y22023D01*
X122000Y21078D01*
X122771Y20307D01*
X123716Y19761D01*
X124769Y19479D01*
X125860D01*
X126914Y19761D01*
X127859Y20307D01*
X128630Y21078D01*
X129176Y22023D01*
X129458Y23077D01*
Y24168D01*
X129176Y25221D01*
X128630Y26166D01*
X127859Y26937D01*
X126914Y27483D01*
X125860Y27765D01*
D02*
G37*
G36*
X95860D02*
X94770D01*
X93716Y27483D01*
X92771Y26937D01*
X92000Y26166D01*
X91454Y25221D01*
X91172Y24168D01*
Y23077D01*
X91454Y22023D01*
X92000Y21078D01*
X92771Y20307D01*
X93716Y19761D01*
X94770Y19479D01*
X95860D01*
X96914Y19761D01*
X97859Y20307D01*
X98630Y21078D01*
X99176Y22023D01*
X99458Y23077D01*
Y24168D01*
X99176Y25221D01*
X98630Y26166D01*
X97859Y26937D01*
X96914Y27483D01*
X95860Y27765D01*
D02*
G37*
G36*
X85860D02*
X84769D01*
X83716Y27483D01*
X82771Y26937D01*
X81999Y26166D01*
X81454Y25221D01*
X81172Y24168D01*
Y23077D01*
X81454Y22023D01*
X81999Y21078D01*
X82771Y20307D01*
X83716Y19761D01*
X84769Y19479D01*
X85860D01*
X86914Y19761D01*
X87859Y20307D01*
X88630Y21078D01*
X89176Y22023D01*
X89458Y23077D01*
Y24168D01*
X89176Y25221D01*
X88630Y26166D01*
X87859Y26937D01*
X86914Y27483D01*
X85860Y27765D01*
D02*
G37*
G36*
X24090Y26545D02*
X23154D01*
X22251Y26303D01*
X21441Y25835D01*
X20779Y25174D01*
X20311Y24363D01*
X20069Y23460D01*
Y22524D01*
X20311Y21621D01*
X20779Y20811D01*
X21441Y20149D01*
X22251Y19681D01*
X23154Y19439D01*
X24090D01*
X24993Y19681D01*
X25804Y20149D01*
X26465Y20811D01*
X26933Y21621D01*
X27175Y22524D01*
Y23460D01*
X26933Y24363D01*
X26465Y25174D01*
X25804Y25835D01*
X24993Y26303D01*
X24090Y26545D01*
D02*
G37*
%LPD*%
G36*
X24127Y116741D02*
X24142Y116569D01*
X24167Y116417D01*
X24202Y116285D01*
X24247Y116174D01*
X24302Y116083D01*
X24367Y116012D01*
X24442Y115961D01*
X24527Y115931D01*
X24622Y115921D01*
X22622D01*
X22717Y115931D01*
X22802Y115961D01*
X22877Y116012D01*
X22942Y116083D01*
X22997Y116174D01*
X23042Y116285D01*
X23077Y116417D01*
X23102Y116569D01*
X23117Y116741D01*
X23122Y116933D01*
X24122D01*
X24127Y116741D01*
D02*
G37*
G36*
X56760Y116209D02*
X56925Y116097D01*
X57112Y115998D01*
X57321Y115913D01*
X57551Y115842D01*
X57804Y115784D01*
X58078Y115740D01*
X58373Y115709D01*
X59030Y115689D01*
X56555Y113214D01*
X56552Y113553D01*
X56504Y114166D01*
X56460Y114440D01*
X56402Y114693D01*
X56331Y114923D01*
X56246Y115132D01*
X56147Y115319D01*
X56035Y115484D01*
X55909Y115628D01*
X56616Y116335D01*
X56760Y116209D01*
D02*
G37*
G36*
X136355Y173169D02*
X135955Y172702D01*
X135793Y172477D01*
X135655Y172258D01*
X135543Y172044D01*
X135455Y171836D01*
X135392Y171634D01*
X135355Y171438D01*
X135343Y171247D01*
X134343D01*
X134330Y171438D01*
X134292Y171634D01*
X134230Y171836D01*
X134142Y172044D01*
X134030Y172258D01*
X133893Y172477D01*
X133730Y172702D01*
X133543Y172933D01*
X133092Y173412D01*
X136592D01*
X136355Y173169D01*
D02*
G37*
G36*
X135355Y113995D02*
X135392Y113799D01*
X135455Y113597D01*
X135543Y113389D01*
X135655Y113175D01*
X135793Y112956D01*
X135955Y112731D01*
X136143Y112500D01*
X136592Y112022D01*
X133092D01*
X133330Y112264D01*
X133730Y112731D01*
X133893Y112956D01*
X134030Y113175D01*
X134142Y113389D01*
X134230Y113597D01*
X134292Y113799D01*
X134330Y113995D01*
X134343Y114186D01*
X135343D01*
X135355Y113995D01*
D02*
G37*
G36*
X126513Y165295D02*
X126112Y164828D01*
X125950Y164603D01*
X125812Y164384D01*
X125700Y164170D01*
X125612Y163962D01*
X125550Y163760D01*
X125513Y163564D01*
X125500Y163373D01*
X124500D01*
X124487Y163564D01*
X124450Y163760D01*
X124388Y163962D01*
X124300Y164170D01*
X124188Y164384D01*
X124050Y164603D01*
X123888Y164828D01*
X123700Y165059D01*
X123250Y165538D01*
X126750D01*
X126513Y165295D01*
D02*
G37*
G36*
X125513Y113995D02*
X125550Y113799D01*
X125612Y113597D01*
X125700Y113389D01*
X125812Y113175D01*
X125950Y112956D01*
X126112Y112731D01*
X126300Y112500D01*
X126750Y112022D01*
X123250D01*
X123487Y112264D01*
X123888Y112731D01*
X124050Y112956D01*
X124188Y113175D01*
X124300Y113389D01*
X124388Y113597D01*
X124450Y113799D01*
X124487Y113995D01*
X124500Y114186D01*
X125500D01*
X125513Y113995D01*
D02*
G37*
G36*
X26578Y102538D02*
X26629Y101778D01*
X26678Y101441D01*
X26742Y101134D01*
X26820Y100856D01*
X26914Y100607D01*
X27023Y100387D01*
X27147Y100197D01*
X27286Y100035D01*
X26579Y99328D01*
X26418Y99467D01*
X26227Y99591D01*
X26008Y99700D01*
X25759Y99794D01*
X25480Y99873D01*
X25173Y99936D01*
X24836Y99985D01*
X24076Y100036D01*
X23652Y100040D01*
X26575Y102963D01*
X26578Y102538D01*
D02*
G37*
G36*
Y92538D02*
X26629Y91778D01*
X26678Y91441D01*
X26742Y91134D01*
X26820Y90856D01*
X26914Y90607D01*
X27023Y90387D01*
X27147Y90197D01*
X27286Y90035D01*
X26579Y89328D01*
X26418Y89467D01*
X26227Y89591D01*
X26008Y89700D01*
X25759Y89794D01*
X25480Y89873D01*
X25173Y89936D01*
X24836Y89985D01*
X24076Y90036D01*
X23652Y90039D01*
X26575Y92963D01*
X26578Y92538D01*
D02*
G37*
G36*
X49544Y83265D02*
X49578Y83080D01*
X49636Y82913D01*
X49716Y82765D01*
X49819Y82634D01*
X49946Y82521D01*
X50095Y82426D01*
X50268Y82350D01*
X50463Y82291D01*
X50682Y82250D01*
X47638Y81191D01*
X47808Y81382D01*
X47960Y81581D01*
X48094Y81788D01*
X48210Y82003D01*
X48309Y82227D01*
X48389Y82459D01*
X48452Y82699D01*
X48496Y82947D01*
X48523Y83203D01*
X48532Y83468D01*
X49532D01*
X49544Y83265D01*
D02*
G37*
G36*
X45536Y85378D02*
X45539Y85376D01*
X46101Y84644D01*
X46832Y84083D01*
X46834Y84079D01*
X47855Y83059D01*
X47853Y83039D01*
X47817Y82839D01*
X47767Y82648D01*
X47704Y82465D01*
X47626Y82289D01*
X47535Y82119D01*
X47428Y81955D01*
X47306Y81796D01*
X47153Y81623D01*
X47122Y81535D01*
X47053Y81474D01*
X47052Y81455D01*
X46881Y81284D01*
X46336Y80339D01*
X46054Y79286D01*
Y78740D01*
X45554Y78533D01*
X35293Y88793D01*
X35293Y88793D01*
X34929Y89036D01*
X34693Y89083D01*
X34676Y89596D01*
X34993Y89682D01*
X35803Y90149D01*
X36465Y90811D01*
X36933Y91621D01*
X37175Y92524D01*
Y93032D01*
X37675Y93239D01*
X45536Y85378D01*
D02*
G37*
G36*
X49544Y73265D02*
X49578Y73080D01*
X49636Y72913D01*
X49716Y72765D01*
X49819Y72634D01*
X49946Y72521D01*
X50095Y72426D01*
X50268Y72350D01*
X50463Y72291D01*
X50682Y72250D01*
X47638Y71191D01*
X47808Y71382D01*
X47960Y71581D01*
X48094Y71788D01*
X48210Y72004D01*
X48309Y72227D01*
X48389Y72459D01*
X48452Y72699D01*
X48496Y72947D01*
X48523Y73203D01*
X48532Y73468D01*
X49532D01*
X49544Y73265D01*
D02*
G37*
G36*
X36365Y71809D02*
X36298Y71464D01*
X36258Y71139D01*
X36246Y70836D01*
X36261Y70553D01*
X36304Y70292D01*
X36374Y70052D01*
X36471Y69833D01*
X36597Y69635D01*
X36749Y69458D01*
X35843Y68950D01*
X35716Y69059D01*
X35551Y69170D01*
X35348Y69283D01*
X35107Y69399D01*
X34511Y69637D01*
X33763Y69883D01*
X32863Y70139D01*
X36460Y72176D01*
X36365Y71809D01*
D02*
G37*
G36*
X45536Y75378D02*
X45539Y75376D01*
X46101Y74644D01*
X46832Y74083D01*
X46834Y74079D01*
X47855Y73059D01*
X47853Y73039D01*
X47817Y72839D01*
X47767Y72648D01*
X47704Y72465D01*
X47626Y72289D01*
X47535Y72119D01*
X47428Y71955D01*
X47306Y71795D01*
X47153Y71623D01*
X47122Y71535D01*
X47053Y71474D01*
X47052Y71455D01*
X46881Y71284D01*
X46336Y70339D01*
X46054Y69286D01*
Y68585D01*
X45554Y68378D01*
X34972Y78960D01*
X34760Y79101D01*
X34813Y79633D01*
X34993Y79681D01*
X35803Y80149D01*
X36465Y80811D01*
X36933Y81621D01*
X37175Y82524D01*
Y83032D01*
X37675Y83239D01*
X45536Y75378D01*
D02*
G37*
G36*
X49542Y63129D02*
X49570Y62963D01*
X49618Y62815D01*
X49684Y62684D01*
X49770Y62571D01*
X49875Y62476D01*
X49998Y62398D01*
X50141Y62338D01*
X50302Y62296D01*
X50483Y62272D01*
X47780Y61331D01*
X47923Y61477D01*
X48051Y61635D01*
X48164Y61804D01*
X48261Y61985D01*
X48344Y62178D01*
X48412Y62382D01*
X48465Y62597D01*
X48502Y62824D01*
X48525Y63063D01*
X48532Y63313D01*
X49532D01*
X49542Y63129D01*
D02*
G37*
G36*
X46751Y52922D02*
X46973Y52783D01*
X47235Y52661D01*
X47536Y52556D01*
X47876Y52468D01*
X48255Y52397D01*
X48673Y52343D01*
X49626Y52286D01*
X50161Y52283D01*
X46654Y48776D01*
X46651Y49311D01*
X46594Y50264D01*
X46540Y50682D01*
X46469Y51061D01*
X46381Y51401D01*
X46276Y51702D01*
X46154Y51964D01*
X46015Y52186D01*
X45860Y52370D01*
X46567Y53077D01*
X46751Y52922D01*
D02*
G37*
G36*
X147821Y62226D02*
X147579Y62464D01*
X147112Y62864D01*
X146887Y63026D01*
X146667Y63164D01*
X146454Y63276D01*
X146246Y63364D01*
X146044Y63426D01*
X145847Y63464D01*
X145657Y63476D01*
Y64476D01*
X145847Y64489D01*
X146044Y64526D01*
X146246Y64589D01*
X146454Y64676D01*
X146667Y64789D01*
X146887Y64926D01*
X147112Y65089D01*
X147342Y65276D01*
X147821Y65726D01*
Y62226D01*
D02*
G37*
G36*
X87657Y65489D02*
X88125Y65089D01*
X88350Y64926D01*
X88569Y64789D01*
X88783Y64676D01*
X88990Y64589D01*
X89192Y64526D01*
X89389Y64489D01*
X89579Y64476D01*
Y63476D01*
X89389Y63464D01*
X89192Y63426D01*
X88990Y63364D01*
X88783Y63276D01*
X88569Y63164D01*
X88350Y63026D01*
X88125Y62864D01*
X87894Y62676D01*
X87415Y62226D01*
Y65726D01*
X87657Y65489D01*
D02*
G37*
G36*
X87463Y73567D02*
X87537Y73537D01*
X87637Y73511D01*
X87763Y73488D01*
X87915Y73469D01*
X88299Y73441D01*
X89072Y73425D01*
Y70276D01*
X88788Y70274D01*
X87763Y70213D01*
X87637Y70190D01*
X87537Y70164D01*
X87463Y70134D01*
X87415Y70100D01*
Y73600D01*
X87463Y73567D01*
D02*
G37*
G36*
X161025Y59260D02*
X161087Y58235D01*
X161109Y58109D01*
X161136Y58009D01*
X161165Y57935D01*
X161199Y57888D01*
X157699D01*
X157732Y57935D01*
X157762Y58009D01*
X157788Y58109D01*
X157811Y58235D01*
X157830Y58388D01*
X157858Y58771D01*
X157874Y59544D01*
X161024D01*
X161025Y59260D01*
D02*
G37*
G36*
X37986Y134530D02*
X38250Y134304D01*
X38513Y134105D01*
X38775Y133933D01*
X39035Y133788D01*
X39294Y133669D01*
X39553Y133578D01*
X39809Y133513D01*
X40065Y133475D01*
X40319Y133464D01*
X36811Y129957D01*
X36800Y130211D01*
X36762Y130466D01*
X36698Y130723D01*
X36606Y130981D01*
X36488Y131240D01*
X36343Y131501D01*
X36171Y131763D01*
X35972Y132026D01*
X35746Y132290D01*
X35493Y132555D01*
X37720Y134783D01*
X37986Y134530D01*
D02*
G37*
G36*
X184055Y154528D02*
Y146653D01*
X182087D01*
X175197Y139764D01*
Y110236D01*
X185039Y100394D01*
Y90551D01*
X175197Y80709D01*
Y53150D01*
X184055Y44291D01*
Y34449D01*
X180118Y30512D01*
X175492Y30512D01*
X171260Y34744D01*
Y153543D01*
X115157Y209646D01*
X39370D01*
X32480Y202756D01*
X32480Y196850D01*
X29528Y193898D01*
X23622D01*
X21654Y195866D01*
Y198591D01*
X21663Y198626D01*
Y199406D01*
X21654Y199441D01*
Y202756D01*
X35433Y216535D01*
X122047D01*
X184055Y154528D01*
D02*
G37*
%LPC*%
G36*
X29528Y201969D02*
X27165D01*
Y199606D01*
X29528D01*
Y201969D01*
D02*
G37*
G36*
X25984D02*
X23622D01*
Y199606D01*
X25984D01*
Y201969D01*
D02*
G37*
G36*
X29528Y198425D02*
X27165D01*
Y196063D01*
X29528D01*
Y198425D01*
D02*
G37*
G36*
X25984D02*
X23622D01*
Y196063D01*
X25984D01*
Y198425D01*
D02*
G37*
G36*
X180118Y155207D02*
Y152756D01*
X182569D01*
X182407Y153358D01*
X182001Y154063D01*
X181425Y154638D01*
X180720Y155045D01*
X180118Y155207D01*
D02*
G37*
G36*
X178937D02*
X178335Y155045D01*
X177630Y154638D01*
X177055Y154063D01*
X176648Y153358D01*
X176486Y152756D01*
X178937D01*
Y155207D01*
D02*
G37*
G36*
X182569Y151575D02*
X180118D01*
Y149124D01*
X180720Y149285D01*
X181425Y149692D01*
X182001Y150268D01*
X182407Y150972D01*
X182569Y151575D01*
D02*
G37*
G36*
X178937D02*
X176486D01*
X176648Y150972D01*
X177055Y150268D01*
X177630Y149692D01*
X178335Y149285D01*
X178937Y149124D01*
Y151575D01*
D02*
G37*
G36*
X179724Y98514D02*
Y96063D01*
X182175D01*
X182014Y96665D01*
X181607Y97370D01*
X181032Y97945D01*
X180327Y98352D01*
X179724Y98514D01*
D02*
G37*
G36*
X178543D02*
X177941Y98352D01*
X177236Y97945D01*
X176661Y97370D01*
X176254Y96665D01*
X176093Y96063D01*
X178543D01*
Y98514D01*
D02*
G37*
G36*
X182175Y94882D02*
X179724D01*
Y92431D01*
X180327Y92593D01*
X181032Y92999D01*
X181607Y93575D01*
X182014Y94279D01*
X182175Y94882D01*
D02*
G37*
G36*
X178543D02*
X176093D01*
X176254Y94279D01*
X176661Y93575D01*
X177236Y92999D01*
X177941Y92593D01*
X178543Y92431D01*
Y94882D01*
D02*
G37*
G36*
X178095Y43902D02*
Y41451D01*
X180546D01*
X180385Y42053D01*
X179978Y42758D01*
X179402Y43333D01*
X178698Y43740D01*
X178095Y43902D01*
D02*
G37*
G36*
X176914D02*
X176312Y43740D01*
X175607Y43333D01*
X175032Y42758D01*
X174625Y42053D01*
X174463Y41451D01*
X176914D01*
Y43902D01*
D02*
G37*
G36*
X180546Y40270D02*
X178095D01*
Y37819D01*
X178698Y37980D01*
X179402Y38387D01*
X179978Y38963D01*
X180385Y39667D01*
X180546Y40270D01*
D02*
G37*
G36*
X176914D02*
X174463D01*
X174625Y39667D01*
X175032Y38963D01*
X175607Y38387D01*
X176312Y37980D01*
X176914Y37819D01*
Y40270D01*
D02*
G37*
%LPD*%
G36*
X26578Y32538D02*
X26629Y31778D01*
X26678Y31441D01*
X26742Y31134D01*
X26820Y30856D01*
X26914Y30607D01*
X27023Y30387D01*
X27147Y30196D01*
X27286Y30035D01*
X26579Y29328D01*
X26418Y29467D01*
X26227Y29591D01*
X26008Y29700D01*
X25759Y29794D01*
X25480Y29873D01*
X25173Y29936D01*
X24836Y29985D01*
X24076Y30036D01*
X23652Y30040D01*
X26575Y32963D01*
X26578Y32538D01*
D02*
G37*
G36*
X115279Y20079D02*
X114744Y20076D01*
X113791Y20019D01*
X113373Y19965D01*
X112994Y19894D01*
X112654Y19806D01*
X112354Y19701D01*
X112092Y19579D01*
X111869Y19441D01*
X111685Y19285D01*
X110978Y19992D01*
X111134Y20176D01*
X111273Y20399D01*
X111394Y20661D01*
X111499Y20962D01*
X111587Y21302D01*
X111658Y21680D01*
X111712Y22098D01*
X111769Y23052D01*
X111772Y23587D01*
X115279Y20079D01*
D02*
G37*
D14*
X46329Y76171D02*
G03*
X47627Y74872I3868J2569D01*
G01*
X46329Y86171D02*
G03*
X47627Y84873I3868J2569D01*
G01*
X36358Y8858D02*
X44000Y16500D01*
Y22500D01*
X59752Y15748D02*
X107441D01*
X47500Y28000D02*
X59752Y15748D01*
X28614Y28000D02*
X47500D01*
X13780Y8858D02*
X36358D01*
X23622Y32992D02*
X28614Y28000D01*
X41796Y57140D02*
Y63704D01*
X33622Y71878D02*
Y72992D01*
Y71878D02*
X41796Y63704D01*
X30334Y78166D02*
X34179D01*
X23622Y82992D02*
X24561Y82054D01*
X26447D01*
X30334Y78166D01*
X34179D02*
X49032Y63313D01*
Y69905D02*
Y73468D01*
X34500Y88000D02*
X46329Y76171D01*
X47627Y74872D02*
X49032Y73468D01*
X28614Y88000D02*
X34500D01*
X23622Y92992D02*
X28614Y88000D01*
X34000Y98500D02*
X46329Y86171D01*
X28114Y98500D02*
X34000D01*
X47627Y84873D02*
X49032Y83468D01*
Y79905D02*
Y83468D01*
X23622Y102992D02*
X28114Y98500D01*
X134843Y110236D02*
Y175197D01*
X125000Y110236D02*
Y167323D01*
X85630Y63976D02*
X149606D01*
X23622Y112992D02*
Y118110D01*
X25591Y120079D01*
X52165D01*
X59055Y113189D01*
X107441Y15748D02*
X115315Y23622D01*
X41796Y57140D02*
X50197Y48740D01*
X49032Y59905D02*
X50197Y58740D01*
X49032Y59905D02*
Y63313D01*
Y69905D02*
X50197Y68740D01*
X49032Y79905D02*
X50197Y78740D01*
X0Y0D02*
X228346D01*
X0Y228346D02*
X228346D01*
Y0D02*
Y228346D01*
X0Y0D02*
Y228346D01*
D39*
X26575Y143701D02*
Y178150D01*
Y199016D01*
Y143701D02*
X40354Y129921D01*
X85630Y71850D02*
X151575D01*
X159449Y63976D01*
Y56102D02*
Y63976D01*
D40*
X20354Y129921D02*
D03*
X30354D02*
D03*
X40354D02*
D03*
X50354D02*
D03*
X95000Y101378D02*
D03*
X105000D02*
D03*
X115000D02*
D03*
X125000D02*
D03*
X135000D02*
D03*
X145000D02*
D03*
X50197Y48740D02*
D03*
Y58740D02*
D03*
Y68740D02*
D03*
Y78740D02*
D03*
Y88740D02*
D03*
Y98740D02*
D03*
X145315Y23622D02*
D03*
X135315D02*
D03*
X125315D02*
D03*
X115315D02*
D03*
X105315D02*
D03*
X95315D02*
D03*
X85315D02*
D03*
X185512Y180709D02*
D03*
X195512D02*
D03*
X205512D02*
D03*
X215512D02*
D03*
X185669Y218504D02*
D03*
X195669D02*
D03*
X205669D02*
D03*
X215669D02*
D03*
X185669Y205906D02*
D03*
X195669D02*
D03*
X205669D02*
D03*
X215669D02*
D03*
X185512Y193307D02*
D03*
X195512D02*
D03*
X205512D02*
D03*
X215512D02*
D03*
D41*
X201944Y141732D02*
D03*
X198844D02*
D03*
X201944Y29528D02*
D03*
X198844D02*
D03*
X203275Y84568D02*
D03*
X200175D02*
D03*
D42*
X145669Y222047D02*
D03*
X177165Y6299D02*
D03*
X6299D02*
D03*
X43307Y222047D02*
D03*
D43*
X23622Y42992D02*
D03*
Y72992D02*
D03*
X41339Y197835D02*
D03*
X51339D02*
D03*
X33622Y22992D02*
D03*
X23622D02*
D03*
X33622Y32992D02*
D03*
X23622D02*
D03*
X33622Y42992D02*
D03*
Y52992D02*
D03*
X23622D02*
D03*
X33622Y62992D02*
D03*
X23622D02*
D03*
X33622Y72992D02*
D03*
Y82992D02*
D03*
X23622D02*
D03*
X33622Y92992D02*
D03*
X23622D02*
D03*
X33622Y102992D02*
D03*
X23622D02*
D03*
X33622Y112992D02*
D03*
D44*
X61339Y197835D02*
D03*
D45*
X23622Y112992D02*
D03*
D46*
X26575Y199016D02*
D03*
D47*
X18701D02*
D03*
D48*
X7874Y169291D02*
D03*
X44000Y22500D02*
D03*
X134843Y110236D02*
D03*
X125000D02*
D03*
X85630Y63976D02*
D03*
Y71850D02*
D03*
X149606Y63976D02*
D03*
X159449Y56102D02*
D03*
X134843Y175197D02*
D03*
X125000Y167323D02*
D03*
X13780Y8858D02*
D03*
X59055Y113189D02*
D03*
X177505Y40860D02*
D03*
X179134Y95472D02*
D03*
X179528Y152165D02*
D03*
X180709Y137402D02*
D03*
X189075Y130709D02*
D03*
X180709Y129921D02*
D03*
X211417Y130709D02*
D03*
X182040Y80237D02*
D03*
X190406Y73544D02*
D03*
X182040Y72757D02*
D03*
X212749Y73544D02*
D03*
X211417Y18504D02*
D03*
X180709Y17717D02*
D03*
X189075Y18504D02*
D03*
X180709Y25197D02*
D03*
M02*
