G04*
G04 #@! TF.GenerationSoftware,Altium Limited,Altium Designer,22.4.2 (48)*
G04*
G04 Layer_Color=16711935*
%FSLAX25Y25*%
%MOIN*%
G70*
G04*
G04 #@! TF.SameCoordinates,78AC0251-C41B-4C09-997F-A4DA7E128E32*
G04*
G04*
G04 #@! TF.FilePolarity,Negative*
G04*
G01*
G75*
%ADD14C,0.01000*%
%ADD24C,0.07887*%
%ADD25C,0.02800*%
%ADD26C,0.05701*%
%ADD27C,0.06706*%
%ADD28R,0.06706X0.06706*%
%ADD29R,0.06706X0.06706*%
%ADD30R,0.05524X0.05524*%
%ADD31C,0.05524*%
%ADD32C,0.05800*%
D14*
X0Y0D02*
X228346D01*
X0Y228346D02*
X228346D01*
Y0D02*
Y228346D01*
X0Y0D02*
Y228346D01*
D24*
X20354Y129921D02*
D03*
X30354D02*
D03*
X40354D02*
D03*
X50354D02*
D03*
X95000Y101378D02*
D03*
X105000D02*
D03*
X115000D02*
D03*
X125000D02*
D03*
X135000D02*
D03*
X145000D02*
D03*
X50197Y48740D02*
D03*
Y58740D02*
D03*
Y68740D02*
D03*
Y78740D02*
D03*
Y88740D02*
D03*
Y98740D02*
D03*
X145315Y23622D02*
D03*
X135315D02*
D03*
X125315D02*
D03*
X115315D02*
D03*
X105315D02*
D03*
X95315D02*
D03*
X85315D02*
D03*
X185512Y180709D02*
D03*
X195512D02*
D03*
X205512D02*
D03*
X215512D02*
D03*
X185669Y218504D02*
D03*
X195669D02*
D03*
X205669D02*
D03*
X215669D02*
D03*
X185669Y205906D02*
D03*
X195669D02*
D03*
X205669D02*
D03*
X215669D02*
D03*
X185512Y193307D02*
D03*
X195512D02*
D03*
X205512D02*
D03*
X215512D02*
D03*
D25*
X201944Y141732D02*
D03*
X198844D02*
D03*
X201944Y29528D02*
D03*
X198844D02*
D03*
X203275Y84568D02*
D03*
X200175D02*
D03*
D26*
X145669Y222047D02*
D03*
X177165Y6299D02*
D03*
X6299D02*
D03*
X43307Y222047D02*
D03*
D27*
X23622Y42992D02*
D03*
Y72992D02*
D03*
X41339Y197835D02*
D03*
X51339D02*
D03*
X33622Y22992D02*
D03*
X23622D02*
D03*
X33622Y32992D02*
D03*
X23622D02*
D03*
X33622Y42992D02*
D03*
Y52992D02*
D03*
X23622D02*
D03*
X33622Y62992D02*
D03*
X23622D02*
D03*
X33622Y72992D02*
D03*
Y82992D02*
D03*
X23622D02*
D03*
X33622Y92992D02*
D03*
X23622D02*
D03*
X33622Y102992D02*
D03*
X23622D02*
D03*
X33622Y112992D02*
D03*
D28*
X61339Y197835D02*
D03*
D29*
X23622Y112992D02*
D03*
D30*
X26575Y199016D02*
D03*
D31*
X18701D02*
D03*
D32*
X7874Y169291D02*
D03*
X44000Y22500D02*
D03*
X134843Y110236D02*
D03*
X125000D02*
D03*
X85630Y63976D02*
D03*
Y71850D02*
D03*
X149606Y63976D02*
D03*
X159449Y56102D02*
D03*
X134843Y175197D02*
D03*
X125000Y167323D02*
D03*
X13780Y8858D02*
D03*
X59055Y113189D02*
D03*
X177505Y40860D02*
D03*
X179134Y95472D02*
D03*
X179528Y152165D02*
D03*
X180709Y137402D02*
D03*
X189075Y130709D02*
D03*
X180709Y129921D02*
D03*
X211417Y130709D02*
D03*
X182040Y80237D02*
D03*
X190406Y73544D02*
D03*
X182040Y72757D02*
D03*
X212749Y73544D02*
D03*
X211417Y18504D02*
D03*
X180709Y17717D02*
D03*
X189075Y18504D02*
D03*
X180709Y25197D02*
D03*
M02*
