G04*
G04 #@! TF.GenerationSoftware,Altium Limited,Altium Designer,21.8.1 (53)*
G04*
G04 Layer_Physical_Order=2*
G04 Layer_Color=16711680*
%FSLAX25Y25*%
%MOIN*%
G70*
G04*
G04 #@! TF.SameCoordinates,E4828392-D8D7-4BFE-BCB3-11F9E2D346FD*
G04*
G04*
G04 #@! TF.FilePolarity,Positive*
G04*
G01*
G75*
%ADD16C,0.01000*%
%ADD44C,0.05906*%
%ADD45R,0.05906X0.05906*%
%ADD46C,0.06299*%
%ADD47R,0.06299X0.06299*%
%ADD48R,0.04724X0.04724*%
%ADD49C,0.04724*%
%ADD50R,0.05906X0.05906*%
%ADD51C,0.01968*%
%ADD52C,0.05000*%
G36*
X224410Y3937D02*
X3937D01*
Y224410D01*
X224410D01*
Y3937D01*
D02*
G37*
%LPC*%
G36*
X85858Y215196D02*
X85007Y214968D01*
X84209Y214507D01*
X83557Y213855D01*
X83120Y213098D01*
X83095Y213082D01*
X82928Y212994D01*
X82775Y212930D01*
X82638Y212887D01*
X82517Y212864D01*
X82366Y212854D01*
X82313Y212828D01*
X56415D01*
X56358Y212855D01*
X56251Y212860D01*
X56138Y212874D01*
X56012Y212897D01*
X55479Y213055D01*
X55214Y213320D01*
X54448Y213763D01*
X53650Y213977D01*
Y210630D01*
Y207283D01*
X54448Y207497D01*
X55214Y207940D01*
X55840Y208565D01*
X56283Y209332D01*
X56512Y210187D01*
Y210476D01*
X56551Y210497D01*
X56637Y210528D01*
X56738Y210548D01*
X56898Y210558D01*
X56953Y210585D01*
X82313D01*
X82366Y210558D01*
X82517Y210548D01*
X82638Y210525D01*
X82775Y210483D01*
X82928Y210419D01*
X83095Y210331D01*
X83120Y210315D01*
X83557Y209557D01*
X84209Y208906D01*
X85007Y208445D01*
X85858Y208217D01*
Y211706D01*
Y215196D01*
D02*
G37*
G36*
X86858D02*
Y212206D01*
X89848D01*
X89620Y213057D01*
X89159Y213855D01*
X88507Y214507D01*
X87709Y214968D01*
X86858Y215196D01*
D02*
G37*
G36*
X52650Y213977D02*
X51852Y213763D01*
X51085Y213320D01*
X50459Y212694D01*
X50017Y211928D01*
X49803Y211130D01*
X52650D01*
Y213977D01*
D02*
G37*
G36*
X89848Y211206D02*
X86858D01*
Y208217D01*
X87709Y208445D01*
X88507Y208906D01*
X89159Y209557D01*
X89620Y210355D01*
X89848Y211206D01*
D02*
G37*
G36*
X48238Y213592D02*
X42313D01*
Y207668D01*
X48238D01*
Y213592D01*
D02*
G37*
G36*
X52650Y210130D02*
X49803D01*
X50017Y209332D01*
X50459Y208565D01*
X51085Y207940D01*
X51852Y207497D01*
X52650Y207283D01*
Y210130D01*
D02*
G37*
G36*
X101878Y209198D02*
Y206209D01*
X104867D01*
X104639Y207060D01*
X104179Y207858D01*
X103527Y208509D01*
X102729Y208970D01*
X101878Y209198D01*
D02*
G37*
G36*
X100878D02*
X100027Y208970D01*
X99229Y208509D01*
X98577Y207858D01*
X98116Y207060D01*
X97888Y206209D01*
X100878D01*
Y209198D01*
D02*
G37*
G36*
X104867Y205209D02*
X101878D01*
Y202219D01*
X102729Y202447D01*
X103527Y202908D01*
X104179Y203560D01*
X104639Y204358D01*
X104867Y205209D01*
D02*
G37*
G36*
X100878D02*
X97888D01*
X98116Y204358D01*
X98577Y203560D01*
X99229Y202908D01*
X100027Y202447D01*
X100878Y202219D01*
Y205209D01*
D02*
G37*
G36*
X90866Y209065D02*
X90236D01*
X89654Y208823D01*
X89208Y208378D01*
X88967Y207795D01*
Y207165D01*
X89139Y206750D01*
X89024Y206540D01*
X88840Y206322D01*
X88822Y206309D01*
X88268D01*
X87685Y206068D01*
X87240Y205622D01*
X86998Y205040D01*
Y204409D01*
X87240Y203827D01*
X87685Y203381D01*
X88268Y203140D01*
X88822D01*
X88840Y203127D01*
X89024Y202909D01*
X89139Y202699D01*
X88967Y202284D01*
Y201653D01*
X89208Y201071D01*
X89654Y200625D01*
X90236Y200384D01*
X90866D01*
X91448Y200625D01*
X91894Y201071D01*
X92135Y201653D01*
Y202284D01*
X91963Y202699D01*
X92078Y202910D01*
X92262Y203127D01*
X92281Y203140D01*
X92835D01*
X93417Y203381D01*
X93863Y203827D01*
X94104Y204409D01*
Y205040D01*
X93863Y205622D01*
X93417Y206068D01*
X92835Y206309D01*
X92281D01*
X92262Y206322D01*
X92078Y206540D01*
X91963Y206750D01*
X92135Y207165D01*
Y207795D01*
X91894Y208378D01*
X91448Y208823D01*
X90866Y209065D01*
D02*
G37*
G36*
X175560Y195370D02*
X175539D01*
Y191917D01*
X178992D01*
Y191938D01*
X178723Y192943D01*
X178202Y193844D01*
X177466Y194580D01*
X176565Y195101D01*
X175560Y195370D01*
D02*
G37*
G36*
X174539D02*
X174519D01*
X173514Y195101D01*
X172612Y194580D01*
X171876Y193844D01*
X171356Y192943D01*
X171087Y191938D01*
Y191917D01*
X174539D01*
Y195370D01*
D02*
G37*
G36*
X212214Y194970D02*
X205109D01*
Y187865D01*
X212214D01*
Y194970D01*
D02*
G37*
G36*
X199129D02*
X198194D01*
X197290Y194728D01*
X196480Y194260D01*
X195819Y193599D01*
X195351Y192789D01*
X195109Y191885D01*
Y190950D01*
X195351Y190046D01*
X195819Y189236D01*
X196480Y188574D01*
X197290Y188107D01*
X198194Y187865D01*
X199129D01*
X200033Y188107D01*
X200843Y188574D01*
X201504Y189236D01*
X201972Y190046D01*
X202214Y190950D01*
Y191885D01*
X201972Y192789D01*
X201504Y193599D01*
X200843Y194260D01*
X200033Y194728D01*
X199129Y194970D01*
D02*
G37*
G36*
X188592D02*
X181487D01*
Y187865D01*
X188592D01*
Y194970D01*
D02*
G37*
G36*
X178992Y190917D02*
X175539D01*
Y187465D01*
X175560D01*
X176565Y187734D01*
X177466Y188254D01*
X178202Y188990D01*
X178723Y189892D01*
X178992Y190897D01*
Y190917D01*
D02*
G37*
G36*
X174539D02*
X171087D01*
Y190897D01*
X171356Y189892D01*
X171876Y188990D01*
X172612Y188254D01*
X173514Y187734D01*
X174519Y187465D01*
X174539D01*
Y190917D01*
D02*
G37*
G36*
X175560Y185370D02*
X175539D01*
Y181917D01*
X178992D01*
Y181938D01*
X178723Y182943D01*
X178202Y183844D01*
X177466Y184580D01*
X176565Y185101D01*
X175560Y185370D01*
D02*
G37*
G36*
X174539D02*
X174519D01*
X173514Y185101D01*
X172612Y184580D01*
X171876Y183844D01*
X171356Y182943D01*
X171087Y181938D01*
Y181917D01*
X174539D01*
Y185370D01*
D02*
G37*
G36*
X209129Y184970D02*
X208194D01*
X207290Y184728D01*
X206480Y184260D01*
X205819Y183599D01*
X205351Y182789D01*
X205109Y181885D01*
Y180950D01*
X205351Y180046D01*
X205819Y179236D01*
X206480Y178574D01*
X207290Y178107D01*
X208194Y177865D01*
X209129D01*
X210033Y178107D01*
X210843Y178574D01*
X211504Y179236D01*
X211972Y180046D01*
X212214Y180950D01*
Y181885D01*
X211972Y182789D01*
X211504Y183599D01*
X210843Y184260D01*
X210033Y184728D01*
X209129Y184970D01*
D02*
G37*
G36*
X199129D02*
X198194D01*
X197290Y184728D01*
X196480Y184260D01*
X195819Y183599D01*
X195351Y182789D01*
X195109Y181885D01*
Y180950D01*
X195351Y180046D01*
X195819Y179236D01*
X196480Y178574D01*
X197290Y178107D01*
X198194Y177865D01*
X199129D01*
X200033Y178107D01*
X200843Y178574D01*
X201504Y179236D01*
X201972Y180046D01*
X202214Y180950D01*
Y181885D01*
X201972Y182789D01*
X201504Y183599D01*
X200843Y184260D01*
X200033Y184728D01*
X199129Y184970D01*
D02*
G37*
G36*
X185507D02*
X184572D01*
X183668Y184728D01*
X182858Y184260D01*
X182196Y183599D01*
X181729Y182789D01*
X181487Y181885D01*
Y180950D01*
X181729Y180046D01*
X182196Y179236D01*
X182858Y178574D01*
X183668Y178107D01*
X184572Y177865D01*
X185507D01*
X186411Y178107D01*
X187221Y178574D01*
X187882Y179236D01*
X188350Y180046D01*
X188592Y180950D01*
Y181885D01*
X188350Y182789D01*
X187882Y183599D01*
X187221Y184260D01*
X186411Y184728D01*
X185507Y184970D01*
D02*
G37*
G36*
X178992Y180917D02*
X175539D01*
Y177465D01*
X175560D01*
X176565Y177734D01*
X177466Y178254D01*
X178202Y178990D01*
X178723Y179892D01*
X178992Y180897D01*
Y180917D01*
D02*
G37*
G36*
X174539D02*
X171087D01*
Y180897D01*
X171356Y179892D01*
X171876Y178990D01*
X172612Y178254D01*
X173514Y177734D01*
X174519Y177465D01*
X174539D01*
Y180917D01*
D02*
G37*
G36*
X175560Y175370D02*
X175539D01*
Y171917D01*
X178992D01*
Y171938D01*
X178723Y172943D01*
X178202Y173844D01*
X177466Y174580D01*
X176565Y175101D01*
X175560Y175370D01*
D02*
G37*
G36*
X174539D02*
X174519D01*
X173514Y175101D01*
X172612Y174580D01*
X171876Y173844D01*
X171356Y172943D01*
X171087Y171938D01*
Y171917D01*
X174539D01*
Y175370D01*
D02*
G37*
G36*
X209129Y174970D02*
X208194D01*
X207290Y174728D01*
X206480Y174260D01*
X205819Y173599D01*
X205351Y172789D01*
X205109Y171885D01*
Y170950D01*
X205351Y170046D01*
X205819Y169236D01*
X206480Y168574D01*
X207290Y168107D01*
X208194Y167865D01*
X209129D01*
X210033Y168107D01*
X210843Y168574D01*
X211504Y169236D01*
X211972Y170046D01*
X212214Y170950D01*
Y171885D01*
X211972Y172789D01*
X211504Y173599D01*
X210843Y174260D01*
X210033Y174728D01*
X209129Y174970D01*
D02*
G37*
G36*
X199129D02*
X198194D01*
X197290Y174728D01*
X196480Y174260D01*
X195819Y173599D01*
X195351Y172789D01*
X195109Y171885D01*
Y170950D01*
X195351Y170046D01*
X195819Y169236D01*
X196480Y168574D01*
X197290Y168107D01*
X198194Y167865D01*
X199129D01*
X200033Y168107D01*
X200843Y168574D01*
X201504Y169236D01*
X201972Y170046D01*
X202214Y170950D01*
Y171885D01*
X201972Y172789D01*
X201504Y173599D01*
X200843Y174260D01*
X200033Y174728D01*
X199129Y174970D01*
D02*
G37*
G36*
X185507D02*
X184572D01*
X183668Y174728D01*
X182858Y174260D01*
X182196Y173599D01*
X181729Y172789D01*
X181487Y171885D01*
Y170950D01*
X181729Y170046D01*
X182196Y169236D01*
X182858Y168574D01*
X183668Y168107D01*
X183962Y168028D01*
X183896Y167528D01*
X177208D01*
X177074Y168028D01*
X177466Y168254D01*
X178202Y168990D01*
X178723Y169892D01*
X178992Y170897D01*
Y170917D01*
X175039D01*
X171087D01*
Y170897D01*
X171356Y169892D01*
X171876Y168990D01*
X172612Y168254D01*
X173004Y168028D01*
X172871Y167528D01*
X111879D01*
X111450Y167443D01*
X111086Y167199D01*
X111086Y167199D01*
X109286Y165399D01*
X109043Y165035D01*
X108957Y164606D01*
X108957Y164606D01*
Y115018D01*
X108931Y114966D01*
X108919Y114797D01*
X108888Y114655D01*
X108833Y114489D01*
X108748Y114301D01*
X108631Y114093D01*
X108483Y113867D01*
X108306Y113630D01*
X107833Y113089D01*
X107549Y112801D01*
X107502Y112683D01*
X107236Y112418D01*
X106768Y111608D01*
X106526Y110704D01*
Y109769D01*
X106768Y108865D01*
X107236Y108055D01*
X107502Y107789D01*
X107549Y107672D01*
X107833Y107384D01*
X108306Y106842D01*
X108483Y106606D01*
X108631Y106379D01*
X108748Y106171D01*
X108833Y105983D01*
X108888Y105818D01*
X108919Y105675D01*
X108931Y105507D01*
X108957Y105455D01*
Y79862D01*
X107892Y78796D01*
X45236D01*
X45044Y79258D01*
X47814Y82028D01*
X52305D01*
X52357Y82002D01*
X52526Y81990D01*
X52668Y81959D01*
X52834Y81904D01*
X53022Y81819D01*
X53230Y81702D01*
X53456Y81554D01*
X53693Y81377D01*
X54234Y80904D01*
X54522Y80620D01*
X54639Y80573D01*
X54905Y80307D01*
X55715Y79839D01*
X56619Y79597D01*
X57554D01*
X58458Y79839D01*
X59268Y80307D01*
X59930Y80968D01*
X60397Y81778D01*
X60639Y82682D01*
Y83617D01*
X60397Y84521D01*
X59930Y85331D01*
X59268Y85993D01*
X58458Y86460D01*
X57554Y86702D01*
X56619D01*
X55715Y86460D01*
X54905Y85993D01*
X54639Y85727D01*
X54522Y85679D01*
X54234Y85395D01*
X53693Y84923D01*
X53456Y84746D01*
X53230Y84597D01*
X53022Y84481D01*
X52834Y84396D01*
X52668Y84340D01*
X52526Y84310D01*
X52357Y84297D01*
X52305Y84271D01*
X47350D01*
X46920Y84186D01*
X46557Y83943D01*
X46557Y83943D01*
X43010Y80396D01*
X36087D01*
X35921Y80897D01*
X36465Y81441D01*
X36933Y82251D01*
X37175Y83154D01*
Y84090D01*
X36933Y84993D01*
X36465Y85804D01*
X35803Y86465D01*
X34993Y86933D01*
X34090Y87175D01*
X33154D01*
X32251Y86933D01*
X31441Y86465D01*
X30779Y85804D01*
X30312Y84993D01*
X30069Y84090D01*
Y83154D01*
X30312Y82251D01*
X30779Y81441D01*
X30424Y81090D01*
X28664Y82851D01*
X28639Y82915D01*
X28507Y83053D01*
X26882Y85222D01*
X26637Y85593D01*
X26620Y85605D01*
X26615Y85625D01*
X26544Y85667D01*
X26465Y85804D01*
X25804Y86465D01*
X24993Y86933D01*
X24090Y87175D01*
X23154D01*
X22251Y86933D01*
X21441Y86465D01*
X20779Y85804D01*
X20312Y84993D01*
X20069Y84090D01*
Y83154D01*
X20312Y82251D01*
X20779Y81441D01*
X21441Y80779D01*
X22251Y80312D01*
X23154Y80069D01*
X24090D01*
X24993Y80312D01*
X25804Y80779D01*
X25867Y80843D01*
X25932Y80860D01*
X25936Y80867D01*
X25944Y80869D01*
X26164Y81042D01*
X26344Y81157D01*
X26501Y81234D01*
X26634Y81277D01*
X26743Y81294D01*
X26835Y81291D01*
X26923Y81272D01*
X27016Y81232D01*
X27123Y81163D01*
X27274Y81031D01*
X27331Y81011D01*
X29084Y79258D01*
X28892Y78796D01*
X20856D01*
X20856Y78796D01*
X20427Y78711D01*
X20063Y78468D01*
X20063Y78468D01*
X18713Y77118D01*
X18470Y76754D01*
X18385Y76325D01*
X18385Y76325D01*
Y27738D01*
X18385Y27738D01*
X18470Y27309D01*
X18713Y26945D01*
X19448Y26210D01*
X19466Y26155D01*
X19577Y26027D01*
X19656Y25905D01*
X19734Y25748D01*
X19806Y25555D01*
X19871Y25326D01*
X19926Y25061D01*
X19968Y24768D01*
X20017Y24051D01*
X20020Y23647D01*
X20069Y23530D01*
Y23154D01*
X20312Y22251D01*
X20779Y21441D01*
X21441Y20779D01*
X22251Y20312D01*
X23154Y20069D01*
X24090D01*
X24993Y20312D01*
X25804Y20779D01*
X26465Y21441D01*
X26933Y22251D01*
X27175Y23154D01*
Y23646D01*
X27221Y23760D01*
X27216Y24544D01*
X27237Y24865D01*
X27272Y25159D01*
X27320Y25419D01*
X27380Y25644D01*
X27449Y25833D01*
X27524Y25987D01*
X27603Y26109D01*
X27716Y26240D01*
X27734Y26295D01*
X28024Y26585D01*
X30853D01*
X31060Y26085D01*
X30779Y25804D01*
X30312Y24993D01*
X30069Y24090D01*
Y23154D01*
X30312Y22251D01*
X30779Y21441D01*
X31441Y20779D01*
X32251Y20312D01*
X33154Y20069D01*
X34090D01*
X34993Y20312D01*
X35741Y20743D01*
X35793Y20752D01*
X35807Y20772D01*
X35831Y20777D01*
X36382Y21176D01*
X36625Y21327D01*
X36863Y21458D01*
X37092Y21567D01*
X37310Y21653D01*
X37517Y21719D01*
X37681Y21756D01*
X49404Y10034D01*
X49404Y10034D01*
X49768Y9791D01*
X50197Y9705D01*
X181102D01*
X181102Y9705D01*
X181532Y9791D01*
X181895Y10034D01*
X189769Y17908D01*
X189769Y17908D01*
X190013Y18271D01*
X190098Y18701D01*
Y19602D01*
X190126Y19664D01*
X190130Y19834D01*
X190141Y19959D01*
X190157Y20053D01*
X190161Y20069D01*
X192529D01*
Y27175D01*
X185424D01*
Y20069D01*
X187792D01*
X187796Y20053D01*
X187812Y19959D01*
X187823Y19834D01*
X187827Y19664D01*
X187855Y19602D01*
Y19165D01*
X180638Y11948D01*
X50661D01*
X38868Y23742D01*
X38504Y23985D01*
X38236Y24038D01*
X38118Y24097D01*
X37947Y24108D01*
X37828Y24133D01*
X37714Y24174D01*
X37601Y24234D01*
X37485Y24316D01*
X37366Y24424D01*
X37244Y24562D01*
X37120Y24731D01*
X36997Y24933D01*
X36867Y25185D01*
X36846Y25203D01*
X36842Y25230D01*
X36764Y25286D01*
X36465Y25804D01*
X36184Y26085D01*
X36391Y26585D01*
X44438D01*
X44439Y26585D01*
X44868Y26670D01*
X45232Y26913D01*
X48693Y30375D01*
X92055D01*
X96129Y26301D01*
X96147Y26246D01*
X96260Y26115D01*
X96339Y25993D01*
X96414Y25839D01*
X96483Y25649D01*
X96542Y25425D01*
X96590Y25166D01*
X96624Y24880D01*
X96649Y24178D01*
X96638Y23782D01*
X96684Y23661D01*
Y23154D01*
X96926Y22251D01*
X97393Y21441D01*
X98055Y20779D01*
X98865Y20312D01*
X99769Y20069D01*
X100704D01*
X101608Y20312D01*
X102418Y20779D01*
X103079Y21441D01*
X103547Y22251D01*
X103789Y23154D01*
Y24090D01*
X103547Y24993D01*
X103079Y25804D01*
X102418Y26465D01*
X101608Y26933D01*
X100704Y27175D01*
X100449D01*
X100347Y27222D01*
X99933Y27241D01*
X99203Y27314D01*
X98903Y27365D01*
X98633Y27427D01*
X98399Y27497D01*
X98203Y27574D01*
X98045Y27654D01*
X97923Y27733D01*
X97797Y27841D01*
X97742Y27860D01*
X93313Y32289D01*
X92949Y32532D01*
X92520Y32618D01*
X92520Y32618D01*
X48228D01*
X48228Y32618D01*
X47799Y32532D01*
X47435Y32289D01*
X43974Y28828D01*
X27559D01*
X27130Y28743D01*
X26766Y28499D01*
X26766Y28499D01*
X26122Y27856D01*
X26067Y27837D01*
X25942Y27729D01*
X25820Y27649D01*
X25662Y27570D01*
X25465Y27493D01*
X25232Y27423D01*
X24962Y27362D01*
X24663Y27311D01*
X23933Y27240D01*
X23560Y27224D01*
X23193Y27227D01*
X22476Y27276D01*
X22183Y27318D01*
X21918Y27373D01*
X21689Y27438D01*
X21496Y27510D01*
X21339Y27588D01*
X21217Y27667D01*
X21089Y27778D01*
X21034Y27796D01*
X20628Y28203D01*
Y30885D01*
X21128Y31092D01*
X21441Y30779D01*
X22251Y30312D01*
X23154Y30069D01*
X24090D01*
X24993Y30312D01*
X25804Y30779D01*
X26465Y31441D01*
X26535Y31561D01*
X26587Y31587D01*
X26600Y31625D01*
X26634Y31646D01*
X26791Y31873D01*
X26937Y32054D01*
X27082Y32208D01*
X27226Y32336D01*
X27367Y32439D01*
X27506Y32520D01*
X27644Y32580D01*
X27783Y32622D01*
X27925Y32647D01*
X28112Y32658D01*
X28232Y32716D01*
X28504Y32770D01*
X28868Y33013D01*
X29569Y33715D01*
X30069Y33508D01*
Y33154D01*
X30312Y32251D01*
X30779Y31441D01*
X31441Y30779D01*
X32251Y30312D01*
X33154Y30069D01*
X34090D01*
X34993Y30312D01*
X35803Y30779D01*
X36465Y31441D01*
X36933Y32251D01*
X37175Y33154D01*
Y34090D01*
X36933Y34993D01*
X36465Y35803D01*
X36215Y36053D01*
X36422Y36553D01*
X105719D01*
X116062Y26210D01*
X116080Y26155D01*
X116191Y26027D01*
X116270Y25905D01*
X116348Y25748D01*
X116421Y25555D01*
X116486Y25326D01*
X116540Y25061D01*
X116583Y24768D01*
X116631Y24051D01*
X116634Y23647D01*
X116683Y23530D01*
Y23154D01*
X116926Y22251D01*
X117393Y21441D01*
X118055Y20779D01*
X118865Y20312D01*
X119769Y20069D01*
X120704D01*
X121608Y20312D01*
X122418Y20779D01*
X123079Y21441D01*
X123547Y22251D01*
X123789Y23154D01*
Y24090D01*
X123547Y24993D01*
X123079Y25804D01*
X122418Y26465D01*
X121608Y26933D01*
X120704Y27175D01*
X120328D01*
X120212Y27224D01*
X119807Y27227D01*
X119090Y27276D01*
X118798Y27318D01*
X118532Y27373D01*
X118303Y27438D01*
X118110Y27510D01*
X117954Y27588D01*
X117832Y27667D01*
X117703Y27778D01*
X117648Y27796D01*
X106977Y38468D01*
X106613Y38711D01*
X106184Y38796D01*
X106184Y38796D01*
X31943D01*
X31514Y38711D01*
X31150Y38468D01*
X31150Y38468D01*
X27689Y35007D01*
X27587Y35034D01*
X27423Y35097D01*
X27257Y35179D01*
X27087Y35284D01*
X26914Y35411D01*
X26737Y35563D01*
X26559Y35740D01*
X26366Y35956D01*
X26329Y35974D01*
X26311Y36010D01*
X26231Y36038D01*
X25804Y36465D01*
X24993Y36933D01*
X24090Y37175D01*
X23154D01*
X22251Y36933D01*
X21441Y36465D01*
X21128Y36152D01*
X20628Y36359D01*
Y40885D01*
X21128Y41092D01*
X21441Y40779D01*
X22251Y40312D01*
X23154Y40069D01*
X24090D01*
X24993Y40312D01*
X25804Y40779D01*
X26465Y41441D01*
X26933Y42251D01*
X27175Y43154D01*
Y44090D01*
X26933Y44993D01*
X26465Y45803D01*
X25804Y46465D01*
X25363Y46720D01*
X25280Y47344D01*
X26321Y48385D01*
X39456D01*
X39456Y48385D01*
X39886Y48470D01*
X40249Y48713D01*
X48521Y56985D01*
X54824D01*
X54958Y56485D01*
X54660Y56313D01*
X53924Y55577D01*
X53403Y54675D01*
X53134Y53670D01*
Y53650D01*
X57087D01*
X61039D01*
Y53670D01*
X60770Y54675D01*
X60250Y55577D01*
X59514Y56313D01*
X59216Y56485D01*
X59350Y56985D01*
X63956D01*
X63956Y56985D01*
X64385Y57070D01*
X64749Y57313D01*
X72139Y64702D01*
X72195Y64722D01*
X72309Y64821D01*
X72411Y64891D01*
X72538Y64958D01*
X72691Y65020D01*
X72872Y65076D01*
X73079Y65124D01*
X73306Y65160D01*
X73870Y65204D01*
X74188Y65207D01*
X74303Y65256D01*
X74614D01*
X75403Y65468D01*
X76110Y65876D01*
X76687Y66453D01*
X77095Y67160D01*
X77306Y67948D01*
Y68764D01*
X77095Y69553D01*
X76687Y70260D01*
X76110Y70837D01*
X75403Y71245D01*
X74614Y71456D01*
X73798D01*
X73010Y71245D01*
X72303Y70837D01*
X71726Y70260D01*
X71318Y69553D01*
X71106Y68764D01*
Y68460D01*
X71057Y68351D01*
X71038Y67718D01*
X71012Y67464D01*
X70974Y67229D01*
X70926Y67022D01*
X70870Y66841D01*
X70808Y66688D01*
X70741Y66561D01*
X70671Y66459D01*
X70572Y66345D01*
X70552Y66289D01*
X63492Y59228D01*
X58109D01*
X58043Y59728D01*
X58458Y59839D01*
X59268Y60307D01*
X59930Y60968D01*
X60200Y61436D01*
X60224Y61446D01*
X60261Y61536D01*
X60337Y61599D01*
X60394Y61706D01*
X60437Y61766D01*
X60482Y61816D01*
X60532Y61858D01*
X60589Y61895D01*
X60658Y61928D01*
X60743Y61957D01*
X60845Y61979D01*
X60966Y61994D01*
X61131Y62001D01*
X61255Y62058D01*
X61536Y62113D01*
X61899Y62357D01*
X61999Y62457D01*
X61999Y62457D01*
X62243Y62821D01*
X62328Y63250D01*
X62328Y63250D01*
Y72892D01*
X63021Y73585D01*
X140192D01*
X140885Y72892D01*
Y49252D01*
X140858Y49198D01*
X140848Y49048D01*
X140825Y48926D01*
X140783Y48789D01*
X140719Y48637D01*
X140631Y48470D01*
X140517Y48289D01*
X140383Y48103D01*
X140015Y47673D01*
X139793Y47446D01*
X139746Y47330D01*
X139526Y47110D01*
X139118Y46403D01*
X138906Y45614D01*
Y44798D01*
X139118Y44010D01*
X139526Y43303D01*
X140103Y42726D01*
X140810Y42318D01*
X141598Y42106D01*
X142414D01*
X143203Y42318D01*
X143910Y42726D01*
X144487Y43303D01*
X144895Y44010D01*
X145106Y44798D01*
Y45614D01*
X144895Y46403D01*
X144487Y47110D01*
X144272Y47325D01*
X144229Y47436D01*
X143796Y47898D01*
X143634Y48096D01*
X143495Y48289D01*
X143382Y48470D01*
X143294Y48637D01*
X143230Y48789D01*
X143187Y48926D01*
X143164Y49048D01*
X143154Y49198D01*
X143128Y49252D01*
Y73356D01*
X143128Y73356D01*
X143043Y73786D01*
X142799Y74149D01*
X142799Y74149D01*
X141449Y75499D01*
X141086Y75743D01*
X140656Y75828D01*
X140656Y75828D01*
X62556D01*
X62556Y75828D01*
X62127Y75743D01*
X61763Y75499D01*
X61763Y75499D01*
X60854Y74590D01*
X60280Y74724D01*
X59930Y75331D01*
X59268Y75993D01*
X59163Y76053D01*
X59297Y76553D01*
X108356D01*
X108356Y76553D01*
X108785Y76639D01*
X109149Y76882D01*
X110872Y78604D01*
X110872Y78604D01*
X111115Y78968D01*
X111200Y79397D01*
X111200Y79397D01*
Y80771D01*
X111700Y80978D01*
X111803Y80876D01*
X112510Y80468D01*
X113298Y80256D01*
X114114D01*
X114903Y80468D01*
X115610Y80876D01*
X115825Y81091D01*
X115937Y81133D01*
X116398Y81567D01*
X116596Y81728D01*
X116789Y81867D01*
X116970Y81981D01*
X117137Y82069D01*
X117289Y82133D01*
X117426Y82175D01*
X117548Y82198D01*
X117698Y82208D01*
X117752Y82235D01*
X142956D01*
X142956Y82235D01*
X143386Y82320D01*
X143749Y82563D01*
X144999Y83813D01*
X144999Y83813D01*
X145243Y84177D01*
X145328Y84606D01*
X145328Y84606D01*
Y113230D01*
X145932Y113834D01*
X146074Y113837D01*
X146526Y113409D01*
X146526Y113317D01*
Y106684D01*
X153585D01*
Y59902D01*
X153085Y59568D01*
X152874Y59655D01*
X152320D01*
X152302Y59668D01*
X152118Y59886D01*
X152003Y60097D01*
X152175Y60512D01*
Y61142D01*
X151934Y61724D01*
X151488Y62170D01*
X150906Y62411D01*
X150275D01*
X149693Y62170D01*
X149247Y61724D01*
X149006Y61142D01*
Y60512D01*
X149178Y60097D01*
X149064Y59887D01*
X148879Y59668D01*
X148861Y59655D01*
X148307D01*
X147725Y59414D01*
X147279Y58968D01*
X147038Y58386D01*
Y57756D01*
X147279Y57174D01*
X147725Y56728D01*
X148307Y56487D01*
X148861D01*
X148880Y56473D01*
X149063Y56256D01*
X149178Y56045D01*
X149006Y55630D01*
Y55000D01*
X149247Y54418D01*
X149693Y53972D01*
X150275Y53731D01*
X150906D01*
X151488Y53972D01*
X151934Y54418D01*
X152175Y55000D01*
Y55630D01*
X152003Y56045D01*
X152118Y56256D01*
X152301Y56473D01*
X152320Y56487D01*
X152874D01*
X153085Y56574D01*
X153585Y56240D01*
Y27175D01*
X146684D01*
Y20069D01*
X153789D01*
Y22588D01*
X154149Y22829D01*
X155499Y24179D01*
X155499Y24179D01*
X155743Y24543D01*
X155828Y24972D01*
X155828Y24972D01*
Y108886D01*
X155828Y108886D01*
X156015Y109115D01*
X192106D01*
X192106Y109115D01*
X192535Y109200D01*
X192899Y109443D01*
X194499Y111043D01*
X194499Y111043D01*
X194743Y111407D01*
X194828Y111836D01*
X194828Y111836D01*
Y124125D01*
X195328Y124259D01*
X195661Y123682D01*
X196359Y122984D01*
X197214Y122490D01*
X198168Y122235D01*
X199155D01*
X200109Y122490D01*
X200964Y122984D01*
X201662Y123682D01*
X202156Y124537D01*
X202411Y125491D01*
Y126478D01*
X202156Y127432D01*
X201662Y128287D01*
X200964Y128985D01*
X200109Y129478D01*
X199155Y129734D01*
X198168D01*
X197214Y129478D01*
X196359Y128985D01*
X195661Y128287D01*
X195328Y127709D01*
X194828Y127843D01*
Y129142D01*
X195971Y130285D01*
X210856D01*
X210856Y130285D01*
X211285Y130370D01*
X211649Y130613D01*
X213599Y132563D01*
X213599Y132563D01*
X213843Y132927D01*
X213928Y133356D01*
X213928Y133356D01*
Y163556D01*
X213928Y163556D01*
X213843Y163986D01*
X213599Y164349D01*
X213599Y164349D01*
X211649Y166299D01*
X211285Y166542D01*
X210856Y166628D01*
X210856Y166628D01*
X205756D01*
X205756Y166628D01*
X205327Y166542D01*
X204963Y166299D01*
X202813Y164149D01*
X202570Y163786D01*
X202485Y163356D01*
X202485Y163356D01*
Y162807D01*
X201985Y162742D01*
X201972Y162789D01*
X201504Y163599D01*
X200843Y164260D01*
X200033Y164728D01*
X199811Y164787D01*
X199811Y164855D01*
X199757Y164984D01*
X199698Y165280D01*
X199455Y165644D01*
X199454Y165644D01*
X197899Y167199D01*
X197536Y167443D01*
X197106Y167528D01*
X197106Y167528D01*
X186182D01*
X186117Y168028D01*
X186411Y168107D01*
X187221Y168574D01*
X187882Y169236D01*
X188350Y170046D01*
X188592Y170950D01*
Y171885D01*
X188350Y172789D01*
X187882Y173599D01*
X187221Y174260D01*
X186411Y174728D01*
X185507Y174970D01*
D02*
G37*
G36*
X27175Y169379D02*
X20069D01*
Y162274D01*
X27175D01*
Y169379D01*
D02*
G37*
G36*
X24142Y159779D02*
X24122D01*
Y156327D01*
X27575D01*
Y156347D01*
X27305Y157352D01*
X26785Y158254D01*
X26049Y158990D01*
X25148Y159510D01*
X24142Y159779D01*
D02*
G37*
G36*
X23122D02*
X23102D01*
X22096Y159510D01*
X21195Y158990D01*
X20459Y158254D01*
X19939Y157352D01*
X19669Y156347D01*
Y156327D01*
X23122D01*
Y159779D01*
D02*
G37*
G36*
X27575Y155327D02*
X24122D01*
Y151874D01*
X24142D01*
X25148Y152143D01*
X26049Y152664D01*
X26785Y153400D01*
X27305Y154301D01*
X27575Y155306D01*
Y155327D01*
D02*
G37*
G36*
X23122D02*
X19669D01*
Y155306D01*
X19939Y154301D01*
X20459Y153400D01*
X21195Y152664D01*
X22096Y152143D01*
X23102Y151874D01*
X23122D01*
Y155327D01*
D02*
G37*
G36*
X24090Y149379D02*
X23154D01*
X22251Y149137D01*
X21441Y148670D01*
X20779Y148008D01*
X20312Y147198D01*
X20069Y146294D01*
Y145359D01*
X20312Y144455D01*
X20779Y143645D01*
X21441Y142984D01*
X22251Y142516D01*
X23154Y142274D01*
X24090D01*
X24993Y142516D01*
X25804Y142984D01*
X26465Y143645D01*
X26933Y144455D01*
X27175Y145359D01*
Y146294D01*
X26933Y147198D01*
X26465Y148008D01*
X25804Y148670D01*
X24993Y149137D01*
X24090Y149379D01*
D02*
G37*
G36*
Y139379D02*
X23154D01*
X22251Y139137D01*
X21441Y138670D01*
X20779Y138008D01*
X20312Y137198D01*
X20069Y136294D01*
Y135359D01*
X20312Y134455D01*
X20779Y133645D01*
X21441Y132984D01*
X22251Y132516D01*
X23154Y132274D01*
X24090D01*
X24993Y132516D01*
X25804Y132984D01*
X26465Y133645D01*
X26933Y134455D01*
X27175Y135359D01*
Y136294D01*
X26933Y137198D01*
X26465Y138008D01*
X25804Y138670D01*
X24993Y139137D01*
X24090Y139379D01*
D02*
G37*
G36*
X209155Y129734D02*
X208168D01*
X207214Y129478D01*
X206359Y128985D01*
X205661Y128287D01*
X205167Y127432D01*
X204912Y126478D01*
Y125491D01*
X205167Y124537D01*
X205661Y123682D01*
X206359Y122984D01*
X207214Y122490D01*
X208168Y122235D01*
X209155D01*
X210109Y122490D01*
X210964Y122984D01*
X211662Y123682D01*
X212156Y124537D01*
X212411Y125491D01*
Y126478D01*
X212156Y127432D01*
X211662Y128287D01*
X210964Y128985D01*
X210109Y129478D01*
X209155Y129734D01*
D02*
G37*
G36*
X27175Y117175D02*
X20069D01*
Y110069D01*
X27175D01*
Y117175D01*
D02*
G37*
G36*
X100546Y113789D02*
X99611D01*
X98707Y113547D01*
X97897Y113079D01*
X97236Y112418D01*
X96768Y111608D01*
X96526Y110704D01*
Y109769D01*
X96768Y108865D01*
X97236Y108055D01*
X97897Y107393D01*
X98707Y106926D01*
X99611Y106684D01*
X100546D01*
X101450Y106926D01*
X102260Y107393D01*
X102922Y108055D01*
X103389Y108865D01*
X103631Y109769D01*
Y110704D01*
X103389Y111608D01*
X102922Y112418D01*
X102260Y113079D01*
X101450Y113547D01*
X100546Y113789D01*
D02*
G37*
G36*
X34090Y117175D02*
X33154D01*
X32251Y116933D01*
X31441Y116465D01*
X30779Y115804D01*
X30312Y114993D01*
X30069Y114090D01*
Y113154D01*
X30312Y112251D01*
X30779Y111441D01*
X31441Y110779D01*
X32251Y110311D01*
X33154Y110069D01*
X34090D01*
X34993Y110311D01*
X35803Y110779D01*
X36069Y111045D01*
X36187Y111092D01*
X36475Y111377D01*
X37016Y111849D01*
X37253Y112026D01*
X37479Y112175D01*
X37687Y112291D01*
X37875Y112376D01*
X38041Y112432D01*
X38183Y112462D01*
X38352Y112474D01*
X38404Y112501D01*
X55205D01*
X60503Y107202D01*
X60296Y106702D01*
X53534D01*
Y104333D01*
X53526Y104330D01*
X53429Y104314D01*
X53302Y104303D01*
X53129Y104299D01*
X53067Y104271D01*
X47350D01*
X47350Y104271D01*
X46920Y104186D01*
X46557Y103943D01*
X46557Y103943D01*
X42842Y100228D01*
X36525D01*
X36318Y100728D01*
X36785Y101195D01*
X37306Y102096D01*
X37575Y103102D01*
Y103122D01*
X33622D01*
X29669D01*
Y103102D01*
X29870Y102351D01*
X29422Y102092D01*
X28664Y102851D01*
X28639Y102915D01*
X28507Y103053D01*
X26882Y105222D01*
X26637Y105593D01*
X26620Y105605D01*
X26615Y105625D01*
X26544Y105667D01*
X26465Y105804D01*
X25804Y106465D01*
X24993Y106933D01*
X24090Y107175D01*
X23154D01*
X22251Y106933D01*
X21441Y106465D01*
X20779Y105804D01*
X20312Y104993D01*
X20069Y104090D01*
Y103154D01*
X20312Y102251D01*
X20779Y101441D01*
X21441Y100779D01*
X22251Y100312D01*
X23154Y100069D01*
X24090D01*
X24993Y100312D01*
X25804Y100779D01*
X25867Y100843D01*
X25932Y100860D01*
X25936Y100867D01*
X25944Y100869D01*
X26164Y101042D01*
X26344Y101157D01*
X26501Y101234D01*
X26634Y101277D01*
X26743Y101294D01*
X26835Y101291D01*
X26923Y101272D01*
X27016Y101232D01*
X27123Y101163D01*
X27274Y101031D01*
X27331Y101011D01*
X30029Y98313D01*
X30029Y98313D01*
X30393Y98070D01*
X30822Y97985D01*
X30822Y97985D01*
X43306D01*
X43306Y97985D01*
X43736Y98070D01*
X44099Y98313D01*
X47814Y102028D01*
X53067D01*
X53129Y102000D01*
X53302Y101996D01*
X53429Y101985D01*
X53526Y101969D01*
X53534Y101967D01*
Y99597D01*
X60639D01*
Y106359D01*
X61139Y106566D01*
X72134Y95572D01*
X72153Y95515D01*
X72252Y95401D01*
X72322Y95299D01*
X72389Y95172D01*
X72451Y95019D01*
X72507Y94839D01*
X72555Y94631D01*
X72591Y94404D01*
X72635Y93840D01*
X72638Y93523D01*
X72687Y93407D01*
Y93096D01*
X72899Y92307D01*
X73307Y91601D01*
X73884Y91023D01*
X74591Y90615D01*
X75379Y90404D01*
X76196D01*
X76984Y90615D01*
X77691Y91023D01*
X77906Y91239D01*
X78018Y91281D01*
X78479Y91715D01*
X78677Y91876D01*
X78870Y92015D01*
X79051Y92128D01*
X79218Y92216D01*
X79370Y92281D01*
X79507Y92323D01*
X79629Y92346D01*
X79779Y92356D01*
X79833Y92382D01*
X91427D01*
X91480Y92356D01*
X91631Y92346D01*
X91753Y92323D01*
X91890Y92280D01*
X92042Y92216D01*
X92209Y92128D01*
X92390Y92015D01*
X92576Y91881D01*
X93006Y91512D01*
X93232Y91290D01*
X93349Y91243D01*
X93569Y91023D01*
X94276Y90615D01*
X95064Y90404D01*
X95881D01*
X96669Y90615D01*
X97376Y91023D01*
X97953Y91601D01*
X98361Y92307D01*
X98572Y93096D01*
Y93912D01*
X98361Y94700D01*
X97953Y95407D01*
X97376Y95985D01*
X96669Y96393D01*
X95881Y96604D01*
X95064D01*
X94276Y96393D01*
X93569Y95985D01*
X93354Y95769D01*
X93242Y95727D01*
X92781Y95293D01*
X92582Y95132D01*
X92390Y94993D01*
X92209Y94880D01*
X92042Y94792D01*
X91890Y94727D01*
X91753Y94685D01*
X91631Y94662D01*
X91480Y94652D01*
X91427Y94626D01*
X79833D01*
X79779Y94652D01*
X79629Y94662D01*
X79507Y94685D01*
X79370Y94727D01*
X79218Y94792D01*
X79051Y94880D01*
X78870Y94993D01*
X78684Y95127D01*
X78254Y95496D01*
X78027Y95718D01*
X77911Y95765D01*
X77691Y95985D01*
X76984Y96393D01*
X76196Y96604D01*
X75891D01*
X75782Y96653D01*
X75149Y96672D01*
X74895Y96699D01*
X74660Y96737D01*
X74453Y96784D01*
X74272Y96840D01*
X74119Y96903D01*
X73992Y96969D01*
X73890Y97039D01*
X73776Y97139D01*
X73720Y97158D01*
X56462Y114415D01*
X56098Y114658D01*
X55669Y114744D01*
X55669Y114744D01*
X38404D01*
X38352Y114770D01*
X38183Y114782D01*
X38041Y114812D01*
X37875Y114868D01*
X37687Y114953D01*
X37479Y115069D01*
X37253Y115218D01*
X37016Y115395D01*
X36475Y115868D01*
X36187Y116152D01*
X36069Y116199D01*
X35803Y116465D01*
X34993Y116933D01*
X34090Y117175D01*
D02*
G37*
G36*
X34143Y107575D02*
X34122D01*
Y104122D01*
X37575D01*
Y104142D01*
X37306Y105148D01*
X36785Y106049D01*
X36049Y106785D01*
X35148Y107306D01*
X34143Y107575D01*
D02*
G37*
G36*
X33122D02*
X33102D01*
X32096Y107306D01*
X31195Y106785D01*
X30459Y106049D01*
X29939Y105148D01*
X29669Y104142D01*
Y104122D01*
X33122D01*
Y107575D01*
D02*
G37*
G36*
X34090Y97175D02*
X33154D01*
X32251Y96933D01*
X31441Y96465D01*
X30779Y95803D01*
X30312Y94993D01*
X30069Y94090D01*
Y93154D01*
X30312Y92251D01*
X30779Y91441D01*
X30424Y91090D01*
X28664Y92851D01*
X28639Y92915D01*
X28507Y93053D01*
X26882Y95222D01*
X26637Y95593D01*
X26620Y95605D01*
X26615Y95625D01*
X26544Y95667D01*
X26465Y95803D01*
X25804Y96465D01*
X24993Y96933D01*
X24090Y97175D01*
X23154D01*
X22251Y96933D01*
X21441Y96465D01*
X20779Y95803D01*
X20312Y94993D01*
X20069Y94090D01*
Y93154D01*
X20312Y92251D01*
X20779Y91441D01*
X21441Y90779D01*
X22251Y90311D01*
X23154Y90069D01*
X24090D01*
X24993Y90311D01*
X25804Y90779D01*
X25867Y90843D01*
X25932Y90860D01*
X25936Y90867D01*
X25944Y90869D01*
X26164Y91042D01*
X26344Y91157D01*
X26501Y91234D01*
X26634Y91277D01*
X26743Y91294D01*
X26835Y91291D01*
X26923Y91272D01*
X27016Y91232D01*
X27123Y91163D01*
X27274Y91031D01*
X27331Y91011D01*
X30029Y88313D01*
X30029Y88313D01*
X30393Y88070D01*
X30822Y87985D01*
X30822Y87985D01*
X43306D01*
X43306Y87985D01*
X43736Y88070D01*
X44099Y88313D01*
X47814Y92028D01*
X52305D01*
X52357Y92002D01*
X52526Y91990D01*
X52668Y91960D01*
X52834Y91904D01*
X53022Y91819D01*
X53230Y91702D01*
X53456Y91554D01*
X53693Y91377D01*
X54234Y90904D01*
X54522Y90620D01*
X54639Y90573D01*
X54905Y90307D01*
X55715Y89839D01*
X56619Y89597D01*
X57554D01*
X58458Y89839D01*
X59268Y90307D01*
X59930Y90968D01*
X60397Y91778D01*
X60639Y92682D01*
Y93617D01*
X60397Y94521D01*
X59930Y95331D01*
X59268Y95993D01*
X58458Y96460D01*
X57554Y96702D01*
X56619D01*
X55715Y96460D01*
X54905Y95993D01*
X54639Y95727D01*
X54522Y95679D01*
X54234Y95395D01*
X53693Y94923D01*
X53456Y94746D01*
X53230Y94597D01*
X53022Y94481D01*
X52834Y94396D01*
X52668Y94340D01*
X52526Y94310D01*
X52357Y94297D01*
X52305Y94271D01*
X47350D01*
X47350Y94271D01*
X46920Y94186D01*
X46557Y93943D01*
X46557Y93943D01*
X42842Y90228D01*
X35849D01*
X35715Y90728D01*
X35803Y90779D01*
X36465Y91441D01*
X36933Y92251D01*
X37175Y93154D01*
Y94090D01*
X36933Y94993D01*
X36465Y95803D01*
X35803Y96465D01*
X34993Y96933D01*
X34090Y97175D01*
D02*
G37*
G36*
X209470Y88395D02*
X208483D01*
X207529Y88140D01*
X206674Y87646D01*
X205976Y86948D01*
X205482Y86093D01*
X205227Y85139D01*
Y84152D01*
X205482Y83198D01*
X205976Y82343D01*
X206674Y81645D01*
X207529Y81152D01*
X208483Y80896D01*
X209470D01*
X210424Y81152D01*
X211279Y81645D01*
X211977Y82343D01*
X212470Y83198D01*
X212726Y84152D01*
Y85139D01*
X212470Y86093D01*
X211977Y86948D01*
X211279Y87646D01*
X210424Y88140D01*
X209470Y88395D01*
D02*
G37*
G36*
X199470D02*
X198483D01*
X197529Y88140D01*
X196674Y87646D01*
X195976Y86948D01*
X195482Y86093D01*
X195227Y85139D01*
Y84152D01*
X195482Y83198D01*
X195976Y82343D01*
X196674Y81645D01*
X197529Y81152D01*
X198483Y80896D01*
X199470D01*
X200424Y81152D01*
X201279Y81645D01*
X201977Y82343D01*
X202470Y83198D01*
X202726Y84152D01*
Y85139D01*
X202470Y86093D01*
X201977Y86948D01*
X201279Y87646D01*
X200424Y88140D01*
X199470Y88395D01*
D02*
G37*
G36*
X192726D02*
X185227D01*
Y80896D01*
X192726D01*
Y88395D01*
D02*
G37*
G36*
X129437Y71403D02*
Y68413D01*
X132427D01*
X132199Y69264D01*
X131738Y70062D01*
X131086Y70714D01*
X130288Y71175D01*
X129437Y71403D01*
D02*
G37*
G36*
X128437D02*
X127586Y71175D01*
X126788Y70714D01*
X126136Y70062D01*
X125675Y69264D01*
X125447Y68413D01*
X128437D01*
Y71403D01*
D02*
G37*
G36*
X132427Y67413D02*
X129437D01*
Y64424D01*
X130288Y64652D01*
X131086Y65113D01*
X131738Y65764D01*
X132199Y66562D01*
X132427Y67413D01*
D02*
G37*
G36*
X128437D02*
X125447D01*
X125675Y66562D01*
X126136Y65764D01*
X126788Y65113D01*
X127586Y64652D01*
X128437Y64424D01*
Y67413D01*
D02*
G37*
G36*
X171760Y61560D02*
Y58571D01*
X174749D01*
X174521Y59422D01*
X174060Y60220D01*
X173409Y60872D01*
X172611Y61332D01*
X171760Y61560D01*
D02*
G37*
G36*
X170760D02*
X169909Y61332D01*
X169111Y60872D01*
X168459Y60220D01*
X167998Y59422D01*
X167770Y58571D01*
X170760D01*
Y61560D01*
D02*
G37*
G36*
X174749Y57571D02*
X171760D01*
Y54581D01*
X172611Y54809D01*
X173409Y55270D01*
X174060Y55922D01*
X174521Y56720D01*
X174749Y57571D01*
D02*
G37*
G36*
X170760D02*
X167770D01*
X167998Y56720D01*
X168459Y55922D01*
X169111Y55270D01*
X169909Y54809D01*
X170760Y54581D01*
Y57571D01*
D02*
G37*
G36*
X61039Y52650D02*
X57587D01*
Y49197D01*
X57607D01*
X58612Y49466D01*
X59514Y49987D01*
X60250Y50723D01*
X60770Y51624D01*
X61039Y52629D01*
Y52650D01*
D02*
G37*
G36*
X56587D02*
X53134D01*
Y52629D01*
X53403Y51624D01*
X53924Y50723D01*
X54660Y49987D01*
X55561Y49466D01*
X56566Y49197D01*
X56587D01*
Y52650D01*
D02*
G37*
G36*
X118306Y45526D02*
Y42536D01*
X121296D01*
X121068Y43387D01*
X120607Y44185D01*
X119955Y44837D01*
X119157Y45298D01*
X118306Y45526D01*
D02*
G37*
G36*
X117306D02*
X116455Y45298D01*
X115657Y44837D01*
X115006Y44185D01*
X114545Y43387D01*
X114317Y42536D01*
X117306D01*
Y45526D01*
D02*
G37*
G36*
X34090Y47175D02*
X33154D01*
X32251Y46933D01*
X31441Y46465D01*
X30779Y45803D01*
X30312Y44993D01*
X30069Y44090D01*
Y43154D01*
X30312Y42251D01*
X30779Y41441D01*
X31441Y40779D01*
X32251Y40312D01*
X33154Y40069D01*
X34090D01*
X34993Y40312D01*
X35803Y40779D01*
X36465Y41441D01*
X36933Y42251D01*
X37175Y43154D01*
Y44090D01*
X36933Y44993D01*
X36465Y45803D01*
X35803Y46465D01*
X34993Y46933D01*
X34090Y47175D01*
D02*
G37*
G36*
X119831Y41536D02*
X118306D01*
Y40011D01*
X119831Y41536D01*
D02*
G37*
G36*
X121296D02*
X120320D01*
X120357Y41059D01*
X120401Y40785D01*
X120459Y40533D01*
X120530Y40302D01*
X120616Y40093D01*
X120714Y39906D01*
X120827Y39741D01*
X120953Y39597D01*
X120246Y38890D01*
X120102Y39016D01*
X119936Y39128D01*
X119749Y39227D01*
X119541Y39312D01*
X119310Y39384D01*
X119058Y39441D01*
X118784Y39486D01*
X118488Y39516D01*
X118306Y39522D01*
Y38547D01*
X119112Y38763D01*
X119141Y38756D01*
X119321Y38700D01*
X119475Y38638D01*
X119601Y38571D01*
X119704Y38501D01*
X119817Y38402D01*
X119874Y38383D01*
X129115Y29142D01*
Y28404D01*
X129089Y28352D01*
X129076Y28183D01*
X129046Y28041D01*
X128990Y27875D01*
X128905Y27687D01*
X128789Y27479D01*
X128653Y27272D01*
X127809Y26785D01*
X127073Y26049D01*
X126553Y25148D01*
X126284Y24142D01*
Y24122D01*
X130236D01*
X134189D01*
Y24142D01*
X133920Y25148D01*
X133399Y26049D01*
X132663Y26785D01*
X131820Y27272D01*
X131684Y27479D01*
X131567Y27687D01*
X131482Y27875D01*
X131427Y28041D01*
X131396Y28183D01*
X131384Y28352D01*
X131358Y28404D01*
Y29606D01*
X131272Y30035D01*
X131029Y30399D01*
X131029Y30399D01*
X121460Y39969D01*
X121441Y40025D01*
X121341Y40139D01*
X121272Y40241D01*
X121205Y40368D01*
X121142Y40521D01*
X121087Y40701D01*
X121080Y40731D01*
X121296Y41536D01*
D02*
G37*
G36*
X117306D02*
X114317D01*
X114545Y40685D01*
X115006Y39887D01*
X115657Y39236D01*
X116455Y38775D01*
X117306Y38547D01*
Y41536D01*
D02*
G37*
G36*
X209497Y27575D02*
X209476D01*
Y24122D01*
X212929D01*
Y24142D01*
X212660Y25148D01*
X212139Y26049D01*
X211403Y26785D01*
X210502Y27305D01*
X209497Y27575D01*
D02*
G37*
G36*
X208476D02*
X208456D01*
X207451Y27305D01*
X206549Y26785D01*
X205813Y26049D01*
X205293Y25148D01*
X205024Y24142D01*
Y24122D01*
X208476D01*
Y27575D01*
D02*
G37*
G36*
X199444Y27175D02*
X198509D01*
X197605Y26933D01*
X196795Y26465D01*
X196133Y25804D01*
X195666Y24993D01*
X195424Y24090D01*
Y23154D01*
X195666Y22251D01*
X196133Y21441D01*
X196795Y20779D01*
X197605Y20312D01*
X198509Y20069D01*
X199444D01*
X200348Y20312D01*
X201158Y20779D01*
X201819Y21441D01*
X202287Y22251D01*
X202529Y23154D01*
Y24090D01*
X202287Y24993D01*
X201819Y25804D01*
X201158Y26465D01*
X200348Y26933D01*
X199444Y27175D01*
D02*
G37*
G36*
X140704D02*
X139769D01*
X138865Y26933D01*
X138055Y26465D01*
X137393Y25804D01*
X136926Y24993D01*
X136683Y24090D01*
Y23154D01*
X136926Y22251D01*
X137393Y21441D01*
X138055Y20779D01*
X138865Y20312D01*
X139769Y20069D01*
X140704D01*
X141608Y20312D01*
X142418Y20779D01*
X143079Y21441D01*
X143547Y22251D01*
X143789Y23154D01*
Y24090D01*
X143547Y24993D01*
X143079Y25804D01*
X142418Y26465D01*
X141608Y26933D01*
X140704Y27175D01*
D02*
G37*
G36*
X110704D02*
X109769D01*
X108865Y26933D01*
X108055Y26465D01*
X107393Y25804D01*
X106926Y24993D01*
X106684Y24090D01*
Y23154D01*
X106926Y22251D01*
X107393Y21441D01*
X108055Y20779D01*
X108865Y20312D01*
X109769Y20069D01*
X110704D01*
X111608Y20312D01*
X112418Y20779D01*
X113079Y21441D01*
X113547Y22251D01*
X113789Y23154D01*
Y24090D01*
X113547Y24993D01*
X113079Y25804D01*
X112418Y26465D01*
X111608Y26933D01*
X110704Y27175D01*
D02*
G37*
G36*
X90704D02*
X89769D01*
X88865Y26933D01*
X88055Y26465D01*
X87393Y25804D01*
X86926Y24993D01*
X86684Y24090D01*
Y23154D01*
X86926Y22251D01*
X87393Y21441D01*
X88055Y20779D01*
X88865Y20312D01*
X89769Y20069D01*
X90704D01*
X91608Y20312D01*
X92418Y20779D01*
X93079Y21441D01*
X93547Y22251D01*
X93789Y23154D01*
Y24090D01*
X93547Y24993D01*
X93079Y25804D01*
X92418Y26465D01*
X91608Y26933D01*
X90704Y27175D01*
D02*
G37*
G36*
X212929Y23122D02*
X209476D01*
Y19669D01*
X209497D01*
X210502Y19939D01*
X211403Y20459D01*
X212139Y21195D01*
X212660Y22096D01*
X212929Y23102D01*
Y23122D01*
D02*
G37*
G36*
X208476D02*
X205024D01*
Y23102D01*
X205293Y22096D01*
X205813Y21195D01*
X206549Y20459D01*
X207451Y19939D01*
X208456Y19669D01*
X208476D01*
Y23122D01*
D02*
G37*
G36*
X134189D02*
X130736D01*
Y19669D01*
X130757D01*
X131762Y19939D01*
X132663Y20459D01*
X133399Y21195D01*
X133920Y22096D01*
X134189Y23102D01*
Y23122D01*
D02*
G37*
G36*
X129736D02*
X126284D01*
Y23102D01*
X126553Y22096D01*
X127073Y21195D01*
X127809Y20459D01*
X128711Y19939D01*
X129716Y19669D01*
X129736D01*
Y23122D01*
D02*
G37*
%LPD*%
G36*
X84573Y209956D02*
X84331Y210194D01*
X83864Y210594D01*
X83639Y210756D01*
X83419Y210894D01*
X83206Y211006D01*
X82998Y211094D01*
X82796Y211156D01*
X82599Y211194D01*
X82409Y211206D01*
Y212206D01*
X82599Y212219D01*
X82796Y212256D01*
X82998Y212319D01*
X83206Y212406D01*
X83419Y212519D01*
X83639Y212656D01*
X83864Y212819D01*
X84094Y213006D01*
X84573Y213456D01*
Y209956D01*
D02*
G37*
G36*
X54299Y212728D02*
X55862Y212264D01*
X56040Y212232D01*
X56195Y212213D01*
X56326Y212206D01*
X56858Y211206D01*
X56654Y211193D01*
X56462Y211155D01*
X56284Y211091D01*
X56119Y211002D01*
X55968Y210886D01*
X55829Y210746D01*
X55703Y210579D01*
X55591Y210387D01*
X55491Y210170D01*
X55405Y209927D01*
X53956Y212850D01*
X54299Y212728D01*
D02*
G37*
G36*
X199162Y164752D02*
X199183Y164408D01*
X199191Y164369D01*
X199201Y164341D01*
X199211Y164324D01*
X199223Y164316D01*
X198100D01*
X198112Y164324D01*
X198122Y164341D01*
X198132Y164369D01*
X198140Y164408D01*
X198146Y164456D01*
X198156Y164583D01*
X198161Y164851D01*
X199162D01*
X199162Y164752D01*
D02*
G37*
G36*
X183880Y164785D02*
X183668Y164728D01*
X182858Y164260D01*
X182196Y163599D01*
X181729Y162789D01*
X181487Y161885D01*
Y160950D01*
X181729Y160046D01*
X182196Y159236D01*
X182858Y158574D01*
X182980Y158504D01*
X182995Y158467D01*
X183052Y158443D01*
X183086Y158391D01*
X183270Y158264D01*
X183411Y158149D01*
X183530Y158031D01*
X183629Y157913D01*
X183709Y157793D01*
X183774Y157670D01*
X183823Y157543D01*
X183859Y157408D01*
X183881Y157263D01*
X183891Y157074D01*
X183948Y156953D01*
X184003Y156677D01*
X184246Y156313D01*
X185496Y155063D01*
X185496Y155063D01*
X185860Y154820D01*
X186289Y154735D01*
X186289Y154735D01*
X202356D01*
X202356Y154735D01*
X202785Y154820D01*
X203149Y155063D01*
X204399Y156313D01*
X204399Y156313D01*
X204643Y156677D01*
X204728Y157106D01*
X204728Y157106D01*
Y160439D01*
X205228Y160505D01*
X205351Y160046D01*
X205819Y159236D01*
X206084Y158970D01*
X206132Y158853D01*
X206416Y158565D01*
X206888Y158023D01*
X207066Y157787D01*
X207214Y157560D01*
X207330Y157352D01*
X207415Y157165D01*
X207471Y156999D01*
X207501Y156857D01*
X207514Y156688D01*
X207540Y156636D01*
Y152571D01*
X204000Y149031D01*
X151280D01*
X151049Y149531D01*
X151411Y150159D01*
X151639Y151010D01*
X144660D01*
X144888Y150159D01*
X145251Y149531D01*
X145020Y149031D01*
X144063D01*
X141064Y152031D01*
X140700Y152274D01*
X140271Y152359D01*
X140271Y152359D01*
X124210D01*
X123781Y152274D01*
X123417Y152031D01*
X123417Y152031D01*
X119286Y147899D01*
X119043Y147536D01*
X118957Y147106D01*
X118957Y147106D01*
Y115018D01*
X118931Y114966D01*
X118919Y114797D01*
X118888Y114655D01*
X118833Y114489D01*
X118748Y114301D01*
X118631Y114093D01*
X118483Y113867D01*
X118306Y113630D01*
X117833Y113089D01*
X117549Y112801D01*
X117502Y112683D01*
X117236Y112418D01*
X116768Y111608D01*
X116526Y110704D01*
Y109769D01*
X116768Y108865D01*
X117236Y108055D01*
X117897Y107393D01*
X118707Y106926D01*
X119611Y106684D01*
X120546D01*
X121450Y106926D01*
X122260Y107393D01*
X122922Y108055D01*
X123389Y108865D01*
X123631Y109769D01*
Y110704D01*
X123389Y111608D01*
X122922Y112418D01*
X122656Y112683D01*
X122608Y112801D01*
X122324Y113089D01*
X121852Y113630D01*
X121675Y113867D01*
X121526Y114093D01*
X121410Y114301D01*
X121325Y114489D01*
X121269Y114655D01*
X121239Y114797D01*
X121226Y114966D01*
X121200Y115018D01*
Y146642D01*
X124675Y150116D01*
X136221D01*
X136412Y149654D01*
X136299Y149541D01*
X135891Y148834D01*
X135679Y148046D01*
Y147230D01*
X135891Y146441D01*
X136299Y145734D01*
X136514Y145519D01*
X136556Y145408D01*
X136990Y144946D01*
X137151Y144748D01*
X137291Y144555D01*
X137404Y144374D01*
X137492Y144207D01*
X137556Y144055D01*
X137598Y143918D01*
X137622Y143797D01*
X137631Y143646D01*
X137658Y143592D01*
Y136811D01*
X137658Y136811D01*
X137743Y136382D01*
X137987Y136018D01*
X147829Y126175D01*
X148193Y125932D01*
X148622Y125847D01*
X148622Y125847D01*
X154419D01*
X154473Y125821D01*
X154623Y125811D01*
X154745Y125787D01*
X154882Y125745D01*
X155034Y125681D01*
X155201Y125593D01*
X155382Y125480D01*
X155568Y125345D01*
X155983Y124990D01*
X155984Y124946D01*
X155780Y124490D01*
X153880D01*
X153880Y124490D01*
X153451Y124405D01*
X153087Y124162D01*
X153087Y124162D01*
X143413Y114488D01*
X143170Y114124D01*
X143085Y113695D01*
X143085Y113694D01*
Y112962D01*
X142585Y112755D01*
X142260Y113079D01*
X141450Y113547D01*
X140546Y113789D01*
X139611D01*
X138707Y113547D01*
X137897Y113079D01*
X137236Y112418D01*
X136768Y111608D01*
X136526Y110704D01*
Y109769D01*
X136768Y108865D01*
X137236Y108055D01*
X137897Y107393D01*
X138707Y106926D01*
X139611Y106684D01*
X140546D01*
X141450Y106926D01*
X142260Y107393D01*
X142585Y107718D01*
X143085Y107511D01*
Y85071D01*
X142492Y84478D01*
X117752D01*
X117698Y84504D01*
X117548Y84514D01*
X117426Y84537D01*
X117289Y84580D01*
X117137Y84644D01*
X116970Y84732D01*
X116789Y84845D01*
X116603Y84980D01*
X116173Y85348D01*
X115946Y85570D01*
X115830Y85617D01*
X115610Y85837D01*
X114903Y86245D01*
X114114Y86456D01*
X113298D01*
X112510Y86245D01*
X111803Y85837D01*
X111700Y85734D01*
X111200Y85941D01*
Y105455D01*
X111226Y105507D01*
X111239Y105675D01*
X111269Y105818D01*
X111325Y105983D01*
X111410Y106171D01*
X111526Y106379D01*
X111675Y106606D01*
X111852Y106842D01*
X112324Y107384D01*
X112608Y107672D01*
X112656Y107789D01*
X112922Y108055D01*
X113389Y108865D01*
X113631Y109769D01*
Y110704D01*
X113389Y111608D01*
X112922Y112418D01*
X112656Y112683D01*
X112608Y112801D01*
X112324Y113089D01*
X111852Y113630D01*
X111675Y113867D01*
X111526Y114093D01*
X111410Y114301D01*
X111325Y114489D01*
X111269Y114655D01*
X111239Y114797D01*
X111226Y114966D01*
X111200Y115018D01*
Y164142D01*
X112343Y165285D01*
X172832D01*
X172966Y164785D01*
X172612Y164580D01*
X171876Y163844D01*
X171356Y162943D01*
X171087Y161938D01*
Y161917D01*
X175039D01*
X178992D01*
Y161938D01*
X178723Y162943D01*
X178202Y163844D01*
X177466Y164580D01*
X177112Y164785D01*
X177246Y165285D01*
X183814D01*
X183880Y164785D01*
D02*
G37*
G36*
X186418Y158783D02*
X186233Y158632D01*
X186071Y158472D01*
X185930Y158303D01*
X185810Y158126D01*
X185713Y157940D01*
X185637Y157745D01*
X185583Y157541D01*
X185550Y157328D01*
X185539Y157106D01*
X184539D01*
X184528Y157328D01*
X184496Y157541D01*
X184442Y157745D01*
X184366Y157940D01*
X184268Y158126D01*
X184149Y158303D01*
X184008Y158472D01*
X183845Y158632D01*
X183661Y158783D01*
X183455Y158926D01*
X186624D01*
X186418Y158783D01*
D02*
G37*
G36*
X196884Y164956D02*
X196811Y164451D01*
X196480Y164260D01*
X195819Y163599D01*
X195351Y162789D01*
X195109Y161885D01*
Y160950D01*
X195351Y160046D01*
X195819Y159236D01*
X196480Y158574D01*
X197290Y158107D01*
X198194Y157865D01*
X199129D01*
X200033Y158107D01*
X200843Y158574D01*
X201504Y159236D01*
X201972Y160046D01*
X201985Y160093D01*
X202485Y160027D01*
Y157571D01*
X201892Y156978D01*
X186754D01*
X186241Y157490D01*
X186255Y157543D01*
X186305Y157670D01*
X186369Y157793D01*
X186450Y157913D01*
X186549Y158031D01*
X186668Y158149D01*
X186809Y158264D01*
X186993Y158391D01*
X187026Y158443D01*
X187083Y158467D01*
X187099Y158504D01*
X187221Y158574D01*
X187882Y159236D01*
X188350Y160046D01*
X188592Y160950D01*
Y161885D01*
X188350Y162789D01*
X187882Y163599D01*
X187221Y164260D01*
X186411Y164728D01*
X186199Y164785D01*
X186264Y165285D01*
X196581D01*
X196884Y164956D01*
D02*
G37*
G36*
X210431Y159006D02*
X209929Y158432D01*
X209726Y158160D01*
X209553Y157897D01*
X209412Y157645D01*
X209302Y157403D01*
X209224Y157170D01*
X209177Y156948D01*
X209161Y156736D01*
X208161D01*
X208146Y156948D01*
X208099Y157170D01*
X208020Y157403D01*
X207911Y157645D01*
X207770Y157897D01*
X207597Y158160D01*
X207394Y158432D01*
X206892Y159006D01*
X206595Y159309D01*
X210728D01*
X210431Y159006D01*
D02*
G37*
G36*
X211221Y158846D02*
X211599Y158759D01*
X211685Y158709D01*
Y133821D01*
X210392Y132528D01*
X195506D01*
X195077Y132442D01*
X194713Y132199D01*
X194713Y132199D01*
X192913Y130399D01*
X192718Y130107D01*
X192411Y129734D01*
X192139Y129734D01*
X184912D01*
Y127167D01*
X184904Y127165D01*
X184807Y127149D01*
X184679Y127138D01*
X184507Y127134D01*
X184445Y127106D01*
X171254D01*
X171254Y127106D01*
X170825Y127021D01*
X170461Y126777D01*
X168174Y124490D01*
X161023D01*
X160832Y124952D01*
X160945Y125065D01*
X161353Y125772D01*
X161565Y126560D01*
Y127377D01*
X161353Y128165D01*
X160945Y128872D01*
X160368Y129449D01*
X159661Y129857D01*
X158873Y130069D01*
X158056D01*
X157268Y129857D01*
X156561Y129449D01*
X156346Y129234D01*
X156234Y129192D01*
X155773Y128758D01*
X155575Y128597D01*
X155382Y128457D01*
X155201Y128344D01*
X155034Y128256D01*
X154882Y128192D01*
X154745Y128150D01*
X154623Y128126D01*
X154473Y128117D01*
X154419Y128090D01*
X149087D01*
X139901Y137276D01*
Y143592D01*
X139928Y143646D01*
X139937Y143797D01*
X139961Y143918D01*
X140003Y144055D01*
X140067Y144207D01*
X140155Y144374D01*
X140269Y144555D01*
X140403Y144741D01*
X140771Y145171D01*
X140993Y145398D01*
X141040Y145514D01*
X141260Y145734D01*
X141668Y146441D01*
X141879Y147230D01*
Y147390D01*
X142341Y147581D01*
X142806Y147117D01*
X142806Y147117D01*
X143170Y146874D01*
X143599Y146788D01*
X143599Y146788D01*
X204465D01*
X204465Y146788D01*
X204894Y146874D01*
X205258Y147117D01*
X209454Y151313D01*
X209455Y151313D01*
X209698Y151677D01*
X209783Y152106D01*
Y156636D01*
X209809Y156688D01*
X209822Y156857D01*
X209852Y156999D01*
X209908Y157165D01*
X209993Y157352D01*
X210109Y157560D01*
X210258Y157787D01*
X210435Y158023D01*
X210907Y158564D01*
X211185Y158846D01*
X211221Y158846D01*
D02*
G37*
G36*
X140292Y145610D02*
X139892Y145143D01*
X139729Y144918D01*
X139592Y144699D01*
X139479Y144485D01*
X139392Y144277D01*
X139330Y144075D01*
X139292Y143879D01*
X139279Y143688D01*
X138279D01*
X138267Y143879D01*
X138230Y144075D01*
X138167Y144277D01*
X138080Y144485D01*
X137967Y144699D01*
X137829Y144918D01*
X137667Y145143D01*
X137479Y145374D01*
X137030Y145852D01*
X140530D01*
X140292Y145610D01*
D02*
G37*
G36*
X156679Y125218D02*
X156437Y125456D01*
X155970Y125856D01*
X155745Y126019D01*
X155526Y126156D01*
X155312Y126268D01*
X155104Y126356D01*
X154902Y126418D01*
X154706Y126456D01*
X154515Y126469D01*
Y127469D01*
X154706Y127481D01*
X154902Y127518D01*
X155104Y127581D01*
X155312Y127668D01*
X155526Y127781D01*
X155745Y127919D01*
X155970Y128081D01*
X156201Y128269D01*
X156679Y128718D01*
Y125218D01*
D02*
G37*
G36*
X185536Y124984D02*
X185526Y125079D01*
X185495Y125164D01*
X185445Y125239D01*
X185374Y125304D01*
X185283Y125359D01*
X185172Y125404D01*
X185040Y125439D01*
X184888Y125464D01*
X184716Y125479D01*
X184524Y125484D01*
Y126484D01*
X184716Y126489D01*
X184888Y126504D01*
X185040Y126529D01*
X185172Y126564D01*
X185283Y126609D01*
X185374Y126664D01*
X185445Y126729D01*
X185495Y126804D01*
X185526Y126889D01*
X185536Y126984D01*
Y124984D01*
D02*
G37*
G36*
X184507Y124835D02*
X184679Y124831D01*
X184807Y124820D01*
X184903Y124804D01*
X184912Y124801D01*
Y122235D01*
X192411D01*
X192585Y121807D01*
Y112301D01*
X191642Y111358D01*
X153631D01*
Y113789D01*
X147021D01*
X146906Y113789D01*
X146478Y114241D01*
X146481Y114383D01*
X154345Y122247D01*
X168638D01*
X168638Y122247D01*
X169067Y122332D01*
X169431Y122575D01*
X171719Y124863D01*
X184445D01*
X184507Y124835D01*
D02*
G37*
G36*
X120594Y114706D02*
X120641Y114483D01*
X120720Y114251D01*
X120829Y114008D01*
X120970Y113756D01*
X121143Y113494D01*
X121346Y113222D01*
X121848Y112647D01*
X122146Y112345D01*
X118012D01*
X118309Y112647D01*
X118811Y113222D01*
X119015Y113494D01*
X119187Y113756D01*
X119328Y114008D01*
X119438Y114251D01*
X119516Y114483D01*
X119563Y114706D01*
X119579Y114918D01*
X120579D01*
X120594Y114706D01*
D02*
G37*
G36*
X110594D02*
X110641Y114483D01*
X110720Y114251D01*
X110829Y114008D01*
X110970Y113756D01*
X111143Y113494D01*
X111346Y113222D01*
X111848Y112647D01*
X112146Y112345D01*
X108012D01*
X108309Y112647D01*
X108811Y113222D01*
X109015Y113494D01*
X109187Y113756D01*
X109328Y114008D01*
X109438Y114251D01*
X109516Y114483D01*
X109563Y114706D01*
X109579Y114918D01*
X110579D01*
X110594Y114706D01*
D02*
G37*
G36*
X155563Y109736D02*
X155378Y109731D01*
X155223Y109716D01*
X155098Y109692D01*
X155003Y109657D01*
X154938Y109612D01*
X154902Y109558D01*
X154897Y109493D01*
X154921Y109419D01*
X154975Y109334D01*
X155060Y109240D01*
X153856Y109029D01*
X153712Y109163D01*
X153562Y109284D01*
X153406Y109390D01*
X153244Y109482D01*
X153076Y109560D01*
X152902Y109623D01*
X152723Y109673D01*
X152538Y109708D01*
X152346Y109729D01*
X152149Y109736D01*
X153356Y110736D01*
X155563Y109736D01*
D02*
G37*
G36*
X111848Y107825D02*
X111346Y107251D01*
X111143Y106979D01*
X110970Y106716D01*
X110829Y106464D01*
X110720Y106222D01*
X110641Y105989D01*
X110594Y105767D01*
X110579Y105554D01*
X109579D01*
X109563Y105767D01*
X109516Y105989D01*
X109438Y106222D01*
X109328Y106464D01*
X109187Y106716D01*
X109015Y106979D01*
X108811Y107251D01*
X108309Y107825D01*
X108012Y108128D01*
X112146D01*
X111848Y107825D01*
D02*
G37*
G36*
X115734Y84869D02*
X116201Y84469D01*
X116426Y84306D01*
X116645Y84169D01*
X116859Y84056D01*
X117067Y83969D01*
X117269Y83906D01*
X117465Y83869D01*
X117656Y83856D01*
Y82856D01*
X117465Y82844D01*
X117269Y82806D01*
X117067Y82744D01*
X116859Y82656D01*
X116645Y82544D01*
X116426Y82406D01*
X116201Y82244D01*
X115970Y82056D01*
X115492Y81606D01*
Y85106D01*
X115734Y84869D01*
D02*
G37*
G36*
X26351Y84848D02*
X28010Y82632D01*
X28170Y82466D01*
X27703Y81519D01*
X27515Y81683D01*
X27321Y81808D01*
X27121Y81893D01*
X26915Y81939D01*
X26702Y81945D01*
X26483Y81911D01*
X26257Y81837D01*
X26025Y81724D01*
X25787Y81572D01*
X25543Y81379D01*
X26095Y85235D01*
X26351Y84848D01*
D02*
G37*
G36*
X54978Y81083D02*
X54676Y81380D01*
X54101Y81882D01*
X53829Y82086D01*
X53567Y82258D01*
X53315Y82399D01*
X53072Y82509D01*
X52840Y82587D01*
X52617Y82634D01*
X52405Y82650D01*
Y83650D01*
X52617Y83665D01*
X52840Y83712D01*
X53072Y83791D01*
X53315Y83900D01*
X53567Y84041D01*
X53829Y84214D01*
X54101Y84417D01*
X54676Y84919D01*
X54978Y85217D01*
Y81083D01*
D02*
G37*
G36*
X55010Y76053D02*
X54905Y75993D01*
X54639Y75727D01*
X54522Y75679D01*
X54234Y75395D01*
X53693Y74923D01*
X53456Y74746D01*
X53230Y74597D01*
X53022Y74481D01*
X52834Y74396D01*
X52668Y74340D01*
X52526Y74310D01*
X52357Y74297D01*
X52305Y74271D01*
X46043D01*
X45899Y74415D01*
X45535Y74658D01*
X45106Y74744D01*
X45106Y74744D01*
X38404D01*
X38352Y74770D01*
X38183Y74782D01*
X38041Y74812D01*
X37875Y74868D01*
X37687Y74953D01*
X37479Y75069D01*
X37253Y75218D01*
X37016Y75395D01*
X36475Y75868D01*
X36286Y76053D01*
X36416Y76519D01*
X36437Y76553D01*
X54877D01*
X55010Y76053D01*
D02*
G37*
G36*
X36033Y75391D02*
X36607Y74890D01*
X36880Y74686D01*
X37142Y74514D01*
X37394Y74373D01*
X37637Y74263D01*
X37869Y74185D01*
X38091Y74138D01*
X38304Y74122D01*
Y73122D01*
X38091Y73106D01*
X37869Y73059D01*
X37637Y72981D01*
X37394Y72871D01*
X37142Y72730D01*
X36880Y72558D01*
X36607Y72354D01*
X36033Y71853D01*
X35731Y71555D01*
Y75689D01*
X36033Y75391D01*
D02*
G37*
G36*
X54978Y71083D02*
X54676Y71381D01*
X54101Y71882D01*
X53829Y72086D01*
X53567Y72258D01*
X53315Y72399D01*
X53072Y72509D01*
X52840Y72587D01*
X52617Y72634D01*
X52405Y72650D01*
Y73650D01*
X52617Y73665D01*
X52840Y73712D01*
X53072Y73791D01*
X53315Y73900D01*
X53567Y74041D01*
X53829Y74214D01*
X54101Y74418D01*
X54676Y74919D01*
X54978Y75217D01*
Y71083D01*
D02*
G37*
G36*
X31029Y76053D02*
X30779Y75804D01*
X30312Y74993D01*
X30069Y74090D01*
Y73154D01*
X30312Y72251D01*
X30779Y71441D01*
X31441Y70779D01*
X32251Y70311D01*
X33154Y70069D01*
X34090D01*
X34993Y70311D01*
X35803Y70779D01*
X36069Y71045D01*
X36187Y71092D01*
X36475Y71377D01*
X37016Y71849D01*
X37253Y72026D01*
X37479Y72175D01*
X37687Y72291D01*
X37875Y72376D01*
X38041Y72432D01*
X38183Y72462D01*
X38352Y72474D01*
X38404Y72500D01*
X44642D01*
X44786Y72357D01*
X44786Y72357D01*
X45149Y72114D01*
X45579Y72028D01*
X52305D01*
X52357Y72002D01*
X52526Y71990D01*
X52668Y71960D01*
X52834Y71904D01*
X53022Y71819D01*
X53230Y71702D01*
X53456Y71554D01*
X53693Y71377D01*
X54234Y70904D01*
X54522Y70620D01*
X54639Y70573D01*
X54905Y70307D01*
X55715Y69839D01*
X56619Y69597D01*
X57554D01*
X58458Y69839D01*
X59268Y70307D01*
X59585Y70623D01*
X60085Y70416D01*
Y65883D01*
X59585Y65676D01*
X59268Y65993D01*
X58458Y66460D01*
X57554Y66702D01*
X56619D01*
X55715Y66460D01*
X54905Y65993D01*
X54244Y65331D01*
X53776Y64521D01*
X53534Y63617D01*
Y62682D01*
X53776Y61778D01*
X54244Y60968D01*
X54905Y60307D01*
X55715Y59839D01*
X56130Y59728D01*
X56065Y59228D01*
X48056D01*
X48056Y59228D01*
X47627Y59143D01*
X47263Y58899D01*
X47263Y58899D01*
X38992Y50628D01*
X36359D01*
X36152Y51128D01*
X36465Y51441D01*
X36933Y52251D01*
X37175Y53154D01*
Y54090D01*
X36933Y54993D01*
X36465Y55804D01*
X35803Y56465D01*
X34993Y56933D01*
X34090Y57175D01*
X33154D01*
X32251Y56933D01*
X31441Y56465D01*
X30779Y55804D01*
X30312Y54993D01*
X30069Y54090D01*
Y53154D01*
X30312Y52251D01*
X30779Y51441D01*
X31092Y51128D01*
X30885Y50628D01*
X26359D01*
X26152Y51128D01*
X26465Y51441D01*
X26933Y52251D01*
X27175Y53154D01*
Y54090D01*
X26933Y54993D01*
X26465Y55804D01*
X25804Y56465D01*
X24993Y56933D01*
X24090Y57175D01*
X23154D01*
X22251Y56933D01*
X21441Y56465D01*
X21128Y56152D01*
X20628Y56359D01*
Y60885D01*
X21128Y61092D01*
X21441Y60779D01*
X22251Y60312D01*
X23154Y60069D01*
X24090D01*
X24993Y60312D01*
X25804Y60779D01*
X26465Y61441D01*
X26933Y62251D01*
X27175Y63154D01*
Y64090D01*
X26933Y64993D01*
X26465Y65803D01*
X25804Y66465D01*
X24993Y66933D01*
X24090Y67175D01*
X23154D01*
X22251Y66933D01*
X21441Y66465D01*
X21128Y66152D01*
X20628Y66359D01*
Y70885D01*
X21128Y71092D01*
X21441Y70779D01*
X22251Y70311D01*
X23154Y70069D01*
X24090D01*
X24993Y70311D01*
X25804Y70779D01*
X26465Y71441D01*
X26933Y72251D01*
X27175Y73154D01*
Y74090D01*
X26933Y74993D01*
X26465Y75804D01*
X26215Y76053D01*
X26422Y76553D01*
X30822D01*
X31029Y76053D01*
D02*
G37*
G36*
X74181Y65856D02*
X73842Y65853D01*
X73229Y65806D01*
X72955Y65761D01*
X72703Y65704D01*
X72472Y65632D01*
X72263Y65547D01*
X72076Y65448D01*
X71911Y65336D01*
X71767Y65210D01*
X71060Y65917D01*
X71186Y66061D01*
X71298Y66226D01*
X71397Y66413D01*
X71482Y66622D01*
X71554Y66853D01*
X71611Y67105D01*
X71656Y67379D01*
X71686Y67675D01*
X71706Y68331D01*
X74181Y65856D01*
D02*
G37*
G36*
X59840Y64253D02*
X59929Y64126D01*
X60031Y64015D01*
X60145Y63918D01*
X60273Y63836D01*
X60414Y63769D01*
X60567Y63717D01*
X60734Y63679D01*
X60914Y63657D01*
X61106Y63650D01*
Y62650D01*
X60914Y62642D01*
X60734Y62620D01*
X60567Y62583D01*
X60414Y62531D01*
X60273Y62463D01*
X60145Y62382D01*
X60031Y62285D01*
X59929Y62173D01*
X59840Y62046D01*
X59764Y61905D01*
Y64394D01*
X59840Y64253D01*
D02*
G37*
G36*
X142519Y48965D02*
X142556Y48769D01*
X142619Y48567D01*
X142706Y48359D01*
X142819Y48145D01*
X142956Y47926D01*
X143119Y47701D01*
X143306Y47470D01*
X143756Y46992D01*
X140256D01*
X140494Y47234D01*
X140894Y47701D01*
X141056Y47926D01*
X141194Y48145D01*
X141306Y48359D01*
X141394Y48567D01*
X141456Y48769D01*
X141494Y48965D01*
X141506Y49156D01*
X142506D01*
X142519Y48965D01*
D02*
G37*
G36*
X24125Y47134D02*
X24150Y46896D01*
X24172Y46796D01*
X24201Y46708D01*
X24235Y46634D01*
X24276Y46571D01*
X24323Y46522D01*
X24376Y46485D01*
X24436Y46461D01*
X22809D01*
X22868Y46485D01*
X22921Y46522D01*
X22968Y46571D01*
X23009Y46634D01*
X23044Y46708D01*
X23072Y46796D01*
X23094Y46896D01*
X23110Y47009D01*
X23119Y47134D01*
X23122Y47272D01*
X24122D01*
X24125Y47134D01*
D02*
G37*
G36*
X26087Y35292D02*
X26297Y35085D01*
X26509Y34903D01*
X26724Y34745D01*
X26942Y34611D01*
X27163Y34501D01*
X27386Y34416D01*
X27613Y34355D01*
X27843Y34319D01*
X28075Y34306D01*
Y33306D01*
X27850Y33293D01*
X27631Y33255D01*
X27419Y33190D01*
X27212Y33100D01*
X27012Y32984D01*
X26817Y32842D01*
X26629Y32675D01*
X26447Y32481D01*
X26270Y32262D01*
X26100Y32017D01*
X25881Y35524D01*
X26087Y35292D01*
D02*
G37*
G36*
X27224Y26664D02*
X27082Y26500D01*
X26958Y26308D01*
X26850Y26087D01*
X26760Y25839D01*
X26686Y25562D01*
X26629Y25257D01*
X26589Y24924D01*
X26567Y24563D01*
X26572Y23756D01*
X23570Y26553D01*
X20670Y23652D01*
X20666Y24076D01*
X20615Y24837D01*
X20566Y25173D01*
X20503Y25480D01*
X20424Y25759D01*
X20330Y26008D01*
X20221Y26227D01*
X20097Y26418D01*
X19958Y26579D01*
X20665Y27286D01*
X20826Y27147D01*
X21017Y27023D01*
X21237Y26914D01*
X21486Y26820D01*
X21764Y26742D01*
X22071Y26678D01*
X22408Y26629D01*
X23168Y26578D01*
X23571Y26575D01*
X23978Y26592D01*
X24748Y26667D01*
X25088Y26724D01*
X25398Y26795D01*
X25677Y26879D01*
X25926Y26976D01*
X26145Y27086D01*
X26333Y27209D01*
X26491Y27346D01*
X27224Y26664D01*
D02*
G37*
G36*
X97531Y27213D02*
X97720Y27090D01*
X97938Y26980D01*
X98187Y26883D01*
X98466Y26799D01*
X98776Y26728D01*
X99116Y26669D01*
X99887Y26593D01*
X100318Y26574D01*
X97287Y23763D01*
X97299Y24180D01*
X97272Y24930D01*
X97233Y25263D01*
X97176Y25568D01*
X97103Y25844D01*
X97013Y26093D01*
X96905Y26313D01*
X96781Y26506D01*
X96639Y26670D01*
X97373Y27350D01*
X97531Y27213D01*
D02*
G37*
G36*
X117441Y27147D02*
X117631Y27023D01*
X117851Y26914D01*
X118100Y26820D01*
X118378Y26742D01*
X118685Y26678D01*
X119022Y26629D01*
X119783Y26578D01*
X120207Y26575D01*
X117284Y23652D01*
X117280Y24076D01*
X117229Y24837D01*
X117180Y25173D01*
X117117Y25480D01*
X117038Y25759D01*
X116944Y26008D01*
X116835Y26227D01*
X116711Y26418D01*
X116572Y26579D01*
X117279Y27286D01*
X117441Y27147D01*
D02*
G37*
G36*
X36430Y24614D02*
X36580Y24370D01*
X36737Y24154D01*
X36903Y23967D01*
X37078Y23809D01*
X37260Y23679D01*
X37451Y23578D01*
X37651Y23506D01*
X37859Y23463D01*
X38075Y23449D01*
Y22449D01*
X37838Y22437D01*
X37595Y22403D01*
X37347Y22346D01*
X37093Y22265D01*
X36833Y22162D01*
X36568Y22036D01*
X36297Y21888D01*
X36020Y21716D01*
X35450Y21303D01*
X36290Y24888D01*
X36430Y24614D01*
D02*
G37*
G36*
X189881Y20671D02*
X189796Y20641D01*
X189721Y20591D01*
X189656Y20521D01*
X189601Y20431D01*
X189556Y20321D01*
X189521Y20191D01*
X189496Y20041D01*
X189481Y19871D01*
X189476Y19681D01*
X188476D01*
X188471Y19871D01*
X188456Y20041D01*
X188431Y20191D01*
X188396Y20321D01*
X188351Y20431D01*
X188296Y20521D01*
X188231Y20591D01*
X188156Y20641D01*
X188071Y20671D01*
X187976Y20681D01*
X189976D01*
X189881Y20671D01*
D02*
G37*
%LPC*%
G36*
X178992Y160917D02*
X175539D01*
Y157465D01*
X175560D01*
X176565Y157734D01*
X177466Y158254D01*
X178202Y158990D01*
X178723Y159892D01*
X178992Y160897D01*
Y160917D01*
D02*
G37*
G36*
X174539D02*
X171087D01*
Y160897D01*
X171356Y159892D01*
X171876Y158990D01*
X172612Y158254D01*
X173514Y157734D01*
X174519Y157465D01*
X174539D01*
Y160917D01*
D02*
G37*
G36*
X148650Y154999D02*
Y152010D01*
X151639D01*
X151411Y152861D01*
X150951Y153659D01*
X150299Y154310D01*
X149501Y154771D01*
X148650Y154999D01*
D02*
G37*
G36*
X147650D02*
X146799Y154771D01*
X146001Y154310D01*
X145349Y153659D01*
X144888Y152861D01*
X144660Y152010D01*
X147650D01*
Y154999D01*
D02*
G37*
G36*
X130599Y114189D02*
X130579D01*
Y110736D01*
X134031D01*
Y110757D01*
X133762Y111762D01*
X133242Y112663D01*
X132506Y113399D01*
X131604Y113920D01*
X130599Y114189D01*
D02*
G37*
G36*
X129579D02*
X129558D01*
X128553Y113920D01*
X127652Y113399D01*
X126916Y112663D01*
X126395Y111762D01*
X126126Y110757D01*
Y110736D01*
X129579D01*
Y114189D01*
D02*
G37*
G36*
X134031Y109736D02*
X130579D01*
Y106283D01*
X130599D01*
X131604Y106553D01*
X132506Y107073D01*
X133242Y107809D01*
X133762Y108711D01*
X134031Y109716D01*
Y109736D01*
D02*
G37*
G36*
X129579D02*
X126126D01*
Y109716D01*
X126395Y108711D01*
X126916Y107809D01*
X127652Y107073D01*
X128553Y106553D01*
X129558Y106283D01*
X129579D01*
Y109736D01*
D02*
G37*
G36*
X147559Y143120D02*
X146929D01*
X146347Y142879D01*
X145901Y142433D01*
X145660Y141851D01*
Y141220D01*
X145832Y140805D01*
X145717Y140594D01*
X145533Y140377D01*
X145515Y140364D01*
X144960D01*
X144378Y140123D01*
X143932Y139677D01*
X143691Y139095D01*
Y138464D01*
X143932Y137882D01*
X144378Y137436D01*
X144960Y137195D01*
X145515D01*
X145533Y137182D01*
X145717Y136964D01*
X145832Y136754D01*
X145660Y136339D01*
Y135709D01*
X145901Y135126D01*
X146347Y134681D01*
X146929Y134440D01*
X147559D01*
X148142Y134681D01*
X148587Y135126D01*
X148828Y135709D01*
Y136339D01*
X148656Y136754D01*
X148771Y136964D01*
X148955Y137182D01*
X148974Y137195D01*
X149528D01*
X150110Y137436D01*
X150556Y137882D01*
X150797Y138464D01*
Y139095D01*
X150556Y139677D01*
X150110Y140123D01*
X149528Y140364D01*
X148974D01*
X148955Y140377D01*
X148771Y140595D01*
X148656Y140805D01*
X148828Y141220D01*
Y141851D01*
X148587Y142433D01*
X148142Y142879D01*
X147559Y143120D01*
D02*
G37*
G36*
X34090Y67175D02*
X33154D01*
X32251Y66933D01*
X31441Y66465D01*
X30779Y65803D01*
X30312Y64993D01*
X30069Y64090D01*
Y63154D01*
X30312Y62251D01*
X30779Y61441D01*
X31441Y60779D01*
X32251Y60312D01*
X33154Y60069D01*
X34090D01*
X34993Y60312D01*
X35803Y60779D01*
X36465Y61441D01*
X36933Y62251D01*
X37175Y63154D01*
Y64090D01*
X36933Y64993D01*
X36465Y65803D01*
X35803Y66465D01*
X34993Y66933D01*
X34090Y67175D01*
D02*
G37*
%LPD*%
G36*
X36033Y115391D02*
X36607Y114890D01*
X36880Y114686D01*
X37142Y114514D01*
X37394Y114373D01*
X37637Y114263D01*
X37869Y114185D01*
X38091Y114138D01*
X38304Y114122D01*
Y113122D01*
X38091Y113106D01*
X37869Y113059D01*
X37637Y112981D01*
X37394Y112871D01*
X37142Y112730D01*
X36880Y112558D01*
X36607Y112354D01*
X36033Y111853D01*
X35731Y111555D01*
Y115689D01*
X36033Y115391D01*
D02*
G37*
G36*
X54158Y102150D02*
X54148Y102245D01*
X54118Y102330D01*
X54067Y102405D01*
X53996Y102470D01*
X53905Y102525D01*
X53794Y102570D01*
X53662Y102605D01*
X53510Y102630D01*
X53338Y102645D01*
X53146Y102650D01*
Y103650D01*
X53338Y103655D01*
X53510Y103670D01*
X53662Y103695D01*
X53794Y103730D01*
X53905Y103775D01*
X53996Y103830D01*
X54067Y103895D01*
X54118Y103970D01*
X54148Y104055D01*
X54158Y104150D01*
Y102150D01*
D02*
G37*
G36*
X26351Y104848D02*
X28010Y102632D01*
X28170Y102466D01*
X27703Y101519D01*
X27515Y101683D01*
X27321Y101808D01*
X27121Y101893D01*
X26915Y101939D01*
X26702Y101944D01*
X26483Y101911D01*
X26257Y101837D01*
X26025Y101724D01*
X25787Y101572D01*
X25543Y101379D01*
X26095Y105235D01*
X26351Y104848D01*
D02*
G37*
G36*
X73492Y96524D02*
X73657Y96412D01*
X73844Y96313D01*
X74053Y96228D01*
X74284Y96157D01*
X74536Y96099D01*
X74810Y96055D01*
X75106Y96024D01*
X75762Y96004D01*
X73287Y93529D01*
X73284Y93868D01*
X73237Y94481D01*
X73193Y94755D01*
X73135Y95008D01*
X73063Y95238D01*
X72978Y95447D01*
X72879Y95634D01*
X72767Y95799D01*
X72641Y95943D01*
X73348Y96650D01*
X73492Y96524D01*
D02*
G37*
G36*
X93687Y91754D02*
X93445Y91991D01*
X92978Y92391D01*
X92753Y92554D01*
X92533Y92691D01*
X92320Y92804D01*
X92112Y92891D01*
X91910Y92954D01*
X91714Y92991D01*
X91523Y93004D01*
Y94004D01*
X91714Y94016D01*
X91910Y94054D01*
X92112Y94116D01*
X92320Y94204D01*
X92533Y94316D01*
X92753Y94454D01*
X92978Y94616D01*
X93208Y94804D01*
X93687Y95254D01*
Y91754D01*
D02*
G37*
G36*
X77815Y95016D02*
X78282Y94616D01*
X78507Y94454D01*
X78726Y94316D01*
X78940Y94204D01*
X79148Y94116D01*
X79350Y94054D01*
X79546Y94016D01*
X79737Y94004D01*
Y93004D01*
X79546Y92991D01*
X79350Y92954D01*
X79148Y92891D01*
X78940Y92804D01*
X78726Y92691D01*
X78507Y92554D01*
X78282Y92391D01*
X78051Y92204D01*
X77573Y91754D01*
Y95254D01*
X77815Y95016D01*
D02*
G37*
G36*
X26351Y94848D02*
X28010Y92632D01*
X28170Y92466D01*
X27703Y91519D01*
X27515Y91683D01*
X27321Y91808D01*
X27121Y91893D01*
X26915Y91939D01*
X26702Y91944D01*
X26483Y91911D01*
X26257Y91837D01*
X26025Y91724D01*
X25787Y91572D01*
X25543Y91379D01*
X26095Y95235D01*
X26351Y94848D01*
D02*
G37*
G36*
X54978Y91083D02*
X54676Y91381D01*
X54101Y91882D01*
X53829Y92086D01*
X53567Y92258D01*
X53315Y92399D01*
X53072Y92509D01*
X52840Y92587D01*
X52617Y92634D01*
X52405Y92650D01*
Y93650D01*
X52617Y93665D01*
X52840Y93712D01*
X53072Y93791D01*
X53315Y93900D01*
X53567Y94041D01*
X53829Y94214D01*
X54101Y94418D01*
X54676Y94919D01*
X54978Y95217D01*
Y91083D01*
D02*
G37*
G36*
X130752Y28091D02*
X130799Y27869D01*
X130877Y27637D01*
X130987Y27394D01*
X131128Y27142D01*
X131300Y26880D01*
X131504Y26607D01*
X132006Y26033D01*
X132303Y25731D01*
X128169D01*
X128467Y26033D01*
X128969Y26607D01*
X129172Y26880D01*
X129345Y27142D01*
X129486Y27394D01*
X129595Y27637D01*
X129674Y27869D01*
X129721Y28091D01*
X129736Y28304D01*
X130736D01*
X130752Y28091D01*
D02*
G37*
D16*
X50197Y10827D02*
X181102D01*
X33622Y23622D02*
X34295Y22949D01*
X38075D01*
X50197Y10827D01*
X53150Y211706D02*
X86358D01*
X33622Y113622D02*
X55669D01*
X75787Y93504D01*
X95472D01*
X143599Y147910D02*
X204465D01*
X140271Y151238D02*
X143599Y147910D01*
X120079Y147106D02*
X124210Y151238D01*
X204465Y147910D02*
X208662Y152106D01*
X124210Y151238D02*
X140271D01*
X208662Y152106D02*
Y161417D01*
X138779Y136811D02*
X148622Y126969D01*
X138779Y136811D02*
Y147638D01*
X148622Y126969D02*
X158465D01*
X153880Y123369D02*
X168638D01*
X171254Y125984D01*
X144206Y113695D02*
X153880Y123369D01*
X171254Y125984D02*
X188662D01*
X144206Y84606D02*
Y113695D01*
X48228Y31496D02*
X92520D01*
X44439Y27706D02*
X48228Y31496D01*
X19506Y27738D02*
Y76325D01*
Y27738D02*
X23622Y23622D01*
X27559Y27706D02*
X44439D01*
X23622Y23622D02*
Y23769D01*
X27559Y27706D01*
X92520Y31496D02*
X100236Y23779D01*
Y23622D02*
Y23779D01*
X106184Y37675D02*
X120236Y23622D01*
X23622Y33622D02*
X23806Y33806D01*
X28075D01*
X31943Y37675D01*
X106184D01*
X181102Y10827D02*
X188976Y18701D01*
Y23622D01*
X153356Y110236D02*
X192106D01*
X150079D02*
X153356D01*
X45579Y73150D02*
X57087D01*
X45106Y73622D02*
X45579Y73150D01*
X33622Y73622D02*
X45106D01*
X130236Y23622D02*
Y29606D01*
X117806Y42036D02*
X130236Y29606D01*
X53150Y210630D02*
Y211706D01*
X23622Y43622D02*
Y47272D01*
X25856Y49506D01*
X39456D01*
X48056Y58106D01*
X63956D01*
X74206Y68356D01*
X57087Y63150D02*
X61106D01*
X61206Y63250D01*
Y73356D01*
X62556Y74706D01*
X140656D01*
X142006Y73356D01*
Y45206D02*
Y73356D01*
X47350Y93150D02*
X57087D01*
X43306Y89106D02*
X47350Y93150D01*
X30822Y89106D02*
X43306D01*
X26306Y93622D02*
X30822Y89106D01*
X23622Y93622D02*
X26306D01*
X47350Y83150D02*
X57087D01*
X43475Y79275D02*
X47350Y83150D01*
X30654Y79275D02*
X43475D01*
X26306Y83622D02*
X30654Y79275D01*
X23622Y83622D02*
X26306D01*
X47350Y103150D02*
X57087D01*
X43306Y99106D02*
X47350Y103150D01*
X30822Y99106D02*
X43306D01*
X26306Y103622D02*
X30822Y99106D01*
X23622Y103622D02*
X26306D01*
X120079Y110236D02*
Y147106D01*
X110079Y79397D02*
Y110236D01*
X108356Y77675D02*
X110079Y79397D01*
X20856Y77675D02*
X108356D01*
X19506Y76325D02*
X20856Y77675D01*
X198661Y161417D02*
Y164851D01*
X197106Y166406D02*
X198661Y164851D01*
X111879Y166406D02*
X197106D01*
X110079Y164606D02*
X111879Y166406D01*
X110079Y110236D02*
Y164606D01*
X113706Y83356D02*
X142956D01*
X144206Y84606D01*
X153356Y110236D02*
X154706Y108886D01*
Y24972D02*
Y108886D01*
X153356Y23622D02*
X154706Y24972D01*
X150236Y23622D02*
X153356D01*
X185039Y157106D02*
Y161417D01*
Y157106D02*
X186289Y155856D01*
X202356D01*
X203606Y157106D01*
Y163356D01*
X205756Y165506D01*
X210856D01*
X212806Y163556D01*
Y133356D02*
Y163556D01*
X210856Y131406D02*
X212806Y133356D01*
X195506Y131406D02*
X210856D01*
X193706Y129606D02*
X195506Y131406D01*
X193706Y111836D02*
Y129606D01*
X192106Y110236D02*
X193706Y111836D01*
X0Y0D02*
X228346D01*
X0Y228346D02*
X228346D01*
Y0D02*
Y228346D01*
X0Y0D02*
Y228346D01*
D44*
X198661Y161417D02*
D03*
X208662D02*
D03*
X198661Y171417D02*
D03*
X208662D02*
D03*
X198661Y181417D02*
D03*
X208662D02*
D03*
X198661Y191417D02*
D03*
X33622Y113622D02*
D03*
X23622Y103622D02*
D03*
X33622D02*
D03*
X23622Y93622D02*
D03*
X33622D02*
D03*
X23622Y83622D02*
D03*
X33622D02*
D03*
X23622Y73622D02*
D03*
X33622D02*
D03*
X23622Y63622D02*
D03*
X33622D02*
D03*
X23622Y53622D02*
D03*
X33622D02*
D03*
X23622Y43622D02*
D03*
X33622D02*
D03*
X23622Y33622D02*
D03*
X33622D02*
D03*
X23622Y23622D02*
D03*
X33622D02*
D03*
X23622Y135827D02*
D03*
Y145827D02*
D03*
Y155827D02*
D03*
X140079Y110236D02*
D03*
X130079D02*
D03*
X120079D02*
D03*
X110079D02*
D03*
X100079D02*
D03*
X175039Y161417D02*
D03*
X185039D02*
D03*
X175039Y171417D02*
D03*
X185039D02*
D03*
X175039Y181417D02*
D03*
X185039D02*
D03*
X175039Y191417D02*
D03*
X90236Y23622D02*
D03*
X100236D02*
D03*
X110236D02*
D03*
X120236D02*
D03*
X140236D02*
D03*
X130236D02*
D03*
X198976D02*
D03*
X208976D02*
D03*
X57087Y93150D02*
D03*
Y83150D02*
D03*
Y73150D02*
D03*
Y63150D02*
D03*
Y53150D02*
D03*
D45*
X208662Y191417D02*
D03*
X23622Y113622D02*
D03*
Y165827D02*
D03*
X185039Y191417D02*
D03*
X57087Y103150D02*
D03*
D46*
X208662Y125984D02*
D03*
X198661D02*
D03*
X208976Y84646D02*
D03*
X198976D02*
D03*
D47*
X188662Y125984D02*
D03*
X188976Y84646D02*
D03*
D48*
X45276Y210630D02*
D03*
D49*
X53150D02*
D03*
D50*
X150079Y110236D02*
D03*
X150236Y23622D02*
D03*
X188976D02*
D03*
D51*
X148622Y58071D02*
D03*
X152559D02*
D03*
X150591Y60827D02*
D03*
Y55315D02*
D03*
X88583Y204725D02*
D03*
X92520D02*
D03*
X90551Y207480D02*
D03*
Y201969D02*
D03*
X145275Y138779D02*
D03*
X149213D02*
D03*
X147244Y141535D02*
D03*
Y136024D02*
D03*
D52*
X101378Y205709D02*
D03*
X86358Y211706D02*
D03*
X75787Y93504D02*
D03*
X95472D02*
D03*
X148150Y151510D02*
D03*
X158465Y126969D02*
D03*
X138779Y147638D02*
D03*
X128937Y67913D02*
D03*
X171260Y58071D02*
D03*
X117806Y42036D02*
D03*
X74206Y68356D02*
D03*
X142006Y45206D02*
D03*
X113706Y83356D02*
D03*
M02*
