G04*
G04 #@! TF.GenerationSoftware,Altium Limited,Altium Designer,21.8.1 (53)*
G04*
G04 Layer_Color=16711935*
%FSLAX25Y25*%
%MOIN*%
G70*
G04*
G04 #@! TF.SameCoordinates,E4828392-D8D7-4BFE-BCB3-11F9E2D346FD*
G04*
G04*
G04 #@! TF.FilePolarity,Negative*
G04*
G01*
G75*
%ADD16C,0.01000*%
%ADD26C,0.06706*%
%ADD27R,0.06706X0.06706*%
%ADD28C,0.07099*%
%ADD29R,0.07099X0.07099*%
%ADD30R,0.05524X0.05524*%
%ADD31C,0.05524*%
%ADD32R,0.06706X0.06706*%
%ADD33C,0.02769*%
%ADD34C,0.05800*%
D16*
X0Y0D02*
X228346D01*
X0Y228346D02*
X228346D01*
Y0D02*
Y228346D01*
X0Y0D02*
Y228346D01*
D26*
X198661Y161417D02*
D03*
X208662D02*
D03*
X198661Y171417D02*
D03*
X208662D02*
D03*
X198661Y181417D02*
D03*
X208662D02*
D03*
X198661Y191417D02*
D03*
X33622Y113622D02*
D03*
X23622Y103622D02*
D03*
X33622D02*
D03*
X23622Y93622D02*
D03*
X33622D02*
D03*
X23622Y83622D02*
D03*
X33622D02*
D03*
X23622Y73622D02*
D03*
X33622D02*
D03*
X23622Y63622D02*
D03*
X33622D02*
D03*
X23622Y53622D02*
D03*
X33622D02*
D03*
X23622Y43622D02*
D03*
X33622D02*
D03*
X23622Y33622D02*
D03*
X33622D02*
D03*
X23622Y23622D02*
D03*
X33622D02*
D03*
X23622Y135827D02*
D03*
Y145827D02*
D03*
Y155827D02*
D03*
X140079Y110236D02*
D03*
X130079D02*
D03*
X120079D02*
D03*
X110079D02*
D03*
X100079D02*
D03*
X175039Y161417D02*
D03*
X185039D02*
D03*
X175039Y171417D02*
D03*
X185039D02*
D03*
X175039Y181417D02*
D03*
X185039D02*
D03*
X175039Y191417D02*
D03*
X90236Y23622D02*
D03*
X100236D02*
D03*
X110236D02*
D03*
X120236D02*
D03*
X140236D02*
D03*
X130236D02*
D03*
X198976D02*
D03*
X208976D02*
D03*
X57087Y93150D02*
D03*
Y83150D02*
D03*
Y73150D02*
D03*
Y63150D02*
D03*
Y53150D02*
D03*
D27*
X208662Y191417D02*
D03*
X23622Y113622D02*
D03*
Y165827D02*
D03*
X185039Y191417D02*
D03*
X57087Y103150D02*
D03*
D28*
X208662Y125984D02*
D03*
X198661D02*
D03*
X208976Y84646D02*
D03*
X198976D02*
D03*
D29*
X188662Y125984D02*
D03*
X188976Y84646D02*
D03*
D30*
X45276Y210630D02*
D03*
D31*
X53150D02*
D03*
D32*
X150079Y110236D02*
D03*
X150236Y23622D02*
D03*
X188976D02*
D03*
D33*
X148622Y58071D02*
D03*
X152559D02*
D03*
X150591Y60827D02*
D03*
Y55315D02*
D03*
X88583Y204725D02*
D03*
X92520D02*
D03*
X90551Y207480D02*
D03*
Y201969D02*
D03*
X145275Y138779D02*
D03*
X149213D02*
D03*
X147244Y141535D02*
D03*
Y136024D02*
D03*
D34*
X101378Y205709D02*
D03*
X86358Y211706D02*
D03*
X75787Y93504D02*
D03*
X95472D02*
D03*
X148150Y151510D02*
D03*
X158465Y126969D02*
D03*
X138779Y147638D02*
D03*
X128937Y67913D02*
D03*
X171260Y58071D02*
D03*
X117806Y42036D02*
D03*
X74206Y68356D02*
D03*
X142006Y45206D02*
D03*
X113706Y83356D02*
D03*
M02*
