G04*
G04 #@! TF.GenerationSoftware,Altium Limited,Altium Designer,21.8.1 (53)*
G04*
G04 Layer_Color=8388736*
%FSLAX25Y25*%
%MOIN*%
G70*
G04*
G04 #@! TF.SameCoordinates,E4828392-D8D7-4BFE-BCB3-11F9E2D346FD*
G04*
G04*
G04 #@! TF.FilePolarity,Negative*
G04*
G01*
G75*
%ADD16C,0.01000*%
G04:AMPARAMS|DCode=17|XSize=59.18mil|YSize=37.92mil|CornerRadius=7.74mil|HoleSize=0mil|Usage=FLASHONLY|Rotation=180.000|XOffset=0mil|YOffset=0mil|HoleType=Round|Shape=RoundedRectangle|*
%AMROUNDEDRECTD17*
21,1,0.05918,0.02244,0,0,180.0*
21,1,0.04370,0.03792,0,0,180.0*
1,1,0.01548,-0.02185,0.01122*
1,1,0.01548,0.02185,0.01122*
1,1,0.01548,0.02185,-0.01122*
1,1,0.01548,-0.02185,-0.01122*
%
%ADD17ROUNDEDRECTD17*%
%ADD18R,0.06509X0.06115*%
%ADD19R,0.02756X0.07874*%
%ADD20R,0.06115X0.06509*%
G04:AMPARAMS|DCode=21|XSize=13.84mil|YSize=27.62mil|CornerRadius=3.97mil|HoleSize=0mil|Usage=FLASHONLY|Rotation=270.000|XOffset=0mil|YOffset=0mil|HoleType=Round|Shape=RoundedRectangle|*
%AMROUNDEDRECTD21*
21,1,0.01384,0.01968,0,0,270.0*
21,1,0.00591,0.02762,0,0,270.0*
1,1,0.00794,-0.00984,-0.00295*
1,1,0.00794,-0.00984,0.00295*
1,1,0.00794,0.00984,0.00295*
1,1,0.00794,0.00984,-0.00295*
%
%ADD21ROUNDEDRECTD21*%
G04:AMPARAMS|DCode=22|XSize=82.74mil|YSize=66.99mil|CornerRadius=3.89mil|HoleSize=0mil|Usage=FLASHONLY|Rotation=270.000|XOffset=0mil|YOffset=0mil|HoleType=Round|Shape=RoundedRectangle|*
%AMROUNDEDRECTD22*
21,1,0.08274,0.05921,0,0,270.0*
21,1,0.07496,0.06699,0,0,270.0*
1,1,0.00778,-0.02961,-0.03748*
1,1,0.00778,-0.02961,0.03748*
1,1,0.00778,0.02961,0.03748*
1,1,0.00778,0.02961,-0.03748*
%
%ADD22ROUNDEDRECTD22*%
G04:AMPARAMS|DCode=23|XSize=29.65mil|YSize=27.69mil|CornerRadius=6.46mil|HoleSize=0mil|Usage=FLASHONLY|Rotation=0.000|XOffset=0mil|YOffset=0mil|HoleType=Round|Shape=RoundedRectangle|*
%AMROUNDEDRECTD23*
21,1,0.02965,0.01476,0,0,0.0*
21,1,0.01673,0.02769,0,0,0.0*
1,1,0.01292,0.00837,-0.00738*
1,1,0.01292,-0.00837,-0.00738*
1,1,0.01292,-0.00837,0.00738*
1,1,0.01292,0.00837,0.00738*
%
%ADD23ROUNDEDRECTD23*%
G04:AMPARAMS|DCode=24|XSize=27.69mil|YSize=16.66mil|CornerRadius=5.08mil|HoleSize=0mil|Usage=FLASHONLY|Rotation=0.000|XOffset=0mil|YOffset=0mil|HoleType=Round|Shape=RoundedRectangle|*
%AMROUNDEDRECTD24*
21,1,0.02769,0.00650,0,0,0.0*
21,1,0.01752,0.01666,0,0,0.0*
1,1,0.01016,0.00876,-0.00325*
1,1,0.01016,-0.00876,-0.00325*
1,1,0.01016,-0.00876,0.00325*
1,1,0.01016,0.00876,0.00325*
%
%ADD24ROUNDEDRECTD24*%
G04:AMPARAMS|DCode=25|XSize=27.69mil|YSize=16.66mil|CornerRadius=5.08mil|HoleSize=0mil|Usage=FLASHONLY|Rotation=90.000|XOffset=0mil|YOffset=0mil|HoleType=Round|Shape=RoundedRectangle|*
%AMROUNDEDRECTD25*
21,1,0.02769,0.00650,0,0,90.0*
21,1,0.01752,0.01666,0,0,90.0*
1,1,0.01016,0.00325,0.00876*
1,1,0.01016,0.00325,-0.00876*
1,1,0.01016,-0.00325,-0.00876*
1,1,0.01016,-0.00325,0.00876*
%
%ADD25ROUNDEDRECTD25*%
%ADD26C,0.06706*%
%ADD27R,0.06706X0.06706*%
%ADD28C,0.07099*%
%ADD29R,0.07099X0.07099*%
%ADD30R,0.05524X0.05524*%
%ADD31C,0.05524*%
%ADD32R,0.06706X0.06706*%
%ADD33C,0.02769*%
%ADD34C,0.05800*%
D16*
X0Y0D02*
X228346D01*
X0Y228346D02*
X228346D01*
Y0D02*
Y228346D01*
X0Y0D02*
Y228346D01*
D17*
X158465Y142874D02*
D03*
Y135827D02*
D03*
X134843Y133858D02*
D03*
Y140905D02*
D03*
X138779Y49646D02*
D03*
Y56693D02*
D03*
X162401Y64134D02*
D03*
Y57087D02*
D03*
X78740Y198819D02*
D03*
Y205866D02*
D03*
X29528Y214134D02*
D03*
Y207087D02*
D03*
Y200787D02*
D03*
Y193740D02*
D03*
D18*
X167323Y142520D02*
D03*
Y134843D02*
D03*
X179134Y62008D02*
D03*
Y54331D02*
D03*
X109252Y207480D02*
D03*
Y199803D02*
D03*
D19*
X144685Y125000D02*
D03*
X150394D02*
D03*
X148622Y43307D02*
D03*
X154331D02*
D03*
X85728Y190945D02*
D03*
X91437D02*
D03*
D20*
X195079Y111221D02*
D03*
X202756D02*
D03*
X196063Y70866D02*
D03*
X203740D02*
D03*
D21*
X145079Y61024D02*
D03*
Y59055D02*
D03*
Y57087D02*
D03*
Y55118D02*
D03*
X156102D02*
D03*
Y57087D02*
D03*
Y59055D02*
D03*
Y61024D02*
D03*
X85039Y207677D02*
D03*
Y205709D02*
D03*
Y203740D02*
D03*
Y201772D02*
D03*
X96063D02*
D03*
Y203740D02*
D03*
Y205709D02*
D03*
Y207677D02*
D03*
X141732Y141732D02*
D03*
Y139764D02*
D03*
Y137795D02*
D03*
Y135827D02*
D03*
X152756D02*
D03*
Y137795D02*
D03*
Y139764D02*
D03*
Y141732D02*
D03*
D22*
X150591Y58071D02*
D03*
X90551Y204725D02*
D03*
X147244Y138779D02*
D03*
D23*
X31496Y165551D02*
D03*
Y169095D02*
D03*
X15748Y165551D02*
D03*
Y169095D02*
D03*
D24*
X106890Y80118D02*
D03*
Y78543D02*
D03*
Y76968D02*
D03*
Y75394D02*
D03*
X99803D02*
D03*
Y76968D02*
D03*
Y78543D02*
D03*
Y80118D02*
D03*
D25*
X102559Y81299D02*
D03*
X104134D02*
D03*
Y74213D02*
D03*
X102559D02*
D03*
D26*
X198661Y161417D02*
D03*
X208662D02*
D03*
X198661Y171417D02*
D03*
X208662D02*
D03*
X198661Y181417D02*
D03*
X208662D02*
D03*
X198661Y191417D02*
D03*
X33622Y113622D02*
D03*
X23622Y103622D02*
D03*
X33622D02*
D03*
X23622Y93622D02*
D03*
X33622D02*
D03*
X23622Y83622D02*
D03*
X33622D02*
D03*
X23622Y73622D02*
D03*
X33622D02*
D03*
X23622Y63622D02*
D03*
X33622D02*
D03*
X23622Y53622D02*
D03*
X33622D02*
D03*
X23622Y43622D02*
D03*
X33622D02*
D03*
X23622Y33622D02*
D03*
X33622D02*
D03*
X23622Y23622D02*
D03*
X33622D02*
D03*
X23622Y135827D02*
D03*
Y145827D02*
D03*
Y155827D02*
D03*
X140079Y110236D02*
D03*
X130079D02*
D03*
X120079D02*
D03*
X110079D02*
D03*
X100079D02*
D03*
X175039Y161417D02*
D03*
X185039D02*
D03*
X175039Y171417D02*
D03*
X185039D02*
D03*
X175039Y181417D02*
D03*
X185039D02*
D03*
X175039Y191417D02*
D03*
X90236Y23622D02*
D03*
X100236D02*
D03*
X110236D02*
D03*
X120236D02*
D03*
X140236D02*
D03*
X130236D02*
D03*
X198976D02*
D03*
X208976D02*
D03*
X57087Y93150D02*
D03*
Y83150D02*
D03*
Y73150D02*
D03*
Y63150D02*
D03*
Y53150D02*
D03*
D27*
X208662Y191417D02*
D03*
X23622Y113622D02*
D03*
Y165827D02*
D03*
X185039Y191417D02*
D03*
X57087Y103150D02*
D03*
D28*
X208662Y125984D02*
D03*
X198661D02*
D03*
X208976Y84646D02*
D03*
X198976D02*
D03*
D29*
X188662Y125984D02*
D03*
X188976Y84646D02*
D03*
D30*
X45276Y210630D02*
D03*
D31*
X53150D02*
D03*
D32*
X150079Y110236D02*
D03*
X150236Y23622D02*
D03*
X188976D02*
D03*
D33*
X148622Y58071D02*
D03*
X152559D02*
D03*
X150591Y60827D02*
D03*
Y55315D02*
D03*
X88583Y204725D02*
D03*
X92520D02*
D03*
X90551Y207480D02*
D03*
Y201969D02*
D03*
X145275Y138779D02*
D03*
X149213D02*
D03*
X147244Y141535D02*
D03*
Y136024D02*
D03*
D34*
X101378Y205709D02*
D03*
X86358Y211706D02*
D03*
X75787Y93504D02*
D03*
X95472D02*
D03*
X148150Y151510D02*
D03*
X158465Y126969D02*
D03*
X138779Y147638D02*
D03*
X128937Y67913D02*
D03*
X171260Y58071D02*
D03*
X117806Y42036D02*
D03*
X74206Y68356D02*
D03*
X142006Y45206D02*
D03*
X113706Y83356D02*
D03*
M02*
