G04*
G04 #@! TF.GenerationSoftware,Altium Limited,Altium Designer,21.8.1 (53)*
G04*
G04 Layer_Color=65535*
%FSLAX25Y25*%
%MOIN*%
G70*
G04*
G04 #@! TF.SameCoordinates,E4828392-D8D7-4BFE-BCB3-11F9E2D346FD*
G04*
G04*
G04 #@! TF.FilePolarity,Positive*
G04*
G01*
G75*
%ADD10C,0.00984*%
%ADD11C,0.00000*%
%ADD12C,0.00787*%
%ADD13C,0.00591*%
%ADD14C,0.00500*%
%ADD15C,0.00800*%
%ADD16C,0.01000*%
D10*
X176516Y125984D02*
G03*
X176516Y125984I-492J0D01*
G01*
X141634Y63583D02*
G03*
X141634Y63583I-492J0D01*
G01*
X81595Y210236D02*
G03*
X81595Y210236I-492J0D01*
G01*
X45705Y217630D02*
G03*
X45705Y217630I-492J0D01*
G01*
X138287Y144291D02*
G03*
X138287Y144291I-492J0D01*
G01*
X176831Y84646D02*
G03*
X176831Y84646I-492J0D01*
G01*
D11*
X98622Y80984D02*
G03*
X98622Y80984I-787J0D01*
G01*
D12*
X213662Y156417D02*
Y196417D01*
X193661Y156417D02*
Y196417D01*
X213662D01*
X193661Y156417D02*
X213662D01*
X178583Y134488D02*
X218740D01*
X178583Y136457D02*
X218740D01*
X178583Y117953D02*
X218740D01*
Y136457D01*
X178583Y117953D02*
Y136457D01*
X153642Y118898D02*
Y131102D01*
X141437D02*
X153642D01*
X141437Y118898D02*
Y131102D01*
Y118898D02*
X153642D01*
X157579Y37205D02*
Y49409D01*
X145374D02*
X157579D01*
X145374Y37205D02*
Y49409D01*
Y37205D02*
X157579D01*
X143307Y51378D02*
Y53051D01*
Y51378D02*
X145571D01*
X157874D02*
Y53051D01*
X155610Y51378D02*
X157874D01*
Y63090D02*
Y64764D01*
X155610D02*
X157874D01*
X143307D02*
X145571D01*
X143307Y63090D02*
Y64764D01*
X83268Y198031D02*
Y199705D01*
Y198031D02*
X85532D01*
X97835D02*
Y199705D01*
X95571Y198031D02*
X97835D01*
Y209744D02*
Y211417D01*
X95571D02*
X97835D01*
X83268D02*
X85532D01*
X83268Y209744D02*
Y211417D01*
X94685Y184843D02*
Y197047D01*
X82480D02*
X94685D01*
X82480Y184843D02*
Y197047D01*
Y184843D02*
X94685D01*
X56890Y215945D02*
X60827D01*
X60828Y186025D02*
Y215946D01*
X37598Y186024D02*
X60827D01*
X37598Y215945D02*
X41535D01*
X37598Y186024D02*
Y215945D01*
X18622Y18622D02*
X38622D01*
X18622Y111122D02*
Y118622D01*
X38622D01*
Y111122D02*
Y118622D01*
Y18622D02*
Y111122D01*
X18622Y18622D02*
Y111122D01*
Y170827D02*
X28622D01*
Y130827D02*
Y170827D01*
X18622Y130827D02*
Y170827D01*
Y130827D02*
X28622D01*
X95079Y105236D02*
Y115236D01*
X155079Y105236D02*
Y115236D01*
X95079Y105236D02*
X155079D01*
X95079Y115236D02*
X155079D01*
X139961Y132087D02*
Y133760D01*
Y132087D02*
X142225D01*
X154527D02*
Y133760D01*
X152264Y132087D02*
X154527D01*
Y143799D02*
Y145473D01*
X152264D02*
X154527D01*
X139961D02*
X142225D01*
X139961Y143799D02*
Y145473D01*
X190039Y156417D02*
Y196417D01*
X170039Y156417D02*
Y196417D01*
X190039D01*
X170039Y156417D02*
X190039D01*
X85236Y18622D02*
X155236D01*
Y28622D01*
X85236D02*
X155236D01*
X85236Y18622D02*
Y28622D01*
X183976Y18622D02*
X213976D01*
Y28622D01*
X183976D02*
X213976D01*
X183976Y18622D02*
Y28622D01*
X178898Y93150D02*
X219055D01*
X178898Y95118D02*
X219055D01*
X178898Y76614D02*
X219055D01*
Y95118D01*
X178898Y76614D02*
Y95118D01*
X52087Y48150D02*
X62087D01*
X52087Y108150D02*
X62087D01*
Y48150D02*
Y108150D01*
X52087Y48150D02*
Y108150D01*
D13*
X156299Y138189D02*
Y140551D01*
X160630Y138189D02*
Y140551D01*
X137008Y136181D02*
Y138543D01*
X132677Y136181D02*
Y138543D01*
X140945Y51968D02*
Y54331D01*
X136614Y51968D02*
Y54331D01*
X160236Y59449D02*
Y61811D01*
X164567Y59449D02*
Y61811D01*
X80905Y201142D02*
Y203504D01*
X76575Y201142D02*
Y203504D01*
X27362Y209449D02*
Y211811D01*
X31693Y209449D02*
Y211811D01*
X27362Y196102D02*
Y198465D01*
X31693Y196102D02*
Y198465D01*
X30709Y167323D02*
X32283D01*
X14961D02*
X16535D01*
D14*
X100197Y79527D02*
Y80905D01*
Y74606D02*
Y75984D01*
X106496Y79527D02*
Y80905D01*
Y74606D02*
Y75984D01*
X100197Y80905D02*
X101575D01*
X100197Y74606D02*
X101575D01*
X105118Y80905D02*
X106496D01*
X105118Y74606D02*
X106496D01*
D15*
X31622Y14290D02*
Y17622D01*
X34954Y14290D01*
X35787D01*
X36620Y15123D01*
Y16789D01*
X35787Y17622D01*
Y12624D02*
X36620Y11791D01*
Y10125D01*
X35787Y9291D01*
X32455D01*
X31622Y10125D01*
Y11791D01*
X32455Y12624D01*
X35787D01*
X200787Y202151D02*
Y198819D01*
X197455Y202151D01*
X196622D01*
X195789Y201318D01*
Y199652D01*
X196622Y198819D01*
X210661Y199417D02*
Y201083D01*
Y200250D01*
X205663D01*
X206496Y199417D01*
X206616Y151575D02*
Y154907D01*
X207449D01*
X210781Y151575D01*
X211614D01*
X196622D02*
X195789Y152408D01*
Y154074D01*
X196622Y154907D01*
X197455D01*
X198288Y154074D01*
X199121Y154907D01*
X199954D01*
X200787Y154074D01*
Y152408D01*
X199954Y151575D01*
X199121D01*
X198288Y152408D01*
X197455Y151575D01*
X196622D01*
X198288Y152408D02*
Y154074D01*
X22638Y16732D02*
Y15066D01*
Y15899D01*
X27636D01*
X26803Y16732D01*
X23471Y12567D02*
X22638Y11734D01*
Y10068D01*
X23471Y9235D01*
X26803D01*
X27636Y10068D01*
Y11734D01*
X26803Y12567D01*
X25970D01*
X25137Y11734D01*
Y9235D01*
X21622Y123622D02*
Y121956D01*
Y122789D01*
X26620D01*
X25787Y123622D01*
X31622Y120290D02*
Y123622D01*
X34954Y120290D01*
X35787D01*
X36620Y121123D01*
Y122789D01*
X35787Y123622D01*
X176181Y202151D02*
Y198819D01*
X172849Y202151D01*
X172016D01*
X171183Y201318D01*
Y199652D01*
X172016Y198819D01*
X187039Y199417D02*
Y201083D01*
Y200250D01*
X182041D01*
X182874Y199417D01*
X182994Y151575D02*
Y154907D01*
X183827D01*
X187159Y151575D01*
X187992D01*
X173000D02*
X172167Y152408D01*
Y154074D01*
X173000Y154907D01*
X173833D01*
X174666Y154074D01*
X175499Y154907D01*
X176332D01*
X177165Y154074D01*
Y152408D01*
X176332Y151575D01*
X175499D01*
X174666Y152408D01*
X173833Y151575D01*
X173000D01*
X174666Y152408D02*
Y154074D01*
D16*
X203725Y211660D02*
X201725D01*
X202725D01*
Y206662D01*
X201725Y205662D01*
X200726D01*
X199726Y206662D01*
X208723Y205662D02*
Y211660D01*
X205724Y208661D01*
X209723D01*
X174605Y211204D02*
X172606D01*
X173605D01*
Y206206D01*
X172606Y205206D01*
X171606D01*
X170606Y206206D01*
X180603Y211204D02*
X178604Y210205D01*
X176604Y208205D01*
Y206206D01*
X177604Y205206D01*
X179603D01*
X180603Y206206D01*
Y207206D01*
X179603Y208205D01*
X176604D01*
X158449Y152590D02*
X157449Y153590D01*
X155450D01*
X154450Y152590D01*
Y148591D01*
X155450Y147591D01*
X157449D01*
X158449Y148591D01*
X164447Y153590D02*
X162448Y152590D01*
X160449Y150591D01*
Y148591D01*
X161448Y147591D01*
X163447D01*
X164447Y148591D01*
Y149591D01*
X163447Y150591D01*
X160449D01*
X213583Y139733D02*
Y143732D01*
X212583Y144731D01*
X210584D01*
X209584Y143732D01*
Y139733D01*
X210584Y138733D01*
X212583D01*
X211583Y140733D02*
X213583Y138733D01*
X212583D02*
X213583Y139733D01*
X215582Y138733D02*
X217581D01*
X216582D01*
Y144731D01*
X215582Y143732D01*
X172167Y139717D02*
Y145716D01*
X175166D01*
X176166Y144716D01*
Y142717D01*
X175166Y141717D01*
X172167D01*
X174166D02*
X176166Y139717D01*
X178165Y144716D02*
X179165Y145716D01*
X181164D01*
X182164Y144716D01*
Y143716D01*
X181164Y142717D01*
X180164D01*
X181164D01*
X182164Y141717D01*
Y140717D01*
X181164Y139717D01*
X179165D01*
X178165Y140717D01*
X123016Y140779D02*
X122016Y141779D01*
X120017D01*
X119017Y140779D01*
Y136780D01*
X120017Y135781D01*
X122016D01*
X123016Y136780D01*
X125015Y141779D02*
X129014D01*
Y140779D01*
X125015Y136780D01*
Y135781D01*
X129844Y127015D02*
Y121017D01*
X133843D01*
X139841D02*
X135842D01*
X139841Y125015D01*
Y126015D01*
X138841Y127015D01*
X136842D01*
X135842Y126015D01*
X193821Y100347D02*
Y106345D01*
X196820D01*
X197819Y105346D01*
Y103347D01*
X196820Y102347D01*
X193821D01*
X195820D02*
X197819Y100347D01*
X203817D02*
X199819D01*
X203817Y104346D01*
Y105346D01*
X202818Y106345D01*
X200818D01*
X199819Y105346D01*
X159372Y47290D02*
Y41292D01*
X163370D01*
X165370Y46291D02*
X166369Y47290D01*
X168369D01*
X169369Y46291D01*
Y45291D01*
X168369Y44291D01*
X167369D01*
X168369D01*
X169369Y43292D01*
Y42292D01*
X168369Y41292D01*
X166369D01*
X165370Y42292D01*
X127937Y53180D02*
X126938Y54180D01*
X124938D01*
X123939Y53180D01*
Y49182D01*
X124938Y48182D01*
X126938D01*
X127937Y49182D01*
X129937D02*
X130936Y48182D01*
X132936D01*
X133935Y49182D01*
Y53180D01*
X132936Y54180D01*
X130936D01*
X129937Y53180D01*
Y52181D01*
X130936Y51181D01*
X133935D01*
X134765Y72881D02*
Y67883D01*
X135765Y66883D01*
X137764D01*
X138764Y67883D01*
Y72881D01*
X140763Y71881D02*
X141763Y72881D01*
X143763D01*
X144762Y71881D01*
Y70882D01*
X143763Y69882D01*
X142763D01*
X143763D01*
X144762Y68882D01*
Y67883D01*
X143763Y66883D01*
X141763D01*
X140763Y67883D01*
X166323Y72865D02*
X165323Y73865D01*
X163324D01*
X162325Y72865D01*
Y68867D01*
X163324Y67867D01*
X165323D01*
X166323Y68867D01*
X168323Y72865D02*
X169322Y73865D01*
X171321D01*
X172321Y72865D01*
Y71866D01*
X171321Y70866D01*
X172321Y69867D01*
Y68867D01*
X171321Y67867D01*
X169322D01*
X168323Y68867D01*
Y69867D01*
X169322Y70866D01*
X168323Y71866D01*
Y72865D01*
X169322Y70866D02*
X171321D01*
X183978Y53103D02*
Y59101D01*
X186977D01*
X187977Y58102D01*
Y56102D01*
X186977Y55103D01*
X183978D01*
X185977D02*
X187977Y53103D01*
X193975Y59101D02*
X189976D01*
Y56102D01*
X191975Y57102D01*
X192975D01*
X193975Y56102D01*
Y54103D01*
X192975Y53103D01*
X190976D01*
X189976Y54103D01*
X209569Y62946D02*
Y68944D01*
X212568D01*
X213567Y67944D01*
Y65945D01*
X212568Y64945D01*
X209569D01*
X211568D02*
X213567Y62946D01*
X218566D02*
Y68944D01*
X215567Y65945D01*
X219565D01*
X97379Y219534D02*
Y214536D01*
X98379Y213536D01*
X100378D01*
X101378Y214536D01*
Y219534D01*
X103377Y213536D02*
X105377D01*
X104377D01*
Y219534D01*
X103377Y218535D01*
X68882Y212629D02*
X67883Y213629D01*
X65883D01*
X64884Y212629D01*
Y208631D01*
X65883Y207631D01*
X67883D01*
X68882Y208631D01*
X70882Y212629D02*
X71881Y213629D01*
X73881D01*
X74880Y212629D01*
Y211630D01*
X73881Y210630D01*
X72881D01*
X73881D01*
X74880Y209630D01*
Y208631D01*
X73881Y207631D01*
X71881D01*
X70882Y208631D01*
X116080Y201725D02*
Y207723D01*
X119079D01*
X120079Y206724D01*
Y204724D01*
X119079Y203725D01*
X116080D01*
X118079D02*
X120079Y201725D01*
X122078D02*
X124077D01*
X123078D01*
Y207723D01*
X122078Y206724D01*
X97379Y184101D02*
Y178103D01*
X101378D01*
X103377D02*
X105377D01*
X104377D01*
Y184101D01*
X103377Y183102D01*
X17701Y215582D02*
X16701Y216582D01*
X14702D01*
X13702Y215582D01*
Y211583D01*
X14702Y210584D01*
X16701D01*
X17701Y211583D01*
X22700Y210584D02*
Y216582D01*
X19701Y213583D01*
X23699D01*
X28528Y189991D02*
X27528Y190991D01*
X25529D01*
X24529Y189991D01*
Y185993D01*
X25529Y184993D01*
X27528D01*
X28528Y185993D01*
X34526Y190991D02*
X30527D01*
Y187992D01*
X32527Y188992D01*
X33526D01*
X34526Y187992D01*
Y185993D01*
X33526Y184993D01*
X31527D01*
X30527Y185993D01*
X38386Y169322D02*
X37386Y170322D01*
X35387D01*
X34387Y169322D01*
Y165323D01*
X35387Y164324D01*
X37386D01*
X38386Y165323D01*
X40385Y164324D02*
X42384D01*
X41385D01*
Y170322D01*
X40385Y169322D01*
X5875Y167307D02*
X4875Y166308D01*
Y164308D01*
X5875Y163309D01*
X9873D01*
X10873Y164308D01*
Y166308D01*
X9873Y167307D01*
X10873Y173305D02*
Y169307D01*
X6874Y173305D01*
X5875D01*
X4875Y172306D01*
Y170306D01*
X5875Y169307D01*
X98006Y92404D02*
Y87406D01*
X99006Y86406D01*
X101005D01*
X102005Y87406D01*
Y92404D01*
X107003Y86406D02*
Y92404D01*
X104004Y89405D01*
X108003D01*
X60024Y183117D02*
X58025D01*
X59024D01*
Y178119D01*
X58025Y177119D01*
X57025D01*
X56025Y178119D01*
X66022Y177119D02*
X62023D01*
X66022Y181118D01*
Y182117D01*
X65022Y183117D01*
X63023D01*
X62023Y182117D01*
X9000Y117172D02*
X7001D01*
X8001D01*
Y112174D01*
X7001Y111174D01*
X6001D01*
X5002Y112174D01*
X11000Y116173D02*
X11999Y117172D01*
X13999D01*
X14998Y116173D01*
Y115173D01*
X13999Y114173D01*
X12999D01*
X13999D01*
X14998Y113174D01*
Y112174D01*
X13999Y111174D01*
X11999D01*
X11000Y112174D01*
X23205Y180204D02*
X21206D01*
X22205D01*
Y175206D01*
X21206Y174206D01*
X20206D01*
X19206Y175206D01*
X25204Y174206D02*
X27204D01*
X26204D01*
Y180204D01*
X25204Y179205D01*
X99705Y124604D02*
X97706D01*
X98705D01*
Y119606D01*
X97706Y118606D01*
X96706D01*
X95706Y119606D01*
X105703Y124604D02*
X101704D01*
Y121605D01*
X103704Y122605D01*
X104703D01*
X105703Y121605D01*
Y119606D01*
X104703Y118606D01*
X102704D01*
X101704Y119606D01*
X137806Y155004D02*
Y150006D01*
X138806Y149006D01*
X140805D01*
X141805Y150006D01*
Y155004D01*
X147803Y149006D02*
X143804D01*
X147803Y153005D01*
Y154005D01*
X146803Y155004D01*
X144804D01*
X143804Y154005D01*
X89805Y38004D02*
X87806D01*
X88805D01*
Y33006D01*
X87806Y32006D01*
X86806D01*
X85806Y33006D01*
X91804Y38004D02*
X95803D01*
Y37005D01*
X91804Y33006D01*
Y32006D01*
X188605Y38004D02*
X186606D01*
X187605D01*
Y33006D01*
X186606Y32006D01*
X185606D01*
X184606Y33006D01*
X190604Y37005D02*
X191604Y38004D01*
X193603D01*
X194603Y37005D01*
Y36005D01*
X193603Y35005D01*
X194603Y34006D01*
Y33006D01*
X193603Y32006D01*
X191604D01*
X190604Y33006D01*
Y34006D01*
X191604Y35005D01*
X190604Y36005D01*
Y37005D01*
X191604Y35005D02*
X193603D01*
X180305Y100206D02*
Y104205D01*
X179305Y105204D01*
X177306D01*
X176306Y104205D01*
Y100206D01*
X177306Y99206D01*
X179305D01*
X178306Y101206D02*
X180305Y99206D01*
X179305D02*
X180305Y100206D01*
X186303Y99206D02*
X182304D01*
X186303Y103205D01*
Y104205D01*
X185303Y105204D01*
X183304D01*
X182304Y104205D01*
X56705Y117504D02*
X54706D01*
X55705D01*
Y112506D01*
X54706Y111506D01*
X53706D01*
X52706Y112506D01*
X58704D02*
X59704Y111506D01*
X61703D01*
X62703Y112506D01*
Y116505D01*
X61703Y117504D01*
X59704D01*
X58704Y116505D01*
Y115505D01*
X59704Y114505D01*
X62703D01*
X0Y0D02*
X228346D01*
X0Y228346D02*
X228346D01*
Y0D02*
Y228346D01*
X0Y0D02*
Y228346D01*
M02*
