M48
;Layer_Color=9474304
;FILE_FORMAT=2:5
INCH,LZ
;TYPE=PLATED
T1F00S00C0.01000
T2F00S00C0.02756
T3F00S00C0.02800
T4F00S00C0.03543
T5F00S00C0.03937
;TYPE=NON_PLATED
T6F00S00C0.04535
%
T01
X0198844Y0029528
X0201944
X0203275Y0084568
X0200175
X0198844Y0141732
X0201944
T02
X0018701Y0199016
X0026575
T03
X001378Y0008858
X0044Y00225
X0180709Y0025197
Y0017717
X0189075Y0018504
X0211417
X0177505Y004086
X0212749Y0073544
X0190406
X018204Y0072757
Y0080237
X0179134Y0095472
X0180709Y0129921
Y0137402
X0189075Y0130709
X0211417
X0179528Y0152165
X0134843Y0175197
X0125Y0167323
Y0110236
X0134843
X0149606Y0063976
X0159449Y0056102
X008563Y0063976
Y007185
X0059055Y0113189
X0007874Y0169291
T04
X0023622Y0022992
X0033622
Y0032992
X0023622
Y0042992
X0033622
Y0052992
X0023622
X0061339Y0197835
X0051339
X0041339
X0033622Y0112992
Y0102992
Y0092992
Y0082992
Y0072992
X0023622
Y0062992
X0033622
X0023622Y0082992
Y0092992
Y0102992
Y0112992
T05
X0050197Y004874
X0085315Y0023622
X0095315
X0105315
X0115315
X0125315
X0135315
X0145315
X0215512Y0180709
Y0193307
X0215669Y0205906
X0205669
X0195669
X0185669
X0185512Y0193307
X0195512
X0205512
Y0180709
X0195512
X0185512
X0145Y0101378
X0135
X0125
X0115
X0105
X0095
X0050197Y009874
Y008874
Y007874
Y006874
Y005874
X0050354Y0129921
X0040354
X0030354
X0020354
X0185669Y0218504
X0195669
X0205669
X0215669
T06
X0006299Y0006299
X0177165
X0043307Y0222047
X0145669
M30
