G04*
G04 #@! TF.GenerationSoftware,Altium Limited,Altium Designer,22.4.2 (48)*
G04*
G04 Layer_Color=8388736*
%FSLAX25Y25*%
%MOIN*%
G70*
G04*
G04 #@! TF.SameCoordinates,78AC0251-C41B-4C09-997F-A4DA7E128E32*
G04*
G04*
G04 #@! TF.FilePolarity,Negative*
G04*
G01*
G75*
%ADD14C,0.01000*%
%ADD18R,0.04343X0.03556*%
%ADD19C,0.03800*%
%ADD20R,0.07887X0.07099*%
%ADD21R,0.03556X0.04343*%
%ADD22R,0.06800X0.04800*%
%ADD23R,0.01102X0.01968*%
%ADD24C,0.07887*%
%ADD25C,0.02800*%
%ADD26C,0.05701*%
%ADD27C,0.06706*%
%ADD28R,0.06706X0.06706*%
%ADD29R,0.06706X0.06706*%
%ADD30R,0.05524X0.05524*%
%ADD31C,0.05524*%
%ADD32C,0.05800*%
G36*
X203794Y142520D02*
Y139732D01*
X196994D01*
Y142520D01*
Y143732D01*
X203794D01*
Y142520D01*
D02*
G37*
G36*
X205125Y85355D02*
Y82568D01*
X198325D01*
Y85355D01*
Y86568D01*
X205125D01*
Y85355D01*
D02*
G37*
G36*
X203794Y30315D02*
Y27528D01*
X196994D01*
Y28740D01*
Y30315D01*
Y31528D01*
X203794D01*
Y30315D01*
D02*
G37*
%LPC*%
G36*
X202731Y142520D02*
X201156D01*
Y140945D01*
X202731D01*
Y142520D01*
D02*
G37*
G36*
X199631D02*
X198056D01*
Y140945D01*
X199631D01*
Y142520D01*
D02*
G37*
G36*
X204063Y85355D02*
X202488D01*
Y83780D01*
X204063D01*
Y85355D01*
D02*
G37*
G36*
X200963D02*
X199388D01*
Y83780D01*
X200963D01*
Y85355D01*
D02*
G37*
G36*
X202731Y30315D02*
X201156D01*
Y28740D01*
X202731D01*
Y30315D01*
D02*
G37*
G36*
X199631D02*
X198056D01*
Y28740D01*
X199631D01*
Y30315D01*
D02*
G37*
%LPD*%
D14*
X0Y0D02*
X228346D01*
X0Y228346D02*
X228346D01*
Y0D02*
Y228346D01*
X0Y0D02*
Y228346D01*
D18*
X183071Y162402D02*
D03*
Y168307D02*
D03*
X44291Y112205D02*
D03*
Y118110D02*
D03*
X175347Y86339D02*
D03*
Y80434D02*
D03*
X183071Y108268D02*
D03*
Y114173D02*
D03*
X182087Y51181D02*
D03*
Y57087D02*
D03*
X174016Y31299D02*
D03*
Y25394D02*
D03*
Y143504D02*
D03*
Y137598D02*
D03*
D19*
X218504Y156496D02*
D03*
Y101378D02*
D03*
Y46260D02*
D03*
X178150Y161417D02*
D03*
Y123031D02*
D03*
X176181Y48228D02*
D03*
X172239Y9252D02*
D03*
X178150Y104331D02*
D03*
X173211Y65777D02*
D03*
D20*
X194291Y100394D02*
D03*
X209252D02*
D03*
X194291Y46260D02*
D03*
X209252D02*
D03*
X193307Y157480D02*
D03*
X208268D02*
D03*
D21*
X212402Y11811D02*
D03*
X218307D02*
D03*
X219639Y66654D02*
D03*
X213733D02*
D03*
X208812D02*
D03*
X202906D02*
D03*
X192080Y66654D02*
D03*
X197985D02*
D03*
X190748Y11614D02*
D03*
X196653D02*
D03*
X207480Y11614D02*
D03*
X201575D02*
D03*
X190748Y123819D02*
D03*
X196653D02*
D03*
X218307Y123819D02*
D03*
X212402D02*
D03*
X207480D02*
D03*
X201575D02*
D03*
D22*
X189370Y25528D02*
D03*
Y33528D02*
D03*
X212749Y80568D02*
D03*
Y88568D02*
D03*
X190702Y80568D02*
D03*
Y88568D02*
D03*
X211417Y25528D02*
D03*
Y33528D02*
D03*
X189370Y137732D02*
D03*
Y145732D02*
D03*
X211417Y137732D02*
D03*
Y145732D02*
D03*
D23*
X198773Y88308D02*
D03*
X200741D02*
D03*
X202710D02*
D03*
X204678D02*
D03*
Y80828D02*
D03*
X202710D02*
D03*
X200741D02*
D03*
X198773D02*
D03*
X197441Y33268D02*
D03*
X199409D02*
D03*
X201378D02*
D03*
X203346D02*
D03*
Y25787D02*
D03*
X201378D02*
D03*
X199409D02*
D03*
X197441D02*
D03*
Y145473D02*
D03*
X199409D02*
D03*
X201378D02*
D03*
X203346D02*
D03*
Y137992D02*
D03*
X201378D02*
D03*
X199409D02*
D03*
X197441D02*
D03*
D24*
X20354Y129921D02*
D03*
X30354D02*
D03*
X40354D02*
D03*
X50354D02*
D03*
X95000Y101378D02*
D03*
X105000D02*
D03*
X115000D02*
D03*
X125000D02*
D03*
X135000D02*
D03*
X145000D02*
D03*
X50197Y48740D02*
D03*
Y58740D02*
D03*
Y68740D02*
D03*
Y78740D02*
D03*
Y88740D02*
D03*
Y98740D02*
D03*
X145315Y23622D02*
D03*
X135315D02*
D03*
X125315D02*
D03*
X115315D02*
D03*
X105315D02*
D03*
X95315D02*
D03*
X85315D02*
D03*
X185512Y180709D02*
D03*
X195512D02*
D03*
X205512D02*
D03*
X215512D02*
D03*
X185669Y218504D02*
D03*
X195669D02*
D03*
X205669D02*
D03*
X215669D02*
D03*
X185669Y205906D02*
D03*
X195669D02*
D03*
X205669D02*
D03*
X215669D02*
D03*
X185512Y193307D02*
D03*
X195512D02*
D03*
X205512D02*
D03*
X215512D02*
D03*
D25*
X201944Y141732D02*
D03*
X198844D02*
D03*
X201944Y29528D02*
D03*
X198844D02*
D03*
X203275Y84568D02*
D03*
X200175D02*
D03*
D26*
X145669Y222047D02*
D03*
X177165Y6299D02*
D03*
X6299D02*
D03*
X43307Y222047D02*
D03*
D27*
X23622Y42992D02*
D03*
Y72992D02*
D03*
X41339Y197835D02*
D03*
X51339D02*
D03*
X33622Y22992D02*
D03*
X23622D02*
D03*
X33622Y32992D02*
D03*
X23622D02*
D03*
X33622Y42992D02*
D03*
Y52992D02*
D03*
X23622D02*
D03*
X33622Y62992D02*
D03*
X23622D02*
D03*
X33622Y72992D02*
D03*
Y82992D02*
D03*
X23622D02*
D03*
X33622Y92992D02*
D03*
X23622D02*
D03*
X33622Y102992D02*
D03*
X23622D02*
D03*
X33622Y112992D02*
D03*
D28*
X61339Y197835D02*
D03*
D29*
X23622Y112992D02*
D03*
D30*
X26575Y199016D02*
D03*
D31*
X18701D02*
D03*
D32*
X7874Y169291D02*
D03*
X44000Y22500D02*
D03*
X134843Y110236D02*
D03*
X125000D02*
D03*
X85630Y63976D02*
D03*
Y71850D02*
D03*
X149606Y63976D02*
D03*
X159449Y56102D02*
D03*
X134843Y175197D02*
D03*
X125000Y167323D02*
D03*
X13780Y8858D02*
D03*
X59055Y113189D02*
D03*
X177505Y40860D02*
D03*
X179134Y95472D02*
D03*
X179528Y152165D02*
D03*
X180709Y137402D02*
D03*
X189075Y130709D02*
D03*
X180709Y129921D02*
D03*
X211417Y130709D02*
D03*
X182040Y80237D02*
D03*
X190406Y73544D02*
D03*
X182040Y72757D02*
D03*
X212749Y73544D02*
D03*
X211417Y18504D02*
D03*
X180709Y17717D02*
D03*
X189075Y18504D02*
D03*
X180709Y25197D02*
D03*
M02*
