M48
;Layer_Color=9474304
;FILE_FORMAT=2:5
INCH,LZ
;TYPE=PLATED
T1F00S00C0.00787
T2F00S00C0.02756
T3F00S00C0.02800
T4F00S00C0.03543
T5F00S00C0.03937
%
T01
X0150591Y0055315
X0148622Y0058071
X0152559
X0150591Y0060827
X0147244Y0136024
X0149213Y0138779
X0145275
X0147244Y0141535
X0090551Y0201969
X0088583Y0204725
X009252
X0090551Y020748
T02
X0045276Y021063
X005315
T03
X0117806Y0042036
X0142006Y0045206
X0128937Y0067913
X0113706Y0083356
X0095472Y0093504
X0075787
X0074206Y0068356
X017126Y0058071
X0158465Y0126969
X014815Y015151
X0138779Y0147638
X0101378Y0205709
X0086358Y0211706
T04
X0023622Y0023622
Y0033622
Y0043622
Y0053622
X0033622
Y0043622
Y0033622
Y0023622
X0057087Y005315
X0090236Y0023622
X0100236
X0110236
X0120236
X0130236
X0140236
X0150236
X0188976
X0198976
X0208976
X0208662Y0161417
X0198661
Y0171417
X0208662
Y0181417
X0198661
Y0191417
X0208662
X0185039
Y0181417
Y0171417
Y0161417
X0175039
Y0171417
Y0181417
Y0191417
X0150079Y0110236
X0140079
X0130079
X0120079
X0110079
X0100079
X0057087Y010315
Y009315
Y008315
Y007315
Y006315
X0033622Y0063622
Y0073622
Y0083622
Y0093622
Y0103622
Y0113622
X0023622
Y0103622
Y0093622
Y0083622
Y0073622
Y0063622
Y0135827
Y0145827
Y0155827
Y0165827
T05
X0188976Y0084646
X0198976
X0208976
X0208662Y0125984
X0198661
X0188662
M30
